<svg xmlns="http://www.w3.org/2000/svg"
	width="22.6dp"
	height="12.2dp"
	viewBox="0 0 22.6 12.2">
	<path
		d="M21.3,4.1V2c0,-1.1 -0.9,-2 -2,-2H2C0.9,0 0,0.9 0,2v8.1c0,1.1 0.9,2 2,2h17.3c1.1,0 2,-0.9 2,-2v-2c0.6,0 1.2,-0.2 1.2,-1v-2C22.6,4.3 21.9,4.1 21.3,4.1L21.3,4.1zM20.3,5.1v5.1c0,0.6 -0.5,1 -1,1H2c-0.6,0 -1,-0.5 -1,-1V2c0,-0.6 0.5,-1 1,-1h17.3c0.6,0 1,0.5 1,1V5.1z"
		fill="#FA0000"/>
	<path
		d="M9.6,9.1C9.6,8.5 10,8 10.7,8c0.6,0 1.1,0.5 1.1,1.1c0,0.6 -0.5,1.1 -1.1,1.1C10,10.2 9.6,9.7 9.6,9.1z"
		fill="#FA0000"/>
	<path
		d="M9.8,3.5l0,-1.5l1.7,0l0,1.5l-0.3,3.7l-1.1,0z"
		fill="#FA0000"/>
</svg>
