<svg xmlns="http://www.w3.org/2000/svg"
	width="22.56dp"
	height="12.19dp"
	viewBox="0 0 22.56 12.19">
	<path
		d="M21.34,4.06V2.03c0,-1.12 -0.91,-2.03 -2.03,-2.03H2.03C0.91,0 0,0.91 0,2.03v8.13c0,1.12 0.91,2.03 2.03,2.03H19.3c1.12,0 2.03,-0.91 2.03,-2.03V8.13c0.56,0 1.23,-0.17 1.23,-1.02V5.08C22.57,4.29 21.9,4.06 21.34,4.06L21.34,4.06zM20.32,5.07v5.08c0,0.56 -0.46,1.02 -1.02,1.02H2.03c-0.56,0 -1.02,-0.46 -1.02,-1.02V2.02C1.01,1.46 1.47,1 2.03,1H19.3c0.56,0 1.02,0.46 1.02,1.02L20.32,5.07L20.32,5.07zM2.27,10.15h16.79c0.13,0 0.24,-0.11 0.24,-0.24V2.25c0,-0.13 -0.11,-0.24 -0.24,-0.24H2.27c-0.13,0 -0.24,0.11 -0.24,0.24v7.66C2.03,10.05 2.14,10.15 2.27,10.15z"
		fill="#009845"/>
</svg>
