<svg xmlns="http://www.w3.org/2000/svg"
    width="22.57dp"
    height="12.19dp"
    viewBox="0 0 22.57 12.19">
    <path
        d="M21.34,4.06L21.34,2a2,2 0,0 0,-2 -2L2,0A2,2 0,0 0,0 2v8.13a2,2 0,0 0,2 2L19.31,12.13a2,2 0,0 0,2 -2v-2c0.56,0 1.23,-0.17 1.23,-1v-2c0,-0.79 -0.67,-1 -1.23,-1ZM20.34,5.06v5.08a1,1 0,0 1,-1 1L2,11.14a1,1 0,0 1,-1 -1L1,2A1,1 0,0 1,2 1L19.31,1a1,1 0,0 1,1 1ZM2.34,10.14L19.06,10.14a0.23,0.23 0,0 0,0.24 -0.23L19.3,2.27A0.24,0.24 0,0 0,19.06 2L2.27,2A0.24,0.24 0,0 0,2 2.27L2,9.93A0.23,0.23 0,0 0,2.27 10.16Z"
        fill="#808080"/>
</svg>
