<svg enable-background="new 0 0 412.86 345.38" viewBox="0 0 412.86 345.38" xmlns="http://www.w3.org/2000/svg"><path d="m355.36 243.08-61-98.22-17.1-7.77 4.61-12.35-73.51-118.38c-4.44-7.14-14.83-7.14-19.26 0l-74.65 120.2-3.06 18.79-18.49 15.91-50.81 81.81c-4.69 7.55.74 17.32 9.63 17.32h123.93l23.69-5.47 22.47 5.47h123.93c8.88.01 14.32-9.76 9.62-17.31z"/><path d="m51.59 316.94c0 17.16-10.28 27.44-25.58 27.44-15.38 0-24.5-11.67-24.5-26.59 0-15.61 10.05-27.28 25.35-27.28 15.99 0 24.73 11.98 24.73 26.43zm-37.65.62c0 10.28 4.79 17.47 12.68 17.47 7.96 0 12.52-7.58 12.52-17.7 0-9.43-4.41-17.47-12.52-17.47-8.04 0-12.68 7.57-12.68 17.7z"/><path d="m59.33 292.13c3.63-.62 8.73-1.08 15.92-1.08 7.27 0 12.44 1.39 15.92 4.17 3.4 2.63 5.57 6.96 5.57 12.06s-1.62 9.51-4.79 12.37c-4.02 3.71-9.97 5.49-16.93 5.49-1.55 0-2.94-.08-4.02-.31v18.71h-11.67zm11.67 23.65c1.01.23 2.17.31 3.94.31 6.26 0 10.13-3.17 10.13-8.43 0-4.79-3.32-7.65-9.28-7.65-2.32 0-3.94.16-4.79.39z"/><path d="m181.78 328.77c-1.31-4.79-3.32-8.19-6.96-9.66v-.23c4.48-1.62 9.2-6.18 9.2-12.75 0-4.79-1.7-8.5-4.87-10.98-3.71-2.94-8.27-3.71-16.85-3.71-6.32 0-11.28 0-15.69 0l6.14 9.89h10.86c5.41 0 8.66 1.89 8.66 6.61 0 4.56-3.48 6.61-9.35 6.61h-16.31v28.98h11.67v-20.48h3.48c4.87.08 7.11 1.78 8.58 8.35 1.47 6.42 2.78 10.59 3.56 12.14h12.06c-1.01-2.02-2.55-8.82-4.18-14.77z"/><path d="m140.34 291.43h-40.04v9.9h14.07v42.2h11.75v-42.2h8.08z"/><path d="m205.29 330.16-3.71 13.37h-12.14l15.85-52.1h15.46l16.23 52.1h-12.75l-4.02-13.37zm13.22-8.81-3.25-11.05c-.93-3.09-1.86-6.96-2.63-10.05h-.16c-.77 3.09-1.54 7.03-2.39 10.05l-3.09 11.05z"/><path d="m337.19 291.43v52.1h-11.75v-52.1z"/><path d="m380.43 333.89c-1.99.42-4.26.68-6.45.68-10.44 0-16.62-6.57-16.62-17.01 0-11.59 7.27-17.24 16.54-17.24 2.53 0 4.68.34 6.54.82l5.25-8.45c-2.29-1.06-6.63-2.04-12.24-2.04-15.77 0-28.45 9.82-28.45 27.6 0 14.84 9.28 26.12 27.29 26.12 6.25 0 11.19-1.23 13.28-2.24z"/><path d="m277.19 313h-21.49v-11.91h16.8l6-9.66h-34.55v52.1h11.75v-20.95h15.54z"/><path d="m317.93 313h-21.49v-11.91h16.81l6-9.66h-34.56v52.1h11.75v-20.95h15.54z"/><g fill="#ffb600"><path d="m208.33 110.02-3.52-38.2h-12.16l-3.53 38.2z"/><path d="m193.62 61.25h10.21l-2.45-26.65h-5.3z"/><path d="m200.94 29.84-1.63-17.6h-1.17l-1.62 17.6z"/></g><path d="m126.57 238.12c21.28 0 36.24-17.13 36.24-59.35 0-25.6-7.65-55.36-34.74-55.36-5.07 0-9.6 1.12-13.62 3.15l-21.55 34.7c-1.16 6.04-1.73 12.5-1.73 19.17-.01 30.75 9.97 57.69 35.4 57.69zm.67-95.76c9.81 0 12.8 17.79 12.8 37.4 0 22.78-3.49 39.4-12.64 39.4-8.81 0-13.63-12.97-13.63-38.4 0-24.1 4.82-38.4 13.47-38.4z" fill="#fff"/><path d="m281.88 124.74h-37.57v20.12h19.78v91.93h21.78v-91.93h8.5z" fill="#fff"/><path d="m176.61 126.4v110.38h21.78v-41.73h4.32c8.98 0 20.28-3.33 27.26-10.64 5.82-6.32 9.47-14.8 9.47-26.93 0-9.47-2.99-18.78-9.64-24.6-7.32-6.82-17.46-8.65-30.42-8.65-8.31.01-16.62.84-22.77 2.17zm41.23 32.92c0 10.47-4.99 18.29-15.96 18.29-1.33 0-2.49 0-3.49-.33v-34.58c1.33-.5 3.32-.83 5.32-.83 10.14-.01 14.13 7.64 14.13 17.45z" fill="#fff"/><path d="m176.61 249.58-.96 10.82h46.16l-.96-10.82z" fill="#ffb600"/><path d="m402.18 289c1.54 0 3.05.4 4.52 1.19s2.61 1.93 3.43 3.4 1.23 3.01 1.23 4.61c0 1.58-.4 3.11-1.21 4.57s-1.94 2.6-3.4 3.41-2.98 1.21-4.57 1.21-3.12-.4-4.57-1.21c-1.46-.81-2.59-1.94-3.41-3.41-.81-1.46-1.22-2.98-1.22-4.57 0-1.6.41-3.14 1.23-4.61s1.97-2.61 3.44-3.4c1.48-.8 2.98-1.19 4.53-1.19zm0 1.52c-1.29 0-2.55.33-3.77.99s-2.18 1.61-2.87 2.84-1.04 2.51-1.04 3.84c0 1.32.34 2.59 1.02 3.81.68 1.21 1.63 2.16 2.84 2.84 1.22.68 2.49 1.02 3.81 1.02s2.59-.34 3.81-1.02 2.16-1.62 2.84-2.84c.67-1.22 1.01-2.48 1.01-3.81s-.34-2.61-1.03-3.84-1.64-2.17-2.87-2.84-2.47-.99-3.75-.99zm-4.03 12.75v-9.89h3.4c1.16 0 2 .09 2.52.27s.93.5 1.24.96c.31.45.46.94.46 1.45 0 .72-.26 1.35-.77 1.89-.52.54-1.2.84-2.05.9.35.15.63.32.84.52.4.39.89 1.04 1.46 1.96l1.21 1.94h-1.95l-.88-1.56c-.69-1.23-1.25-1.99-1.67-2.3-.29-.23-.72-.34-1.28-.34h-.94v4.2zm1.59-5.56h1.94c.92 0 1.56-.14 1.89-.41.34-.28.5-.64.5-1.1 0-.29-.08-.55-.24-.78s-.39-.4-.68-.52c-.29-.11-.82-.17-1.6-.17h-1.81z" fill="#303341"/></svg>