<svg xmlns="http://www.w3.org/2000/svg"
	width="24dp"
	height="22dp"
	viewBox="0 0 24 22">
	<path
		d="M11.2,6.6c-0.2,-0.2 -0.5,-0.4 -0.8,-0.5c-0.3,-0.1 -0.7,-0.2 -1,-0.2C9,5.9 8.6,5.9 8.3,6.1C8,6.2 7.7,6.4 7.4,6.6C7.2,6.9 7,7.1 6.9,7.4c-0.1,0.3 -0.2,0.6 -0.2,1s0.1,0.7 0.2,1C7,9.7 7.2,10 7.4,10.2c0.2,0.2 0.5,0.4 0.8,0.6C8.6,10.9 9,11 9.3,11c0.4,0 0.7,-0.1 1,-0.2s0.6,-0.3 0.8,-0.6c0.2,-0.2 0.4,-0.5 0.6,-0.8c0.1,-0.3 0.2,-0.6 0.2,-1s-0.1,-0.7 -0.2,-1C11.7,7.1 11.5,6.9 11.2,6.6zM20.6,1.8H3.4c-1.2,0 -2.1,0.9 -2.1,2v14.4c0,1.1 0.9,2 2.1,2h17.2c1.2,0 2.1,-0.9 2.1,-2V3.8C22.7,2.7 21.8,1.8 20.6,1.8L20.6,1.8zM20.6,15.4c-0.2,-0.5 -0.5,-1 -0.8,-1.5c-0.3,-0.5 -0.6,-1 -1,-1.4c-0.4,-0.4 -0.7,-0.8 -1.2,-1S16.8,11 16.3,11c-0.5,0 -1,0.1 -1.4,0.3c-0.4,0.2 -0.7,0.5 -1,0.8c-0.3,0.3 -0.5,0.6 -0.7,1s-0.4,0.7 -0.6,1s-0.5,0.6 -0.7,0.8c-0.3,0.2 -0.6,0.3 -0.9,0.3s-0.7,0 -0.9,-0.1c-0.3,-0.1 -0.5,-0.1 -0.7,-0.2S9,14.7 8.8,14.6c-0.2,-0.1 -0.4,-0.2 -0.6,-0.3c-0.2,-0.1 -0.4,-0.1 -0.7,-0.2c-0.3,-0.1 -0.6,-0.1 -0.9,-0.1c-0.3,0 -0.6,0.1 -0.9,0.2c-0.3,0.1 -0.6,0.3 -0.8,0.6c-0.3,0.2 -0.5,0.5 -0.8,0.8c-0.3,0.3 -0.5,0.6 -0.7,0.9V4.7c0,-0.5 0.4,-0.9 1,-0.9h15.2c0.5,0 1,0.4 1,0.9V15.4L20.6,15.4z"
		fill="#499B52"/>
</svg>
