<svg enable-background="new 0 0 32.96 21.7" viewBox="0 0 32.96 21.7" xmlns="http://www.w3.org/2000/svg"><path d="m23.99 7.92h-13.42c-.62 0-1.2.5-1.51 1.12l-5.49 11.09h-1.85c-.08 0-.15-.07-.15-.15v-14.82-3.59h4.8l1.12 2.94c.12.3.41.5.74.5h15.61c.08 0 .15.07.15.15zm.85 13.78c.73 0 1.59-.47 1.91-1.12l6.1-11.54c.37-.7-.17-1.12-1.12-1.12h-6.16v-2.75c0-.95-.77-1.72-1.72-1.72h-15.08l-1.12-2.94c-.12-.31-.41-.51-.73-.51h-6.12c-.21 0-.41.08-.56.23-.14.15-.23.35-.23.56l.02 4.37-.03 14.82c0 .95.77 1.73 1.72 1.73z" fill="#c77400"/></svg>