<svg viewBox="0 0 37.9 40.93" xmlns="http://www.w3.org/2000/svg"><path d="m27.67 40.93h-17.43a4.39 4.39 0 0 1 -4.39-4.38v-21.95a1.47 1.47 0 1 1 2.93 0v21.95a1.47 1.47 0 0 0 1.46 1.45h17.44a1.47 1.47 0 0 0 1.46-1.46v-21.88a1.47 1.47 0 0 1 2.93 0v21.89a4.4 4.4 0 0 1 -4.4 4.38zm-15.97-36.55a1.46 1.46 0 0 1 1.46-1.46h11.62a1.43 1.43 0 0 1 1.43 1.46v2.93h-14.51zm24.74 2.93h-7.31v-2.93a4.37 4.37 0 0 0 -4.35-4.38h-11.62a4.39 4.39 0 0 0 -4.39 4.38v2.93h-7.31a1.42 1.42 0 0 0 -1 .43 1.44 1.44 0 0 0 -.43 1 1.46 1.46 0 0 0 1.46 1.46h35a1.43 1.43 0 0 0 1.41-1.43 1.43 1.43 0 0 0 -.42-1 1.46 1.46 0 0 0 -1.04-.46zm-21.12 24.85a1.44 1.44 0 0 1 -1-.43 1.42 1.42 0 0 1 -.43-1v-16.11a1.47 1.47 0 1 1 2.93 0v16.08a1.45 1.45 0 0 1 -1.47 1.46zm7.26 0a1.47 1.47 0 0 1 -1.46-1.46v-16.08a1.46 1.46 0 1 1 2.92 0v16.08a1.45 1.45 0 0 1 -1.46 1.46z" fill="#ed1c24"/></svg>