<?xml version="1.0" standalone="no"?><!DOCTYPE svg PUBLIC "-//W3C//DTD SVG 1.1//EN" "http://www.w3.org/Graphics/SVG/1.1/DTD/svg11.dtd"><svg t="1660100792562" class="icon" viewBox="0 0 1024 1024" version="1.1" xmlns="http://www.w3.org/2000/svg" p-id="3009" width="24" height="24" xmlns:xlink="http://www.w3.org/1999/xlink"><defs><style type="text/css">@font-face { font-family: element-icons; src: url("chrome-extension://moombeodfomdpjnpocobemoiaemednkg/fonts/element-icons.woff") format("woff"), url("chrome-extension://moombeodfomdpjnpocobemoiaemednkg/fonts/element-icons.ttf ") format("truetype"); }
</style></defs><path d="M750.35648 379.82592a44.16896 44.16896 0 0 0-61.98272 0L438.09792 630.06208l-102.42688-103.49824a44.44928 44.44928 0 0 0-62.35904 63.36l131.91552 131.39328 1.85088 2.20032a43.47776 43.47776 0 0 0 62.35776 0l280.92032-281.29152a44.07424 44.07424 0 0 0 0-62.4z m42.3232-148.96512c-71.7568-72.41472-171.3472-116.32-280.6592-116.32-108.70016 0-207.02336 43.264-278.45888 114.14912l-2.5152 2.176a397.184 397.184 0 0 0-116.50688 280.64256c0 110.06848 44.78208 209.4848 116.50688 281.61024 72.04352 71.808 171.02976 116.352 280.97408 116.352a395.73504 395.73504 0 0 0 278.43072-114.176l2.22592-2.176c71.72736-72.12032 116.79616-171.53024 116.79616-281.61024 0-109.11232-45.07008-208.81792-116.79616-280.6528z m-62.36032 499.54432l-1.85088 1.8816a306.84544 306.84544 0 0 1-216.448 89.05472c-85.51552 0-162.58816-35.10656-218.32704-90.93632a308.352 308.352 0 0 1 0-437.12l1.5616-2.20032c56.08448-54.2336 132.49408-88.44032 216.76544-88.44032a307.8208 307.8208 0 0 1 218.29888 90.32832v0.31872A305.95968 305.95968 0 0 1 820.864 511.50848c0 85.93024-34.176 163.0912-90.54464 218.89152z" p-id="3010" fill="#1aad19"></path></svg>