<svg viewBox="0 0 18.88 18.88" xmlns="http://www.w3.org/2000/svg"><path d="m8.3 15.83 2.37-2.11a.58.58 0 0 0 .19-.39.61.61 0 0 0 -.15-.41.57.57 0 0 0 -.81-.05l-2.41 2.13-1.49-1.5 2.36-2.11a.51.51 0 0 0 .15-.39.57.57 0 0 0 -1-.46l-2.37 2.15-1.45-1.45 2.37-2.11a.57.57 0 0 0 0-.81.58.58 0 0 0 -.81 0l-2.37 2.11-1.45-1.43c1.32-1.07 4.82-3.9 5.34-4.39a1.46 1.46 0 0 1 2 .08l5.47 5.43a1.1 1.1 0 0 1 .14 1.47l-4.47 5.85zm7.83-14.34a1 1 0 0 1 .68-.34.77.77 0 0 1 .62.23 1 1 0 0 1 0 1.4l-4.43 4.47-1.35-1.25 4.48-4.46zm-5.64 17.07 4.77-6.3a2.21 2.21 0 0 0 -.25-3l-1.23-1.2 4.49-4.48a2.09 2.09 0 0 0 .61-1.51 2.06 2.06 0 0 0 -.64-1.5 1.9 1.9 0 0 0 -1.51-.57 2.19 2.19 0 0 0 -1.42.68l-4.47 4.47-1.31-1.3a2.56 2.56 0 0 0 -3.53-.09c-.5.45-4 3.29-5.79 4.73a.59.59 0 0 0 -.21.42.54.54 0 0 0 .17.43l9.39 9.37a.6.6 0 0 0 .51.17.57.57 0 0 0 .42-.32z" fill="#f15a24"/></svg>