<svg viewBox="0 0 64.41 64.31" xmlns="http://www.w3.org/2000/svg"><g fill="#0071c0"><path d="m5.32 59v-42.92h53.56v42.92zm32.16-51.06a2.72 2.72 0 0 1 -5.43.2 2.66 2.66 0 0 1 2.3-2.82h.83a2.69 2.69 0 0 1 2.3 2.62zm-12.95-2.62a2.68 2.68 0 0 1 -.31 5.33 2.63 2.63 0 0 1 -2.71-2.71 2.54 2.54 0 0 1 2.29-2.62zm-10.75 0a2.8 2.8 0 0 1 2.3 2.62 2.76 2.76 0 0 1 -2.72 2.71 2.72 2.72 0 0 1 -2.61-2.51 2.67 2.67 0 0 1 2.3-2.82zm-13.78-2.39v58.77a2.59 2.59 0 0 0 2.61 2.61h59.3a2.53 2.53 0 0 0 2.5-2.5v-59.2a2.58 2.58 0 0 0 -2.6-2.61h-58.81a2.94 2.94 0 0 0 -3 2.93z"/><path d="m27.87 53.66h3.55a.81.81 0 0 0 .84-.73l5.12-30.48a.89.89 0 0 0 -.84-1.05h-3.54a.81.81 0 0 0 -.84.73l-5.16 30.49c-.17.62.25 1.04.87 1.04zm25.69-16.18-5.22-10.23a.8.8 0 0 0 -.73-.52h-3.45a.86.86 0 0 0 -.73 1.27l4.8 9.5-4.8 9.5a.83.83 0 0 0 .73 1.25h3.45a.78.78 0 0 0 .73-.52zm-37.06-10.65a.78.78 0 0 0 -.73.52l-5.12 10.23 5.12 10.23a.77.77 0 0 0 .73.53h3.44a.86.86 0 0 0 .73-1.26l-4.8-9.5 4.8-9.5a.83.83 0 0 0 -.73-1.25z"/></g></svg>