<?xml version="1.0" standalone="no"?><!DOCTYPE svg PUBLIC "-//W3C//DTD SVG 1.1//EN" "http://www.w3.org/Graphics/SVG/1.1/DTD/svg11.dtd"><svg t="1670897832091" class="icon" viewBox="0 0 1024 1024" version="1.1" xmlns="http://www.w3.org/2000/svg" p-id="2785" width="24" height="24" xmlns:xlink="http://www.w3.org/1999/xlink"><path d="M323.918367 898.612245a41.795918 41.795918 0 0 1-41.795918-41.795918V334.367347H161.959184c-36.216163 0-65.828571-26.164245-67.813878-59.141225L94.040816 271.673469V146.285714c0-34.627918 30.406531-62.693878 67.918368-62.693877h407.510204C606.981224 83.591837 637.387755 111.657796 637.387755 146.285714v125.387755c0 34.627918-30.406531 62.693878-67.918367 62.693878H365.714286v167.183673h229.877551v-14.628571c0-36.780408 26.164245-66.831673 59.141224-68.858776L658.285714 417.959184h208.979592c34.627918 0 62.693878 30.866286 62.693878 68.963265v91.95102c0 38.09698-28.065959 68.963265-62.693878 68.963266H658.285714c-32.705306 0-59.559184-27.54351-62.443102-62.693878H365.714286v229.877551h229.877551v-14.628571c0-36.780408 26.164245-66.831673 59.141224-68.858776L658.285714 731.428571h208.979592c34.627918 0 62.693878 30.866286 62.693878 68.963266v91.95102c0 38.09698-28.065959 68.963265-62.693878 68.963265H658.285714c-32.705306 0-59.559184-27.54351-62.443102-62.693877H323.918367z m522.44898-83.591837h-167.183674v62.693878h167.183674v-62.693878z m0-313.469388h-167.183674v62.693878h167.183674v-62.693878zM553.795918 167.183673H177.632653v83.591837h376.163265V167.183673z" fill="#FF6F00" p-id="2786"></path></svg>