<svg enable-background="new 0 0 29 29" viewBox="0 0 29 29" xmlns="http://www.w3.org/2000/svg"><path d="m0 0h29v29h-29z" fill="none"/><path d="m14.5 16c-.7 0-1.2-.5-1.2-1.1v-10.2c0-.6.5-1.1 1.2-1.1s1.2.5 1.2 1.1v10.1c0 .7-.5 1.2-1.2 1.2z"/><path d="m14.5 24.1c-5.3 0-9.7-4.1-9.7-9.2 0-2.6 1.2-5.2 3.2-6.9.2-.2.5-.3.8-.3s.7.1.9.4c.2.2.3.5.3.8s-.2.6-.4.8c-1.6 1.3-2.5 3.2-2.5 5.2 0 3.8 3.3 7 7.3 7s7.3-3.1 7.3-7c0-2-.9-3.9-2.4-5.2-.2-.2-.4-.5-.4-.8s.1-.6.3-.8.6-.4.9-.4.6.1.8.3c2 1.8 3.2 4.3 3.2 6.9.1 5-4.3 9.2-9.6 9.2z"/></svg>