<svg xmlns="http://www.w3.org/2000/svg" width="18.35dp" height="17.51dp" viewBox="0 0 18.35 17.51">
    <path
        d="M6.96,4.97l1.43,-4.4c0.25,-0.76 1.33,-0.76 1.57,0l1.43,4.4c0.17,0.53 -0.22,1.08 -0.79,1.08H7.74C7.18,6.05 6.78,5.5 6.96,4.97z"
        fill="#FFC500" />
    <path
        d="M5.46,6.05H0.83c-0.8,0 -1.14,1.03 -0.49,1.5l3.75,2.72c0.45,0.33 1.1,0.12 1.27,-0.41l0.88,-2.72C6.43,6.6 6.03,6.05 5.46,6.05z"
        fill="#009844" />
    <path
        d="M4.66,12.02l-1.43,4.4c-0.25,0.76 0.63,1.4 1.27,0.93l3.75,-2.72c0.45,-0.33 0.45,-1.01 0,-1.34l-2.32,-1.68C5.48,11.28 4.84,11.49 4.66,12.02z"
        fill="#009FE8" />
    <path
        d="M10.1,14.63l3.75,2.72c0.65,0.47 1.52,-0.16 1.27,-0.93l-1.43,-4.4c-0.17,-0.53 -0.82,-0.74 -1.27,-0.41l-2.31,1.68C9.64,13.62 9.64,14.3 10.1,14.63z"
        fill="#E6E6E6" />
    <path
        d="M14.25,10.27L18,7.55c0.65,-0.47 0.32,-1.5 -0.49,-1.5h-4.63c-0.56,0 -0.96,0.55 -0.79,1.08l0.88,2.72C13.15,10.39 13.8,10.6 14.25,10.27z"
        fill="#E50012" />
</svg>
