<svg xmlns="http://www.w3.org/2000/svg"
    width="180.2dp"
    height="104.55dp"
    viewBox="0 0 180.2 104.55" >
    <path
        d="M64.72,77.88L62.35,77.88L62.35,83.6L60.06,83.6L60.06,69.41h4.76c3,0 5.25,1 5.25,4.12a4,4 0,0 1,-3 4.06l3.55,6L68,83.59ZM64.54,76.09c2.09,0 3.26,-0.85 3.26,-2.56s-1.17,-2.31 -3.26,-2.31L62.35,71.22v4.87Z"
        fill="#fff"/>
    <path
        d="M75.79,69.41h2.65L83.25,83.6L80.83,83.6l-1.23,-4h-5l-1.23,4L71,83.6ZM79.05,77.8 L78.48,75.9c-0.48,-1.54 -0.91,-3.12 -1.37,-4.72L77,71.18c-0.43,1.62 -0.88,3.18 -1.36,4.72l-0.57,1.9Z"
        fill="#fff"/>
    <path
        d="M85.17,69.41h3.77c4.46,0 7,2.41 7,7S93.4,83.6 89.06,83.6L85.17,83.6ZM88.78,81.77c3.12,0 4.8,-1.79 4.8,-5.31s-1.68,-5.22 -4.8,-5.22L87.46,71.24L87.46,81.77Z"
        fill="#fff"/>
    <path
        d="M101.65,69.41h2.65l4.81,14.19h-2.42l-1.23,-4h-5l-1.23,4L96.83,83.6ZM104.91,77.8 L104.34,75.9c-0.48,-1.54 -0.91,-3.12 -1.37,-4.72h-0.07c-0.44,1.62 -0.89,3.18 -1.37,4.72L101,77.8Z"
        fill="#fff"/>
    <path
        d="M115.69,77.88h-2.37L113.32,83.6L111,83.6L111,69.41h4.76c3,0 5.25,1 5.25,4.12a4,4 0,0 1,-3 4.06l3.55,6L119,83.59ZM115.51,76.09c2.09,0 3.26,-0.85 3.26,-2.56s-1.17,-2.31 -3.26,-2.31h-2.19v4.87Z"
        fill="#fff"/>
    <path
        d="M104.75,53.81a18,18 0,1 0,-31.85 0Z"
        stroke-width="1.81"
        fill="#00000000"
        stroke="#fff"/>
    <path
        d="M90.11,46.62a1.82,1.82 0,0 1,-2.57 0,1.84 1.84,0 0,1 0,-2.57c0.56,-0.56 4.69,-3.09 6.42,-4.14a0.22,0.22 0,0 1,0.3 0.3C93.2,41.94 90.67,46.06 90.11,46.62Z"
        fill="#fff"/>
    <path
        d="M88.83,32.16L88.83,34.35"
        stroke-width="1.81"
        fill="#00000000"
        stroke="#fff"
        stroke-linecap="round"/>
    <path
        d="M102,45.34L99.81,45.34"
        stroke-width="1.81"
        fill="#00000000"
        stroke="#fff"
        stroke-linecap="round"/>
    <path
        d="M77.85,45.34L75.66,45.34"
        stroke-width="1.81"
        fill="#00000000"
        stroke="#fff"
        stroke-linecap="round"/>
    <path
        d="M98.14,36.02L96.59,37.57"
        stroke-width="1.81"
        fill="#00000000"
        stroke="#fff"
        stroke-linecap="round"/>
    <path
        d="M79.51,36.02L81.06,37.57"
        stroke-width="1.81"
        fill="#00000000"
        stroke="#fff"
        stroke-linecap="round"/>
</svg>
