<svg xmlns="http://www.w3.org/2000/svg" width="22dp" height="22dp" viewBox="0 0 22 22">
    <path
        d="M21.3,11.1C21.3,11.1 21.3,11 21.3,11.1c0,-0.1 0,-0.1 0,-0.2c0,0 0,-0.1 0,-0.1c0,0 0,0 0,0c0,-0.1 -0.1,-0.3 -0.2,-0.4l-3.1,-4c-0.3,-0.4 -0.9,-0.5 -1.3,-0.2c-0.4,0.3 -0.5,0.9 -0.2,1.3l2,2.6h-10c-0.5,0 -0.9,0.4 -0.9,0.9c0,0.5 0.4,0.9 0.9,0.9h10l-2,2.6c-0.3,0.4 -0.2,1 0.2,1.3c0.4,0.3 1,0.2 1.3,-0.2l3.1,-4c0.1,-0.1 0.2,-0.2 0.2,-0.4c0,0 0,0 0,0C21.3,11.2 21.3,11.1 21.3,11.1L21.3,11.1z"
        fill="#499B52" />
    <path
        d="M7.5,19.5H5.1c-1.4,0 -2.6,-1.2 -2.6,-2.6V5.1c0,-1.4 1.2,-2.6 2.6,-2.6h2.4c0.5,0 0.9,-0.4 0.9,-0.9c0,-0.5 -0.4,-0.9 -0.9,-0.9H5.1c-2.4,0 -4.4,2 -4.4,4.4v11.8c0,2.4 2,4.4 4.4,4.4h2.4c0.5,0 0.9,-0.4 0.9,-0.9C8.4,19.9 8,19.5 7.5,19.5z"
        fill="#499B52" />
</svg>
