<svg xmlns="http://www.w3.org/2000/svg"
	width="22dp"
	height="23dp"
	viewBox="0 0 22 23">
	<path
		d="M17.3,14.3c2.3,0.9 3.9,3.1 4.2,5.6c0,0.4 -0.3,0.8 -0.7,0.9c-0.4,0 -0.8,-0.3 -0.9,-0.7c-0.2,-2.6 -2.3,-4.5 -4.9,-4.5c-2.5,0 -4.6,2 -4.9,4.5c0,0.4 -0.4,0.8 -0.9,0.7c-0.4,0 -0.8,-0.4 -0.7,-0.9c0,0 0,0 0,0c0.2,-2.6 1.9,-4.8 4.3,-5.6c-0.7,-0.7 -1.1,-1.6 -1.1,-2.5c0,-1.9 1.5,-3.4 3.4,-3.4c1.9,0 3.4,1.5 3.4,3.4C18.5,12.8 18,13.7 17.3,14.3L17.3,14.3zM6.1,20.3c0.4,0 0.8,0.4 0.8,0.8s-0.4,0.8 -0.8,0.8l0,0H4.9c-2.4,0 -4.3,-2.1 -4.3,-4.6V5.7c0,-2.5 1.9,-4.6 4.3,-4.6h10.6c2.4,0 4.3,2.1 4.3,4.6c0,0.4 -0.4,0.8 -0.8,0.8c-0.4,0 -0.8,-0.4 -0.8,-0.8c0,-1.7 -1.2,-3 -2.7,-3H4.9c-1.5,0 -2.7,1.3 -2.7,3v11.5c0,1.7 1.2,3 2.7,3L6.1,20.3L6.1,20.3zM3.7,6.7h6.4c0.4,0 0.8,0.4 0.8,0.8c0,0.4 -0.4,0.8 -0.8,0.8H3.7c-0.4,0 -0.8,-0.4 -0.8,-0.8C2.9,7.1 3.3,6.7 3.7,6.7zM3.7,11.5h3.2c0.4,0 0.8,0.4 0.8,0.8c0,0.4 -0.4,0.8 -0.8,0.8H3.7c-0.4,0 -0.8,-0.4 -0.8,-0.8C2.9,11.9 3.3,11.5 3.7,11.5zM15.1,13.5c1,0 1.8,-0.8 1.8,-1.8s-0.8,-1.8 -1.8,-1.8c-1,0 -1.8,0.8 -1.8,1.8C13.3,12.7 14.1,13.5 15.1,13.5z"
		fill="#E99612"/>
</svg>
