<svg xmlns="http://www.w3.org/2000/svg"
	width="24dp"
	height="24dp"
	viewBox="0 0 24 24">
	<path
		d="M15.2,6c-0.4,-0.2 -0.8,0 -0.9,0.4c-0.2,0.4 0,0.8 0.4,0.9c2.3,1 3.9,3.4 3.9,5.9c0,1.7 -0.7,3.3 -1.9,4.6c-1.2,1.2 -2.8,1.9 -4.6,1.9S8.7,19 7.4,17.8c-1.2,-1.2 -1.9,-2.8 -1.9,-4.6c0,-2.6 1.5,-4.9 3.9,-5.9C9.8,7.2 10,6.7 9.8,6.4C9.6,6 9.2,5.9 8.9,6C6,7.3 4.1,10.1 4.1,13.3c0,1.1 0.2,2.1 0.6,3.1c0.4,0.9 1,1.8 1.7,2.5c0.7,0.7 1.6,1.3 2.5,1.7c1,0.4 2,0.6 3.1,0.6c1.1,0 2.1,-0.2 3.1,-0.6c0.9,-0.4 1.8,-1 2.5,-1.7c0.7,-0.7 1.3,-1.6 1.7,-2.5c0.4,-1 0.6,-2 0.6,-3.1C19.9,10.1 18,7.3 15.2,6L15.2,6z"
		fill="#C7161E"/>
	<path
		d="M12,12.5c0.4,0 0.7,-0.3 0.7,-0.7V4.7C12.7,4.3 12.4,4 12,4s-0.7,0.3 -0.7,0.7v7.2C11.3,12.2 11.6,12.5 12,12.5z"
		fill="#C7161E"/>
</svg>
