<svg xmlns="http://www.w3.org/2000/svg"
	width="19.96dp"
	height="19.06dp"
	viewBox="0 0 19.96 19.06">
	<path
		d="M7.56,5.41l1.56,-4.79c0.27,-0.83 1.44,-0.83 1.71,0l1.56,4.79c0.19,0.58 -0.24,1.18 -0.86,1.18H8.42C7.81,6.59 7.37,5.99 7.56,5.41z"
		fill="#FFC500"/>
	<path
		d="M5.94,6.59H0.9c-0.87,0 -1.24,1.12 -0.53,1.63l4.08,2.96c0.5,0.36 1.2,0.13 1.39,-0.45L6.8,7.77C6.98,7.18 6.55,6.59 5.94,6.59z"
		fill="#FFC500"/>
	<path
		d="M5.07,13.08l-1.56,4.79c-0.27,0.83 0.68,1.52 1.39,1.01l4.08,-2.96c0.5,-0.36 0.5,-1.1 0,-1.46l-2.52,-1.83C5.96,12.27 5.25,12.5 5.07,13.08z"
		fill="#FFC500"/>
	<path
		d="M10.98,15.92l4.08,2.96c0.71,0.51 1.66,-0.18 1.39,-1.01l-1.56,-4.79C14.7,12.5 14,12.27 13.5,12.63l-2.52,1.83C10.48,14.82 10.48,15.56 10.98,15.92z"
		fill="#FFC500"/>
	<path
		d="M15.5,11.18l4.08,-2.96c0.71,-0.51 0.34,-1.63 -0.53,-1.63h-5.04c-0.61,0 -1.05,0.6 -0.86,1.18l0.96,2.96C14.31,11.31 15.01,11.54 15.5,11.18z"
		fill="#FFC500"/>
</svg>
