<svg xmlns="http://www.w3.org/2000/svg"
	width="18.6dp"
	height="18.7dp"
	viewBox="0 0 18.6 18.7">
	<path
		d="M-611.5,681.4c-6.8,0 -12.3,5.5 -12.3,12.3s5.5,12.2 12.3,12.2s12.2,-5.5 12.2,-12.2C-599.3,686.8 -604.7,681.4 -611.5,681.4"
		fill="#FFB600"/>
	<path
		d="M-603.4,689.8l-9.2,9.2c-0.2,0.2 -0.5,0.3 -0.8,0.3s-0.6,-0.1 -0.8,-0.3l-5.3,-5.3c-0.5,-0.5 -0.5,-1.2 0,-1.6c0.5,-0.5 1.2,-0.5 1.6,0l4.5,4.5l8.4,-8.4c0.5,-0.5 1.2,-0.5 1.6,0C-603,688.6 -603,689.4 -603.4,689.8"
		fill="#FFFFFF"/>
	<path
		d="M7,8.3H1.2C0.5,8.3 0,7.7 0,7.1V1.2C0,0.5 0.6,0 1.2,0H7c0.7,0 1.2,0.6 1.2,1.2V7C8.3,7.7 7.7,8.3 7,8.3z"
		fill="#DE7838"/>
	<path
		d="M7,18.7H1.2c-0.7,0 -1.2,-0.6 -1.2,-1.2v-5.8c0,-0.7 0.6,-1.2 1.2,-1.2H7c0.7,0 1.2,0.6 1.2,1.2v5.8C8.3,18.2 7.7,18.7 7,18.7z"
		fill="#DE7838"/>
	<path
		d="M17.4,11.5c0.1,0 0.2,0.1 0.2,0.2v5.8c0,0.1 -0.1,0.2 -0.2,0.2h-5.8c-0.1,0 -0.2,-0.1 -0.2,-0.2v-5.8c0,-0.1 0.1,-0.2 0.2,-0.2L17.4,11.5M17.4,10.5h-5.8c-0.7,0 -1.2,0.6 -1.2,1.2v5.8c0,0.7 0.6,1.2 1.2,1.2h5.8c0.7,0 1.2,-0.6 1.2,-1.2v-5.8C18.6,11 18.1,10.5 17.4,10.5L17.4,10.5z"
		fill="#DE7838"/>
	<path
		d="M17.4,8.3h-5.8c-0.7,0 -1.2,-0.6 -1.2,-1.2V1.2C10.4,0.5 11,0 11.6,0h5.8c0.7,0 1.2,0.6 1.2,1.2V7C18.6,7.7 18.1,8.3 17.4,8.3z"
		fill="#DE7838"/>
</svg>
