<svg enable-background="new 0 0 29 29" viewBox="0 0 29 29" xmlns="http://www.w3.org/2000/svg"><path d="m0 0h29v29h-29z" fill="none"/><path d="m6.3 13.5c-.1.4-.5.7-.9.6l-2.1-.4c-.3-.1-.5-.3-.6-.6 0-.1 0-.2 0-.3.1-.4.5-.7.9-.6l2.1.4c.5.1.7.5.6.9zm-.6-7.7 1.3 1.8c.3.3.7.4 1 .1.4-.2.5-.7.2-1l-1.3-1.8c-.3-.3-.7-.4-1-.1-.3.2-.4.4-.3.7 0 .1 0 .2.1.3zm8.8-.5c.4 0 .7-.3.7-.7v-2.2c0-.4-.3-.8-.7-.8s-.7.3-.7.7v2.2.1c0 .4.3.7.7.7zm6.1 2.4c.3.3.8.2 1-.1l1.4-1.7c.3-.3.2-.8-.1-1.1s-.8-.2-1 .1l-1.4 1.7c-.1.2-.2.4-.2.6.1.2.1.3.3.5zm5.6 5.2c-.1-.4-.4-.7-.8-.6l-2.1.3c-.4.1-.7.5-.6.9s.4.7.8.6l2.1-.3c.4-.1.7-.5.6-.9zm-4.1 12.9c.5 0 .9-.4.9-.8s-.4-.8-.9-.8h-15.3c-.4 0-.8.4-.8.8s.4.8.9.8zm-13.5-3.3h11.8c.6 0 1.1-.5 1.1-1.1v-7.5c0-3.8-3.1-7-7-7h-.1c-3.9 0-7 3.1-7 7v7.5c0 .6.5 1.1 1.2 1.1zm5.9-13.7c2.9 0 5.2 2.3 5.2 5.2v6.4c0 .1-.1.1-.1.1h-10.3c-.1 0-.1-.1-.1-.1v-6.4c0-2.8 2.4-5.2 5.3-5.2zm8.7 16.2" fill="#ff4d4d"/></svg>