<svg xmlns="http://www.w3.org/2000/svg" width="23dp" height="20dp" viewBox="0 0 23 20">
    <path
        d="M19.9,0.7H3.1c-1.3,0 -2.3,1 -2.3,2.3v13.9c0,1.3 1,2.3 2.3,2.3h16.9c1.3,0 2.3,-1 2.3,-2.3V3.1C22.2,1.8 21.2,0.7 19.9,0.7zM20.7,16.9c0,0.4 -0.4,0.8 -0.8,0.8H3.1c-0.4,0 -0.8,-0.4 -0.8,-0.8V3.1c0,-0.4 0.4,-0.8 0.8,-0.8h16.9c0.4,0 0.8,0.4 0.8,0.8V16.9z"
        fill="#2F72B8" />
    <path
        d="M13.1,13.8c-1.1,0.4 -2,0.4 -2.9,-0.1c-0.9,-0.4 -1.5,-1.2 -1.5,-1.2l1.1,-0.6c0,0 0.4,-0.2 -0.1,-0.3c-0.8,-0.4 -3.2,-1.8 -3.4,-1.9C6,9.5 6,9.8 6,9.8v3.9c0,0.3 0.2,0.2 0.2,0.2l1.1,-0.6c0,0 0.4,0.7 1.7,1.5c1.3,0.8 3.2,1 4.8,0.2c1.6,-0.8 2.6,-2.4 2.6,-2.4l-1.2,-0.8C14.6,12.8 13.8,13.5 13.1,13.8z"
        fill="#2F72B8" />
    <path
        d="M16.7,6.1l-1.1,0.6c0,0 -0.4,-0.7 -1.7,-1.5c-1.3,-0.8 -3.2,-1 -4.8,-0.2C7.6,5.8 6.6,7.4 6.6,7.4l1.2,0.8c0.6,-1 1.4,-1.7 2.1,-2c1.1,-0.4 2,-0.4 2.9,0.1c0.9,0.4 1.5,1.2 1.5,1.2l-1.1,0.6c0,0 -0.4,0.2 0.1,0.3c0.8,0.4 3.2,1.8 3.4,1.9c0.3,0.1 0.3,-0.2 0.3,-0.2V6.2C17,6 16.7,6.1 16.7,6.1z"
        fill="#2F72B8" />
</svg>
