<svg id="图层_1" data-name="图层 1" xmlns="http://www.w3.org/2000/svg" viewBox="0 0 66.05 66.22">
  <defs>
    <style>
      .cls-1 {
        fill: #ff6f00;
      }
    </style>
  </defs>
  <title>未标题-4</title>
  <path class="cls-1" d="M33.27,48A14.95,14.95,0,1,1,48.21,33.09,15,15,0,0,1,33.27,48ZM64.08,28.17H60.62a3.87,3.87,0,0,1-3.46-2.64l-1.82-4.28A3.78,3.78,0,0,1,56,17.13L58.15,15a2.47,2.47,0,0,0,.65-1.81,2.57,2.57,0,0,0-.65-1.65L54.52,7.91a2.39,2.39,0,0,0-3.46,0l-2.14,2.14a3.81,3.81,0,0,1-4.12.66L40.52,8.89a4,4,0,0,1-2.47-3.45V2.31A2.26,2.26,0,0,0,35.74,0H30.31A2.26,2.26,0,0,0,28,2.31V5.44a4,4,0,0,1-2.47,3.45l-4.28,1.82a3.81,3.81,0,0,1-4.12-.66L15,7.91a2.39,2.39,0,0,0-3.46,0L7.9,11.53a2.52,2.52,0,0,0-.65,1.65A2.47,2.47,0,0,0,7.9,15l2.15,2.14a3.8,3.8,0,0,1,.66,4.12L8.89,25.53a3.88,3.88,0,0,1-3.46,2.64H2a2.3,2.3,0,0,0-2,2.3v5.11a2.39,2.39,0,0,0,2.3,2.47H5.43a4,4,0,0,1,3.46,2.47l1.82,4.29a3.84,3.84,0,0,1-.66,4.11L7.9,51.06a4.06,4.06,0,0,0-.65,1.81,2.36,2.36,0,0,0,.65,1.65l3.63,3.63a2.39,2.39,0,0,0,3.46,0L17.13,56a3.81,3.81,0,0,1,4.12-.66l4.28,1.81A4,4,0,0,1,28,60.62v3a2.57,2.57,0,0,0,2.47,2.64h5.11a2.57,2.57,0,0,0,2.47-2.64v-3a4,4,0,0,1,2.47-3.46l4.28-1.81a3.81,3.81,0,0,1,4.12.66l2.14,2.14a2.39,2.39,0,0,0,3.46,0l3.63-3.63a2.36,2.36,0,0,0,.65-1.65,4.19,4.19,0,0,0-.65-1.81L56,48.92a3.82,3.82,0,0,1-.66-4.11l1.82-4.29a4,4,0,0,1,3.46-2.47h3.12a2.39,2.39,0,0,0,2.31-2.47V30.47A2.3,2.3,0,0,0,64.08,28.17Z"/>
</svg>
