<svg xmlns="http://www.w3.org/2000/svg" viewBox="0 0 14 14"><defs><style>.cls-1{fill:#0082ca;}</style></defs><g id="图层_2" data-name="图层 2"><g id="图层_3" data-name="图层 3"><path class="cls-1" d="M13.23,10.2Z"/><path class="cls-1" d="M13.32,10l0,0h0Z"/><path class="cls-1" d="M14,7.48V7.41S14,7.45,14,7.48Z"/><polygon class="cls-1" points="11.68 12.21 11.68 12.21 11.67 12.21 11.68 12.21"/><polygon class="cls-1" points="12.71 11.05 12.71 11.06 12.7 11.06 12.71 11.05"/><path class="cls-1" d="M7,0A7,7,0,0,0,7,14h.17a7,7,0,0,0,2.91-.71l0,0a7.16,7.16,0,0,0,1.56-1.06,7.49,7.49,0,0,0,1-1.15,9.35,9.35,0,0,0,.52-.86l.07-.15a7,7,0,0,0,.61-1.9l0-.17c0-.19,0-.38.06-.57s0-.27,0-.41A7,7,0,0,0,7,0Zm.11,10H7v3A6,6,0,0,1,7,1V4h.11a3,3,0,0,1,0,6Z"/><path class="cls-1" d="M7,4v6A3,3,0,0,1,7,4Z"/></g></g></svg>