<svg xmlns="http://www.w3.org/2000/svg" viewBox="0 0 180.2 104.55">
    <defs>
        <style>
            .cls-1 {
            fill: #fff;
            }
        </style>
    </defs>
    <path class="cls-1"
        d="M50.87,76.46c0-4.59,2.6-7.3,6.34-7.3s6.33,2.73,6.33,7.3S61,83.87,57.21,83.87,50.87,81,50.87,76.46Zm10.32,0c0-3.32-1.58-5.36-4-5.36s-4,2-4,5.36,1.56,5.45,4,5.45S61.19,79.77,61.19,76.46Z" />
    <path class="cls-1" d="M66.56,69.41h8.61V71.3H68.85v4.33h5.39V77.5H68.85v6.1H66.56Z" />
    <path class="cls-1" d="M77.74,69.41h8.6V71.3H80v4.33h5.39V77.5H80v6.1H77.74Z" />
    <path class="cls-1" d="M88.91,69.41H91.2V81.69h6.16V83.6H88.91Z" />
    <path class="cls-1" d="M99.92,69.41h2.29V83.6H99.92Z" />
    <path class="cls-1"
        d="M106,69.41h2.35l4.82,8.34,1.52,3h.1c-.12-1.44-.32-3.16-.32-4.7V69.41h2.2V83.6h-2.35l-4.82-8.36-1.52-3h-.08c.1,1.46.28,3.1.28,4.66V83.6H106Z" />
    <path class="cls-1"
        d="M120.51,69.41h8.59V71.3h-6.3v3.94h5.33v1.89H122.8v4.56h6.52V83.6h-8.81Z" />
    <path class="cls-1"
        d="M91.5,50.5a4.31,4.31,0,0,1,1.9.43.82.82,0,0,1,.29,1.27l-1.56,1.93a.81.81,0,0,1-1.26,0L89.31,52.2a.84.84,0,0,1,.29-1.28,4.43,4.43,0,0,1,1.9-.42Z" />
    <path class="cls-1"
        d="M79,27.11,102.94,51a1.48,1.48,0,0,1,0,2.08h0a1.46,1.46,0,0,1-2.08,0l-6.58-6.58a9.09,9.09,0,0,0-2.78-.45A8.77,8.77,0,0,0,87,47.34,1.44,1.44,0,0,1,85.1,47h0a1.47,1.47,0,0,1,.41-2.2,11.61,11.61,0,0,1,5.39-1.62l-3.81-3.82a16.13,16.13,0,0,0-4.66,2.17,1.47,1.47,0,0,1-2-.28h0a1.46,1.46,0,0,1,.29-2.13,19.43,19.43,0,0,1,4-2.09L81.4,33.65a23.46,23.46,0,0,0-3.59,2.11,1.46,1.46,0,0,1-2-.26h0a1.47,1.47,0,0,1,.28-2.12,26.08,26.08,0,0,1,3.1-1.91l-2.26-2.27a1.46,1.46,0,0,1,0-2.08h0A1.48,1.48,0,0,1,79,27.11Z" />
    <path class="cls-1"
        d="M91.5,28.44a26.32,26.32,0,0,1,15.39,4.93,1.47,1.47,0,0,1,.29,2.12h0a1.46,1.46,0,0,1-2,.28,23.61,23.61,0,0,0-17.14-4.14.71.71,0,0,1-.6-.2l-1.87-1.88a.29.29,0,0,1,.13-.48,26.2,26.2,0,0,1,5.79-.63Z" />
    <path class="cls-1"
        d="M102.25,39.09A19,19,0,0,0,92,35.81a.06.06,0,0,0,0,.11L95.07,39a.61.61,0,0,0,.26.15,16,16,0,0,1,5.25,2.33,1.46,1.46,0,0,0,2-.29h0A1.48,1.48,0,0,0,102.25,39.09Z" />
</svg>
