<?xml version="1.0" standalone="no"?><!DOCTYPE svg PUBLIC "-//W3C//DTD SVG 1.1//EN" "http://www.w3.org/Graphics/SVG/1.1/DTD/svg11.dtd"><svg t="1660807903111" class="icon" viewBox="0 0 1024 1024" version="1.1" xmlns="http://www.w3.org/2000/svg" p-id="3658" width="20" height="20" xmlns:xlink="http://www.w3.org/1999/xlink"><defs><style type="text/css">@font-face { font-family: element-icons; src: url("chrome-extension://moombeodfomdpjnpocobemoiaemednkg/fonts/element-icons.woff") format("woff"), url("chrome-extension://moombeodfomdpjnpocobemoiaemednkg/fonts/element-icons.ttf ") format("truetype"); }
</style></defs><path d="M649.045333 53.205333a426.666667 426.666667 0 0 1 308.053334 273.792 42.666667 42.666667 0 1 1-80.426667 28.458667 341.333333 341.333333 0 0 0-246.442667-219.050667 342.016 342.016 0 0 0-317.696 92.544l-119.466666 112.256H341.333333a42.666667 42.666667 0 0 1 0 85.333334H85.333333a42.666667 42.666667 0 0 1-39.552-26.666667l-0.213333-0.512A42.453333 42.453333 0 0 1 42.666667 383.829333V127.914667a42.666667 42.666667 0 0 1 85.333333 0v157.354666l125.141333-117.546666a426.496 426.496 0 0 1 395.904-114.517334zM981.333333 597.333333a42.666667 42.666667 0 0 1 39.552 26.666667l0.213334 0.554667a42.453333 42.453333 0 0 1 2.901333 15.530666V896a42.666667 42.666667 0 0 1-85.333333 0v-157.354667l-125.141334 117.546667a426.581333 426.581333 0 0 1-704-159.274667 42.666667 42.666667 0 1 1 80.426667-28.458666 341.333333 341.333333 0 0 0 246.442667 219.050666 342.016 342.016 0 0 0 317.696-92.544l119.466666-112.256H725.333333a42.666667 42.666667 0 0 1 0-85.333333h256z" p-id="3659" fill="#000000"></path></svg>