<svg xmlns="http://www.w3.org/2000/svg"
	width="20.8dp"
	height="18.8dp"
	viewBox="0 0 20.8 18.8">
	<path
		d="M-610.4,681.3c-6.8,0 -12.3,5.5 -12.3,12.3s5.5,12.2 12.3,12.2s12.2,-5.5 12.2,-12.2C-598.2,686.7 -603.6,681.3 -610.4,681.3"
		fill="#FFB600"/>
	<path
		d="M-602.3,689.7l-9.2,9.2c-0.2,0.2 -0.5,0.3 -0.8,0.3s-0.6,-0.1 -0.8,-0.3l-5.3,-5.3c-0.5,-0.5 -0.5,-1.2 0,-1.6c0.5,-0.5 1.2,-0.5 1.6,0l4.5,4.5l8.4,-8.4c0.5,-0.5 1.2,-0.5 1.6,0C-601.9,688.5 -601.9,689.3 -602.3,689.7"
		fill="#FFFFFF"/>
	<path
		d="M17.3,18.8H3.5c-1.9,0 -3.5,-1.5 -3.5,-3.5V3.5C0,1.6 1.5,0 3.5,0h13.8c1.9,0 3.5,1.5 3.5,3.5v11.9C20.8,17.3 19.2,18.8 17.3,18.8L17.3,18.8zM3.5,1C2.1,1 1,2.1 1,3.5v11.9c0,1.4 1.1,2.5 2.5,2.5h13.8c1.4,0 2.5,-1.1 2.5,-2.5V3.5c0,-1.4 -1.1,-2.5 -2.5,-2.5H3.5z"
		fill="#040000"/>
	<path
		d="M10.4,9.9C7.1,9.9 4.5,7.2 4.5,4c0,-0.3 0.2,-0.5 0.5,-0.5S5.5,3.7 5.5,4c0,2.7 2.2,4.9 4.9,4.9s4.9,-2.2 4.9,-4.9c0,-0.3 0.2,-0.5 0.5,-0.5s0.5,0.2 0.5,0.5C16.3,7.3 13.7,9.9 10.4,9.9z"
		fill="#040000"/>
</svg>
