<svg xmlns="http://www.w3.org/2000/svg"
	width="24dp"
	height="24dp"
	viewBox="0 0 24 24">
	<path
		d="M14.4,16.5c0.2,-0.6 0.7,-1.1 1.1,-1.5c0.2,-0.2 0.3,-0.2 0.6,-0.3c-0.1,-0.2 -0.2,-0.2 -0.2,-0.3c-0.2,-0.2 -0.3,-0.4 -0.4,-0.6c-0.5,0.3 -1,0.7 -1.3,1.2c-0.2,0.2 -0.4,0.6 -0.6,0.9L14.4,16.5zM10.9,17.7c0.1,0.2 0.2,0.5 0.2,0.7c0,0.1 0.1,0.2 0.1,0.3c0.3,-0.1 0.7,-0.2 1.1,-0.3c0.6,-0.2 1.1,-0.5 1.6,-1l-0.8,-0.8c-0.2,0.2 -0.3,0.2 -0.6,0.4C12.1,17.3 11.5,17.5 10.9,17.7L10.9,17.7zM7,17.6c0.2,0.2 0.6,0.3 0.8,0.5c0.7,0.3 1.3,0.6 2,0.7c0,-0.2 0.1,-0.5 0.1,-0.7l0.1,-0.3c-0.2,0 -0.5,-0.1 -0.7,-0.2c-0.6,-0.2 -1.1,-0.5 -1.6,-0.8c-0.2,0.2 -0.3,0.4 -0.5,0.6L7,17.6zM3.7,20.1c0,0.7 0.7,1.2 1.3,1.2H19c0.3,0 0.7,-0.1 0.9,-0.3c0.2,-0.2 0.4,-0.6 0.4,-0.9v-8.8c0,-0.3 -0.2,-0.7 -0.4,-0.9c-0.2,-0.2 -0.6,-0.3 -0.9,-0.3h-3.6l-0.6,1.2h4c0.1,0 0.2,0 0.2,0.1c0.1,0.1 0.1,0.1 0.1,0.2v1.4c-0.8,0 -1.7,0.1 -2.5,0.4l0.1,0.2l0.3,0.7c0.4,-0.1 0.7,-0.2 1.1,-0.2L19,14v5.9c0,0.1 0,0.2 -0.1,0.2c-0.1,0 -0.1,0.1 -0.2,0.1H5.4c-0.1,0 -0.2,0 -0.2,-0.1C5.2,20 5,19.9 5,19.9v-4.2c0.1,0.1 0.6,0.6 0.7,0.7c0.2,0.2 0.4,0.3 0.7,0.6c0.2,-0.2 0.3,-0.3 0.5,-0.5c0.1,-0.1 0.2,-0.2 0.2,-0.2c-0.7,-0.6 -2,-1.4 -2.1,-1.6v-2.9c0,-0.1 0,-0.2 0.1,-0.2c0.1,-0.1 0.1,-0.1 0.2,-0.1h2.4l-0.6,-1.2H5c-0.3,0 -0.7,0.1 -0.9,0.3c-0.2,0.2 -0.4,0.5 -0.4,0.8V20.1z"
		fill="#6B3B1C"/>
	<path
		d="M10.7,2.7c-2.2,0 -4.1,1.8 -4.1,4.1c0,2 1.4,3.6 3.3,4l0,0v4.4c0,0.4 0.3,0.8 0.8,0.8c0.4,0 0.8,-0.3 0.8,-0.8v-4.5l0,0c1.9,-0.4 3.3,-2 3.3,-4C14.8,4.5 12.9,2.7 10.7,2.7zM11.3,6.1c-0.7,0 -1.1,-0.5 -1.1,-1.1s0.5,-1.1 1.1,-1.1c0.7,0 1.1,0.5 1.1,1.1C12.5,5.5 11.9,6.1 11.3,6.1z"
		fill="#6B3B1C"/>
</svg>
