<svg xmlns="http://www.w3.org/2000/svg"
	width="268dp"
	height="26dp"
	viewBox="0 0 268 26">
	<path
		d="M262.5,0.2c0.9,0 1.8,0.2 2.7,0.7c0.9,0.5 1.6,1.2 2.1,2c0.5,0.9 0.7,1.8 0.7,2.8c0,0.9 -0.2,1.9 -0.7,2.7c-0.5,0.9 -1.2,1.6 -2,2c-0.9,0.5 -1.8,0.7 -2.7,0.7c-1,0 -1.9,-0.2 -2.7,-0.7c-0.9,-0.5 -1.6,-1.2 -2,-2c-0.5,-0.9 -0.7,-1.8 -0.7,-2.7c0,-1 0.2,-1.9 0.7,-2.8c0.5,-0.9 1.2,-1.6 2.1,-2C260.6,0.4 261.5,0.2 262.5,0.2M262.5,1.1c-0.8,0 -1.5,0.2 -2.3,0.6c-0.7,0.4 -1.3,1 -1.7,1.7c-0.4,0.7 -0.6,1.5 -0.6,2.3c0,0.8 0.2,1.6 0.6,2.3c0.4,0.7 1,1.3 1.7,1.7c0.7,0.4 1.5,0.6 2.3,0.6c0.8,0 1.6,-0.2 2.3,-0.6c0.7,-0.4 1.3,-1 1.7,-1.7c0.4,-0.7 0.6,-1.5 0.6,-2.3c0,-0.8 -0.2,-1.6 -0.6,-2.3c-0.4,-0.7 -1,-1.3 -1.7,-1.7C264,1.3 263.2,1.1 262.5,1.1M260.1,8.7V2.8h2c0.7,0 1.2,0.1 1.5,0.2c0.3,0.1 0.6,0.3 0.7,0.6c0.2,0.3 0.3,0.6 0.3,0.9c0,0.4 -0.2,0.8 -0.5,1.1c-0.3,0.3 -0.7,0.5 -1.2,0.5c0.2,0.1 0.4,0.2 0.5,0.3c0.2,0.2 0.5,0.6 0.9,1.2l0.7,1.2h-1.2l-0.5,-0.9c-0.4,-0.7 -0.7,-1.2 -1,-1.4c-0.2,-0.1 -0.4,-0.2 -0.8,-0.2H261v2.5H260.1zM261,5.4h1.2c0.6,0 0.9,-0.1 1.1,-0.2c0.2,-0.2 0.3,-0.4 0.3,-0.7c0,-0.2 0,-0.3 -0.1,-0.5c-0.1,-0.1 -0.2,-0.2 -0.4,-0.3c-0.2,-0.1 -0.5,-0.1 -1,-0.1H261V5.4z"
		fill="#070203"/>
	<path
		d="M244.4,17c-0.8,1.8 -1.9,3.1 -4,3.1h-10c-2.5,0 -4.2,-1.8 -3.9,-4l1,-6.2c0.3,-2.2 2.6,-4 5.1,-4h9.2c2,0 3.5,1.1 3.5,2.7h6.1l0.1,-1.3c0,-4.6 -2.2,-7.1 -6.2,-7.1h-14.9c-4,0 -7.7,3.3 -8.3,7.3l-1.8,10.8c-0.6,4 2.5,7.6 6.5,7.6h14.9c4,0 7.7,-3.3 8.3,-7.3l0.2,-1.5H244.4z"
		fill="#070203"/>
	<path
		d="M25.8,0.2H15.5h-3.7H1.2L0.1,5.9h3.9h10h1.2h0.3h7.7c2.5,0 4.2,1.8 3.9,4l-1,6.2c-0.3,2.2 -2.6,4 -5.1,4h-9.2c-2.5,0 -4.2,-1.8 -3.9,-4l1,-6.2c0,-0.3 0.1,-0.7 0.1,-1H3.3L2,18.6c-0.6,4 2.2,7.3 6.2,7.3h14.9c4,0 7.9,-3.5 8.5,-7.5l1.6,-10.6C33.8,3.7 29.8,0.2 25.8,0.2z"
		fill="#FFB600"/>
	<path
		d="M54.5,0.2H43.5h-0.9h-0.9h-4.2l-4.4,25.7h6.1l1.3,-7.8H54c6.6,0 7.3,-4.9 7.3,-4.9l0.9,-6.6C63,-0.4 54.5,0.2 54.5,0.2zM52.9,12H41.5l0.9,-5.6h11.3c0,0 2.4,0.1 2.4,2.6C56.1,9.1 56.3,12 52.9,12z"
		fill="#FFB600"/>
	<path
		d="M65.6,0.2l-1,5.7l10.5,0l-3.4,19.9l6.1,0l3.3,-19.9l10.7,0l1,-5.7z"
		fill="#FFB600"/>
	<path
		d="M181.5,12l-14.7,0l0.9,-5.5l11,0l5.9,0l1.1,-6.3l-16.9,0l-0.9,0l-0.9,0l-4.2,0l-4.4,25.6l6.2,0l1.2,-7.8l14.6,0z"
		fill="#070203"/>
	<path
		d="M207,12l-14.7,0l0.9,-5.5l11,0l5.9,0l1.1,-6.3l-16.9,0l-0.9,0l-0.9,0l-4.2,0l-4.4,25.6l6.1,0l1.3,-7.8l14.6,0z"
		fill="#070203"/>
	<path
		d="M147.2,0.2h-9.1l-17.6,25.7h6.5l4.2,-6.1h15.5l2.1,6.1h7.1L147.2,0.2zM134.8,14.6l6.8,-10l3.4,10H134.8z"
		fill="#070203"/>
	<path
		d="M112.8,0.2h-11.1h-0.9h-0.9h-4.2l-4.4,25.7h6.1l1.3,-7.8h11.8c1.2,0.1 2.3,1.1 2,3.2c-0.3,2.1 -0.8,4.7 -0.8,4.7l6.2,0l0.7,-4.4c0,0 0.6,-3.5 -1.1,-5c1.8,-1.4 2.1,-3.3 2.1,-3.3l0.9,-6.6C121.2,-0.4 112.8,0.2 112.8,0.2zM100.7,6.5H112c0,0 2.4,0.1 2.4,2.6c0,0 0.2,2.9 -3.2,2.9H99.8L100.7,6.5z"
		fill="#070203"/>
	<path
		d="M214.4,0.2l-4.4,25.6l6.1,0l3.2,-19.3l1,-6.3z"
		fill="#070203"/>
</svg>
