<svg xmlns="http://www.w3.org/2000/svg"
	width="24dp"
	height="24dp"
	viewBox="0 0 24 24">
	<path
		d="M15.1,17.3c0.3,-0.7 0.8,-1.2 1.3,-1.7c0.2,-0.2 0.4,-0.3 0.7,-0.4c-0.1,-0.2 -0.2,-0.3 -0.3,-0.4c-0.2,-0.3 -0.4,-0.5 -0.5,-0.7c-0.6,0.4 -1.1,0.9 -1.5,1.4c-0.3,0.3 -0.5,0.7 -0.7,1.1L15.1,17.3zM11,18.7c0.1,0.3 0.2,0.6 0.3,0.8c0,0.1 0.1,0.3 0.1,0.4c0.4,-0.1 0.8,-0.2 1.2,-0.4c0.7,-0.3 1.3,-0.6 1.9,-1.1l-1,-1c-0.2,0.2 -0.4,0.3 -0.7,0.5C12.4,18.2 11.7,18.5 11,18.7L11,18.7zM6.4,18.6c0.3,0.2 0.7,0.4 1,0.6c0.8,0.4 1.5,0.7 2.3,0.8c0,-0.3 0.1,-0.6 0.1,-0.8l0.1,-0.4c-0.3,0 -0.6,-0.1 -0.8,-0.2c-0.7,-0.2 -1.2,-0.6 -1.8,-1c-0.2,0.3 -0.4,0.5 -0.6,0.7L6.4,18.6zM2.6,21.4c0,0.8 0.8,1.4 1.5,1.4h16.3c0.4,0 0.8,-0.1 1.1,-0.4c0.3,-0.3 0.5,-0.7 0.5,-1.1V11.2c0,-0.4 -0.2,-0.8 -0.5,-1.1c-0.3,-0.3 -0.7,-0.4 -1.1,-0.4h-4.2l-0.7,1.4h4.7c0.1,0 0.2,0 0.2,0.1c0.1,0.1 0.1,0.1 0.1,0.2v1.6c-1,0 -2,0.1 -2.9,0.5l0.1,0.3l0.4,0.9c0.5,-0.1 0.9,-0.3 1.3,-0.3l1.1,-0.1v6.9c0,0.1 0,0.2 -0.1,0.2c-0.1,0 -0.1,0.1 -0.2,0.1H4.5c-0.1,0 -0.2,0 -0.2,-0.1c0,-0.1 -0.2,-0.2 -0.2,-0.2v-4.9c0.1,0.1 0.7,0.7 0.8,0.8c0.2,0.2 0.5,0.4 0.9,0.7c0.2,-0.2 0.4,-0.4 0.6,-0.6c0.1,-0.1 0.2,-0.2 0.3,-0.3c-0.9,-0.7 -2.3,-1.6 -2.5,-1.9v-3.4c0,-0.1 0,-0.2 0.1,-0.2c0.1,-0.1 0.1,-0.1 0.2,-0.1h2.8L6.5,9.8H4.1c-0.4,0 -0.8,0.1 -1.1,0.4c-0.3,0.3 -0.5,0.6 -0.5,1V21.4z"
		fill="#E99612"/>
	<path
		d="M10.8,1.1C8.2,1.1 6,3.2 6,5.9c0,2.3 1.6,4.2 3.8,4.7l0,0v5.2c0,0.5 0.4,1 1,1c0.5,0 1,-0.4 1,-1v-5.3l0,0c2.2,-0.5 3.8,-2.4 3.8,-4.7C15.5,3.2 13.3,1.1 10.8,1.1zM11.4,5.1c-0.8,0 -1.3,-0.6 -1.3,-1.3s0.6,-1.3 1.3,-1.3c0.8,0 1.3,0.6 1.3,1.3C12.9,4.4 12.2,5.1 11.4,5.1z"
		fill="#E99612"/>
</svg>
