<svg xmlns="http://www.w3.org/2000/svg"
	width="20dp"
	height="18dp"
	viewBox="0 0 20 18">
	<path
		d="M15.8,10.8c-0.4,0 -0.7,0.3 -0.7,0.7v2.9c0,0.8 -0.6,1.5 -1.3,1.5h-10c-0.7,0 -1.3,-0.7 -1.3,-1.5V4.8c0,-0.8 0.6,-1.5 1.3,-1.5h4c0.4,0 0.7,-0.3 0.7,-0.7S8.1,1.9 7.7,1.9h-4c-1.5,0 -2.6,1.3 -2.6,2.8v9.6c0,1.6 1.2,2.8 2.6,2.8h10c1.5,0 2.6,-1.3 2.6,-2.8v-2.9C16.4,11.1 16.1,10.8 15.8,10.8L15.8,10.8zM15.8,10.8"
		fill="#499B52"/>
	<path
		d="M18.1,1.6c-1.1,-1.1 -2.8,-1.2 -4,-0.1L6.2,9C6.1,9.1 6,9.2 6,9.3l-1.2,4.1c-0.1,0.2 0,0.5 0.2,0.7c0.1,0.1 0.3,0.2 0.5,0.2c0.1,0 0.1,0 0.2,0l4.1,-1c0.1,0 0.2,-0.1 0.3,-0.2L18,5.6c0.5,-0.5 0.9,-1.2 0.9,-2C18.9,2.9 18.6,2.2 18.1,1.6L18.1,1.6zM17,4.6l-0.5,0.5l-2,-2.1l0.5,-0.5c0.6,-0.5 1.5,-0.5 2,0.1c0.3,0.3 0.4,0.6 0.4,1C17.5,4 17.3,4.3 17,4.6L17,4.6zM17,4.6"
		fill="#499B52"/>
</svg>
