<svg xmlns="http://www.w3.org/2000/svg"
	width="24dp"
	height="24dp"
	viewBox="0 0 24 24">
	<path
		d="M17.9,14.3c-0.4,0 -0.7,0.3 -0.7,0.7v2.9c0,0.8 -0.6,1.5 -1.3,1.5H5.7c-0.7,0 -1.3,-0.7 -1.3,-1.5V8.1c0,-0.8 0.6,-1.5 1.3,-1.5h4c0.4,0 0.7,-0.3 0.7,-0.7s-0.3,-0.7 -0.7,-0.7h-4C4.2,5.2 3,6.5 3,8.1V18c0,1.6 1.2,2.9 2.7,2.9h10.2c1.5,0 2.7,-1.3 2.7,-2.9v-3C18.6,14.6 18.3,14.3 17.9,14.3L17.9,14.3z"
		fill="#207D3A"/>
	<path
		d="M20.2,4.9c-1.1,-1.1 -2.9,-1.2 -4,-0.1l-8.1,7.6C8,12.5 8,12.6 7.9,12.7l-1.3,4.2c-0.1,0.2 0,0.5 0.2,0.7c0.1,0.1 0.3,0.2 0.5,0.2c0.1,0 0.1,0 0.2,0l4.2,-1c0.1,0 0.2,-0.1 0.3,-0.2L20.1,9C20.7,8.4 21,7.7 21,7C21,6.2 20.8,5.5 20.2,4.9L20.2,4.9zM19.2,8l-0.5,0.5l-2,-2.1l0.5,-0.5c0.6,-0.6 1.5,-0.5 2.1,0.1c0.3,0.3 0.4,0.7 0.4,1C19.6,7.3 19.4,7.7 19.2,8L19.2,8z"
		fill="#207D3A"/>
</svg>
