<svg xmlns="http://www.w3.org/2000/svg"
	width="24dp"
	height="24dp"
	viewBox="0 0 24 24">
	<path
		d="M4.3,11.2l9.6,9.6c0.1,0.1 0.2,0.2 0.4,0.2c0.1,0 0.3,-0.1 0.4,-0.2l6.4,-6.4c0.2,-0.2 0.2,-0.5 0,-0.8l-9.6,-9.6c-0.1,-0.1 -0.3,-0.2 -0.5,-0.1L5.8,5.1c-0.2,0 -0.4,0.2 -0.4,0.4l-1.2,5.2C4.1,10.9 4.2,11.1 4.3,11.2zM13.9,17l3.4,-3.4c0.2,-0.2 0.5,-0.2 0.8,0c0.2,0.2 0.2,0.5 0,0.8l-3.4,3.4c-0.1,0.1 -0.2,0.2 -0.4,0.2c-0.1,0 -0.3,-0.1 -0.4,-0.2C13.7,17.6 13.7,17.3 13.9,17zM7.6,9.3c0,-1.2 1,-2.2 2.2,-2.2s2.2,1 2.2,2.2s-1,2.2 -2.2,2.2S7.6,10.5 7.6,9.3z"
		fill="#157339"/>
</svg>
