<svg xmlns="http://www.w3.org/2000/svg" width="24dp" height="24dp" viewBox="0 0 24 24">
    <path
        d="M12,23.9C5.5,23.9 0.1,18.5 0.1,12C0.1,5.5 5.5,0.1 12,0.1c3,0 5.8,1.1 8,3.1c0.4,0.4 0.4,1 0.1,1.4c0,0 0,0 0,0c-0.4,0.4 -1,0.4 -1.4,0.1C16.8,3 14.5,2.1 12,2.1c-5.5,0 -9.9,4.4 -9.9,9.9c0,5.5 4.4,9.9 9.9,9.9c2.5,0 4.8,-0.9 6.6,-2.6c0.4,-0.4 1,-0.3 1.4,0.1c0,0 0,0 0,0c0.4,0.4 0.3,1 -0.1,1.4c0,0 0,0 0,0C17.8,22.8 14.9,23.9 12,23.9"
        fill="#C7161E" />
    <path
        d="M20.7,12.9H8c-0.5,0 -1,-0.4 -1,-1s0.4,-1 1,-1h12.6l-2.2,-2.2c-0.4,-0.4 -0.4,-1 0,-1.4c0.4,-0.4 1,-0.4 1.4,0l3.7,3.8c0.2,0.2 0.3,0.5 0.3,0.8c0,0 0,0.1 0,0.1c0,0.3 -0.1,0.6 -0.3,0.8l-3.7,3.8c-0.4,0.4 -1,0.4 -1.4,0c-0.4,-0.4 -0.4,-1 0,-1.4L20.7,12.9L20.7,12.9z"
        fill="#C7161E" />
</svg>
