<svg enable-background="new 0 0 24.89 23.83" viewBox="0 0 24.89 23.83" xmlns="http://www.w3.org/2000/svg"><path d="m13.11 19.42 5.34 3.72c.91.63 2.1-.24 1.78-1.3l-1.88-6.23c-.14-.47.02-.97.41-1.27l5.18-3.93c.88-.67.42-2.07-.68-2.1l-6.5-.13c-.49-.01-.92-.32-1.08-.78l-2.14-6.14c-.36-1.04-1.84-1.04-2.2 0l-2.13 6.15c-.16.46-.59.77-1.08.78l-6.5.13c-1.11.02-1.56 1.43-.68 2.1l5.18 3.93c.39.29.55.8.41 1.27l-1.88 6.23c-.32 1.06.88 1.93 1.78 1.3l5.34-3.72c.4-.28.93-.28 1.33-.01z" fill="#fff"/><path d="m19.12 23.83c-.33 0-.65-.1-.94-.3l-5.34-3.72c-.23-.16-.55-.16-.78 0l-5.34 3.72c-.58.41-1.33.4-1.91-.02s-.81-1.13-.61-1.81l1.88-6.23c.08-.27-.01-.57-.24-.75l-5.18-3.92c-.57-.43-.79-1.14-.57-1.82.21-.67.81-1.12 1.53-1.14l6.5-.13c.28-.01.54-.19.63-.46l2.14-6.14c.23-.68.84-1.11 1.56-1.11s1.32.43 1.55 1.11l2.14 6.15c.09.27.35.46.63.46l6.5.13c.71.01 1.31.46 1.53 1.14s0 1.39-.57 1.82l-5.18 3.93c-.23.17-.32.47-.24.75l1.88 6.23c.21.68-.03 1.39-.61 1.81-.29.2-.62.3-.96.3zm-5.73-4.8 5.34 3.72c.3.21.61.13.8-.01s.36-.41.25-.75l-1.88-6.23c-.2-.66.03-1.37.58-1.79l5.18-3.93c.29-.22.31-.54.24-.76s-.28-.47-.64-.47l-6.5-.13c-.69-.01-1.3-.46-1.52-1.11l-2.14-6.14c-.12-.34-.41-.46-.65-.46s-.53.12-.65.46l-2.14 6.14c-.22.64-.84 1.09-1.52 1.1l-6.51.13c-.36.01-.56.25-.63.48-.08.22-.05.54.23.76l5.18 3.93c.55.41.79 1.13.59 1.79l-1.88 6.23c-.1.34.06.62.25.75s.5.21.8.01l5.34-3.72c.56-.39 1.31-.39 1.88 0z" fill="#808080"/></svg>