<svg xmlns="http://www.w3.org/2000/svg" width="24dp" height="23dp" viewBox="0 0 24 23">
    <path
        d="M17.4,4.6H4.1c-0.8,0 -1.5,0.7 -1.5,1.5v13.4c0,0.8 0.7,1.5 1.5,1.5h13.4c0.8,0 1.5,-0.7 1.5,-1.5V6.1C18.9,5.3 18.3,4.6 17.4,4.6zM17.9,19.4c0,0.3 -0.2,0.5 -0.5,0.5H4.1c-0.3,0 -0.5,-0.2 -0.5,-0.5V6.1c0,-0.3 0.2,-0.5 0.5,-0.5h13.4c0.3,0 0.5,0.2 0.5,0.5V19.4z"
        fill="#FFB600" />
    <path
        d="M17.2,2.1H6.6c-0.8,0 -1.4,0.6 -1.5,1.3h12.2c1.5,0 2.7,1.2 2.7,2.7v12.3c0.8,-0.1 1.4,-0.7 1.4,-1.5V6.3C21.4,3.9 19.5,2.1 17.2,2.1z"
        fill="#FFB600" />
</svg>
