<?xml version="1.0" encoding="utf-8"?><!-- Generator: Adobe Illustrator 24.0.1, SVG Export Plug-In . SVG Version: 6.00 Build 0)  -->
<svg version="1.1" id="图层_1" xmlns="http://www.w3.org/2000/svg"
    xmlns:xlink="http://www.w3.org/1999/xlink" x="0px" y="0px" viewBox="0 0 180.2 104.6"
    style="enable-background:new 0 0 180.2 104.6;" xml:space="preserve">
<style type="text/css">
	.st0{fill:#FFFFFF;}
</style>
    <path class="st0" d="M61.2,81.8l1.3-1.5c1,1,2.5,1.7,3.9,1.7c1.7,0,2.7-0.8,2.7-2c0-1.3-1-1.7-2.3-2.3l-2-0.8
			c-1.4-0.6-3-1.6-3-3.7c0-2.2,2-3.9,4.8-3.9c1.7,0,3.3,0.7,4.4,1.8l-1.2,1.4c-0.9-0.8-1.9-1.3-3.2-1.3c-1.5,0-2.4,0.7-2.4,1.8
			c0,1.2,1.2,1.7,2.3,2.2l2,0.8c1.7,0.7,3,1.8,3,3.8c0,2.3-1.9,4.1-5.1,4.1C64.4,83.9,62.6,83.1,61.2,81.8z" />
    <path class="st0" d="M74.3,69.4h2.3v12.3h6.2v1.9h-8.5V69.4z" />
    <path class="st0" d="M85.3,69.4h8.6v1.9h-6.3v3.9h5.3v1.9h-5.3v4.6h6.5v1.9h-8.8V69.4z" />
    <path class="st0" d="M97.1,69.4h8.6v1.9h-6.3v3.9h5.3v1.9h-5.3v4.6h6.5v1.9h-8.8V69.4z" />
    <path class="st0" d="M109,69.4h4.4c3.2,0,5.6,1.1,5.6,4.3c0,3.1-2.3,4.5-5.5,4.5h-2.2v5.4H109V69.4z M113.3,76.4
			c2.3,0,3.4-0.9,3.4-2.7c0-1.9-1.2-2.5-3.5-2.5h-1.9v5.2H113.3z" />
    <path class="st0" d="M91.3,38.7c-0.2,0-0.4-0.1-0.6-0.2c-0.3-0.2-0.4-0.6-0.2-0.9l0.9-2.4l-1.3,0.7C90,36,89.9,36,89.7,36
			c-0.3,0-0.6-0.2-0.7-0.4c-0.2-0.4-0.1-0.9,0.4-1.1l3.2-1.7c0.1-0.1,0.3-0.1,0.4-0.1c0.2,0,0.4,0.1,0.6,0.2
			c0.3,0.2,0.4,0.6,0.2,0.9l-0.9,2.4l1.3-0.7c0.1-0.1,0.3-0.1,0.4-0.1c0.3,0,0.6,0.2,0.7,0.4c0.2,0.4,0.1,0.9-0.4,1.1l-3.2,1.7
			C91.6,38.7,91.5,38.7,91.3,38.7z" />
    <path class="st0" d="M99.5,35.2c-0.2,0-0.4-0.1-0.6-0.2c-0.3-0.2-0.4-0.6-0.2-1l1.4-3.8l-2.3,1.2c-0.1,0.1-0.3,0.1-0.4,0.1
			c-0.3,0-0.6-0.2-0.8-0.5c-0.1-0.2-0.1-0.5-0.1-0.7c0.1-0.2,0.2-0.4,0.4-0.5l4.3-2.2c0.1-0.1,0.3-0.1,0.4-0.1
			c0.2,0,0.4,0.1,0.6,0.2c0.3,0.2,0.4,0.6,0.2,1l-1.4,3.8l2.3-1.2c0.1-0.1,0.3-0.1,0.4-0.1c0.3,0,0.6,0.2,0.8,0.5
			c0.1,0.2,0.1,0.5,0.1,0.7c-0.1,0.2-0.2,0.4-0.4,0.5l-4.3,2.2C99.8,35.2,99.7,35.2,99.5,35.2z" />
    <path class="st0" d="M108.4,31.3c-0.2,0-0.5-0.1-0.6-0.2c-0.3-0.3-0.4-0.7-0.3-1l1.9-5.1l-3.3,1.7c-0.1,0.1-0.3,0.1-0.4,0.1
			c-0.4,0-0.7-0.2-0.8-0.5c-0.1-0.2-0.1-0.5-0.1-0.7c0.1-0.2,0.2-0.4,0.5-0.6l5.4-2.8c0.1-0.1,0.3-0.1,0.4-0.1
			c0.2,0,0.5,0.1,0.6,0.2c0.3,0.3,0.4,0.7,0.3,1l-1.9,5.1l3.3-1.7c0.1-0.1,0.3-0.1,0.4-0.1c0.4,0,0.7,0.2,0.8,0.5
			c0.1,0.2,0.1,0.5,0.1,0.7c-0.1,0.2-0.2,0.4-0.5,0.6l-5.4,2.8C108.7,31.2,108.5,31.3,108.4,31.3z" />
    <g>
			<path class="st0" d="M82.9,43.3c-1.7,0-3.3-0.4-4.2-1.2c-0.4-0.3-0.4-0.9-0.1-1.3c0.2-0.2,0.4-0.3,0.7-0.3c0.2,0,0.4,0.1,0.6,0.2
				c0.6,0.5,1.8,0.8,3,0.8c1.2,0,2.4-0.3,3.1-0.8c0.2-0.1,0.4-0.2,0.6-0.2c0.3,0,0.6,0.1,0.7,0.4c0.2,0.2,0.2,0.4,0.2,0.7
				c0,0.2-0.2,0.5-0.3,0.6C86.1,42.9,84.5,43.3,82.9,43.3z" />
        <path class="st0" d="M97.4,43.3c-1.7,0-3.3-0.4-4.2-1.2c-0.4-0.3-0.4-0.9-0.1-1.3c0.2-0.2,0.4-0.3,0.7-0.3c0.2,0,0.4,0.1,0.6,0.2
				c0.6,0.5,1.8,0.8,3,0.8c1.2,0,2.4-0.3,3.1-0.8c0.2-0.1,0.4-0.2,0.6-0.2c0.3,0,0.6,0.1,0.7,0.4c0.2,0.2,0.2,0.4,0.2,0.7
				c0,0.2-0.2,0.5-0.3,0.6C100.7,42.9,99.1,43.3,97.4,43.3z" />
        <path class="st0" d="M90.1,51.4c-1.7,0-3.3-0.4-4.2-1.2c-0.4-0.3-0.4-0.9-0.1-1.3c0.2-0.2,0.4-0.3,0.7-0.3c0.2,0,0.4,0.1,0.6,0.2
			c0.6,0.5,1.8,0.8,3,0.8c1.2,0,2.4-0.3,3.1-0.8c0.2-0.1,0.4-0.2,0.6-0.2c0.3,0,0.6,0.1,0.7,0.4c0.2,0.2,0.2,0.4,0.2,0.7
			c0,0.2-0.2,0.5-0.3,0.6C93.3,50.9,91.8,51.4,90.1,51.4z" />
        <path class="st0" d="M90.1,57.9c-9.6,0-17.5-7.8-17.5-17.5s7.8-17.5,17.5-17.5c1.8,0,3.5,0.3,5.2,0.8c0.5,0.1,0.7,0.7,0.6,1.1
			c-0.1,0.5-0.7,0.7-1.1,0.6c-1.5-0.5-3.1-0.7-4.7-0.7c-8.6,0-15.7,7-15.7,15.7s7,15.7,15.7,15.7s15.7-7,15.7-15.7
			c0-4.2-1.7-8.2-4.7-11.2c-0.4-0.4-0.4-0.9,0-1.3c0.3-0.4,0.9-0.4,1.3,0c3.4,3.3,5.2,7.7,5.2,12.4C107.6,50,99.7,57.9,90.1,57.9z" />
        <circle class="st0" cx="98.4" cy="26.1" r="0.9" />
</g>
</svg>
