<svg xmlns="http://www.w3.org/2000/svg" width="24dp" height="24dp" viewBox="0 0 24 24">
    <path fill="#499B52"
        d="M20.2,15v-3.3c0,-0.5 -0.4,-0.8 -0.8,-0.8l0,0h-6.5V8c1.7,-0.4 2.9,-1.9 2.9,-3.7c0,-2.1 -1.7,-3.8 -3.8,-3.8c-2.1,0 -3.8,1.7 -3.8,3.8c0,1.8 1.2,3.3 2.9,3.7v2.9H4.8c-0.5,0 -0.8,0.4 -0.8,0.8V15C2.2,15.4 1,16.9 1,18.7c0,2.1 1.7,3.8 3.8,3.8s3.8,-1.7 3.8,-3.8c0,-1.8 -1.2,-3.3 -2.9,-3.7v-2.4h12.9V15c-1.8,0.3 -3.1,1.9 -3.1,3.7c0,2.1 1.7,3.8 3.8,3.8s3.8,-1.7 3.8,-3.8C23,16.9 21.8,15.5 20.2,15L20.2,15zM9.9,4.3c0,-1.2 1,-2.1 2.1,-2.1c1.2,0 2.1,1 2.1,2.1c0,1.2 -0.9,2.1 -2.1,2.1C10.9,6.5 9.9,5.5 9.9,4.3zM6.9,18.7c0,1.2 -1,2.1 -2.1,2.1s-2.1,-1 -2.1,-2.1c0,-1.2 1,-2.1 2.1,-2.1S6.9,17.5 6.9,18.7zM19.2,20.8c-1.2,0 -2.1,-1 -2.1,-2.1c0,-1.2 1,-2.1 2.1,-2.1c1.2,0 2.1,1 2.1,2.1C21.3,19.8 20.4,20.8 19.2,20.8z" />
</svg>
