<svg enable-background="new 0 0 29 29" viewBox="0 0 29 29" xmlns="http://www.w3.org/2000/svg"><path d="m0 0h29v29h-29z" fill="none"/><path d="m16.9 25c-.7-.2-1.1-.8-1.3-1.3s-.5-.7-.8-.7c-.1 0-.2 0-.3 0s-.1 0-.2 0-.2 0-.3 0h-.1c-.1 0-.2.1-.3.2-.2.3-.4.6-.6 1-.3.5-.7.7-1.2.7-.2 0-.4 0-.7-.1s-.5-.2-.8-.3l-.3-.1c-1.4-.6-1.6-1-1.2-2.5.2-.6.2-1-.4-1.3-.1-.1-.2-.2-.3-.3-.1-.3-.2-.3-.4-.3-.1 0-.1 0-.2 0-.2.1-.4.1-.7.1h-.3c-.2 0-.3.1-.5.1-.6 0-1.1-.3-1.4-1-.2-.4-.3-.8-.5-1.2l-.1-.5v-.5c.2-.8.8-1.1 1.2-1.3.6-.3.8-.6.7-1.2 0-.1 0-.3 0-.4 0-.3 0-.4-.2-.5-.4-.2-.7-.4-1-.7-.5-.4-.7-1-.5-1.6.3-.7.5-1.3.8-1.8.2-.5.7-.8 1.2-.8h.4.2c.2 0 .5.1.7.2.1 0 .2.1.2.1.2 0 .3-.1.5-.2l.1-.1c.8-.5.8-1.1.5-1.9-.3-.9.1-1.5 1-1.9l1.8-.9h.6c.6.2 1 .6 1.2 1.1.3.6.6.9 1.1.9h.3.1.1l.1.1v-.1c.1 0 .3-.1.4-.2.1-.2.2-.4.4-.6.1-.2.2-.3.3-.5.3-.4.7-.6 1.1-.6.2 0 .4 0 .6.1.6.2 1.2.5 1.8.8s.9.9.8 1.6c0 .2-.1.4-.1.6-.1.2-.1.5-.2.7 0 .1 0 .2.1.3s.1.2.2.3c.2.2.4.5.6.5h.2c.2 0 .4-.1.7-.1.1 0 .3-.1.4-.1.2 0 .3-.1.5-.1.6 0 1.1.3 1.4 1 .2.4.3.8.5 1.2l.2.6v.5c-.2.5-.5.9-1 1.2-.3.1-.6.3-.8.5-.1.1-.2.2-.2.3v.3c0 .3-.1.7 0 .9s.4.4.7.5c.1.1.3.1.4.2s.2.1.2.1c.5.4.7 1 .5 1.6-.3.7-.5 1.3-.8 1.9-.2.5-.7.8-1.2.8-.1 0-.2 0-.4 0s-.4-.1-.5-.1c-.2-.1-.5-.1-.7-.2-.1 0-.2 0-.3.1-.8.6-1.1 1.2-.7 2.1v.1c.2.9-.2 1.5-1 1.8l-1.8.9zm-1.6-3.3c.4 0 .7.2.9.5.1.2.2.4.3.5.1.2.3.5.4.7s.2.2.2.2.1 0 .2-.1c.4-.2.9-.4 1.3-.5.2-.1.2-.2.2-.4s-.1-.4-.1-.6c-.1-.3-.1-.6-.2-.9s0-.6.3-.9c.5-.5.9-.8 1.3-1.2.2-.2.4-.3.7-.3h.3c.3.1.5.1.8.2.2.1.5.1.7.2h.1c.1 0 .1 0 .2-.2.2-.5.4-.9.6-1.4.1-.2.1-.3-.1-.4s-.4-.2-.5-.3c-.2-.1-.4-.3-.6-.4-.4-.2-.6-.5-.5-1 0-.5 0-1 0-1.7 0-.4.1-.7.5-.9.2-.1.4-.3.7-.4.2-.1.4-.3.7-.4.2-.1.2-.2.1-.3-.2-.5-.4-1-.6-1.4-.1-.1-.1-.2-.2-.2h-.1c-.2.1-.4.1-.6.1-.3.1-.6.1-.9.2-.1 0-.2 0-.3 0-.3 0-.5-.1-.7-.4-.5-.5-.8-.9-1.2-1.2-.3-.3-.4-.6-.3-1 .1-.3.1-.5.2-.8-.1-.1-.1-.3 0-.5s0-.3-.2-.4c-.5-.2-.9-.4-1.3-.6-.1 0-.1-.1-.2-.1s-.1 0-.2.2-.2.4-.4.6c-.1.2-.3.4-.4.6-.2.3-.5.5-.8.5-.4 0-.8 0-1.1 0s-.8 0-.8 0c-.4 0-.6-.1-.8-.4-.1-.2-.2-.4-.3-.6-.2-.3-.3-.5-.5-.8-.1-.2-.2-.2-.2-.2h-.1c-.5.2-.9.4-1.4.6-.2.1-.2.1-.2.4.1.3.1.6.2.9 0 .2.1.4.1.6.1.3 0 .6-.3.9-.5.4-1 .9-1.4 1.4-.2.2-.4.3-.6.3-.1 0-.2 0-.2 0-.2-.1-.5-.1-.7-.2-.3-.1-.6-.2-.9-.3h-.1c-.1 0-.1 0-.2.2-.2.5-.4.9-.6 1.3-.1.2-.1.3.1.4s.4.3.6.4.4.3.6.4c.4.2.5.5.5.9v1.8c0 .4-.1.6-.4.8-.2.1-.4.2-.6.4s-.5.3-.7.4-.2.2-.1.4c.2.4.4.9.6 1.4.1.2.1.2.2.2h.1c.4-.1.7-.2 1.1-.3l.7-.1.2.1c.1.1.3.1.4.3.2.2.4.4.6.6l.7.7c.3.3.4.6.3 1-.1.2-.1.4-.2.7s-.1.6-.2.8c0 .2 0 .3.1.3.5.2.9.4 1.4.6h.2s.1 0 .2-.1c.2-.3.3-.5.5-.8.1-.2.3-.4.4-.6.2-.3.4-.4.8-.4h.1 1.1zm-.9-2.8c-2.4 0-4.4-2-4.4-4.4s2-4.4 4.4-4.4c1.2 0 2.3.5 3.1 1.3.8.9 1.3 2 1.3 3.2 0 2.4-2 4.3-4.4 4.3zm0-7.4c-1.6 0-3 1.4-3.1 3 0 1.7 1.4 3.1 3 3.1.8 0 1.6-.3 2.2-.9s.9-1.4.9-2.1c.1-1.7-1.3-3.1-3-3.1z" fill="#6e6e96"/></svg>