<svg xmlns="http://www.w3.org/2000/svg"
	width="24dp"
	height="23dp"
	viewBox="0 0 24 23">
	<path
		d="M16.9,5.1H3.5C2.7,5.1 2,5.8 2,6.6V20c0,0.8 0.7,1.5 1.5,1.5h13.4c0.8,0 1.5,-0.7 1.5,-1.5V6.6C18.4,5.8 17.7,5.1 16.9,5.1z"
		fill="#FFB600"/>
	<path
		d="M22,16.4V5.7c0,-2.3 -1.9,-4.2 -4.2,-4.2H7.1C6.3,1.5 5.6,2.2 5.6,3v0.8h11.3c1.5,0 2.8,1.2 2.8,2.8v11.3h0.8C21.3,17.9 22,17.2 22,16.4z"
		fill="#FFB600"/>
	<path
		d="M15.9,9.4c-0.2,-0.2 -0.7,-0.2 -0.9,0l-6.5,6.5l-3,-3c-0.2,-0.2 -0.7,-0.2 -0.9,0c-0.2,0.2 -0.2,0.7 0,0.9L8,17.2c0.1,0.1 0.3,0.2 0.5,0.2c0,0 0,0 0.1,0c0.1,0 0.3,-0.1 0.4,-0.2c0,0 0,0 0,0l7,-7C16.2,10 16.2,9.6 15.9,9.4z"
		fill="#FFFFFF"/>
</svg>
