<svg enable-background="new 0 0 29 29" viewBox="0 0 29 29" xmlns="http://www.w3.org/2000/svg"><path d="m0 0h29v29h-29z" fill="none"/><g fill="#2793f7"><path d="m23.4 19.6c0-.3-.1-.5-.3-.7l-3.3-2.8c-.4-.3-.9-.3-1.2 0l-3.3 2.8c-.3.2-.4.6-.3.9s.3.6.6.7.7 0 .9-.2l1.8-1.5v4.7c0 .5.4.9.9.9s.9-.4.9-.9v-4.7l1.8 1.5c.3.2.7.3 1 .1.2-.1.5-.4.5-.8zm0 0"/><path d="m25.7 15.2c0-3.3-2.6-6-5.9-6.1-.9-3-3.8-5-6.9-4.7-3.1.4-5.6 2.9-5.9 6-2.6.9-4.2 3.5-3.7 6.2s2.8 4.7 5.5 4.7h3.7c.3 0 .7-.2.8-.5.2-.3.2-.7 0-1s-.5-.5-.8-.5h-3.6c-1.8 0-3.4-1.3-3.7-3.1s.7-3.6 2.5-4.2l1.1-.4.1-1.2c.2-2.4 2.2-4.2 4.7-4.2 2 0 3.7 1.2 4.4 3-2.6.8-4.4 3.1-4.4 5.8 0 .5.4.9.9.9s.9-.4.9-.9c0-2.3 1.9-4.2 4.2-4.2h.2c1.4 0 2.7.7 3.4 1.9.8 1.2.9 2.6.3 3.9-.2.5 0 1 .5 1.2s1 0 1.2-.5c.4-.5.5-1.3.5-2.1zm0 0"/></g></svg>