<svg xmlns="http://www.w3.org/2000/svg"
	width="17dp"
	height="20dp"
	viewBox="0 0 17 20">
	<path
		d="M12.9,7.8V5c0,-2.1 -1.7,-3.8 -3.8,-3.8H7.9C5.8,1.3 4.1,2.9 4.1,5v2.8C2.2,8 0.7,9.6 0.7,11.6V15c0,2.1 1.7,3.8 3.8,3.8h8.1c2.1,0 3.8,-1.7 3.8,-3.8v-3.4C16.3,9.6 14.8,8 12.9,7.8zM5.7,5c0,-1.2 1,-2.2 2.2,-2.2h1.3c1.2,0 2.2,1 2.2,2.2v2.8H5.7V5zM14.8,15c0,1.2 -1,2.2 -2.2,2.2H4.4c-1.2,0 -2.2,-1 -2.2,-2.2v-3.4c0,-1.2 1,-2.2 2.2,-2.2h8.1c1.2,0 2.2,1 2.2,2.2V15z"
		fill="#C7161E"/>
	<path
		d="M10.2,12.5H6.8c-0.4,0 -0.8,0.3 -0.8,0.8c0,0.4 0.3,0.8 0.8,0.8h3.4c0.4,0 0.8,-0.3 0.8,-0.8C11,12.8 10.7,12.5 10.2,12.5z"
		fill="#C7161E"/>
</svg>
