<svg xmlns="http://www.w3.org/2000/svg"
	width="26dp"
	height="28dp"
	viewBox="0 0 26 28">
	<path
		d="M9.2,20.2c-1.9,0 -3.4,1.5 -3.4,3.4S7.3,27 9.2,27s3.4,-1.5 3.4,-3.4C12.6,21.8 11,20.2 9.2,20.2zM9.2,25.2c-0.8,0 -1.5,-0.7 -1.5,-1.5s0.7,-1.5 1.5,-1.5c0.9,0 1.5,0.7 1.5,1.5S10,25.2 9.2,25.2z"
		fill="#0E7ABB"/>
	<path
		d="M25,21.3v-0.7h-3.9v-2.1h-0.6v2.1h-1.7v-0.8c0,-0.1 -0.1,-0.2 -0.2,-0.2h-2.5v-1.2c0,-0.1 -0.1,-0.2 -0.2,-0.2h-3.3l-0.1,0.1h-0.8v-3.9h0.2v-1.9h7.2c0.1,0 0.2,-0.1 0.2,-0.2V2.5c0,-0.1 -0.1,-0.2 -0.2,-0.2h-1.5V1.1c0,-0.1 -0.1,-0.1 -0.1,-0.1H5.3C5.2,1 5.1,1.1 5.1,1.1v1.3H3.6c-0.1,0 -0.2,0.1 -0.2,0.2v9.8c0,0.1 0.1,0.2 0.2,0.2h7.2v1.9H11v3.9h-1v-1.1c0,-0.1 -0.1,-0.2 -0.2,-0.2H3.8c-0.1,0 -0.2,0.1 -0.2,0.2v2.3H1v1.7h3.7l-0.8,1.3L4.6,23l2.3,-3.6h4.6l2.3,3.6l0.8,-0.5l-0.8,-1.3h6.8v3.3c0,0.1 -0.1,0.2 -0.1,0.4c0,0.5 0.4,0.9 0.9,0.9s0.9,-0.4 0.9,-0.9s-0.4,-0.9 -0.9,-0.9c-0.1,0 -0.2,0 -0.2,0v-2.8H25zM5.6,1.6h11.8v0.8H5.6V1.6zM4.4,3.3h14.1v8.2H4.4V3.3z"
		fill="#0E7ABB"/>
</svg>
