<svg id="图层_1" data-name="图层 1" xmlns="http://www.w3.org/2000/svg" viewBox="0 0 74.86 74.86">
  <defs>
    <style>
      .cls-1 {
        fill: #ff6f00;
      }
    </style>
  </defs>
  <title>未标题-4</title>
  <path class="cls-1" d="M44.69,10.8a2.54,2.54,0,0,0,0,5.07A14.33,14.33,0,0,1,59,30.18a2.54,2.54,0,0,0,5.07,0A19.4,19.4,0,0,0,44.69,10.8Z"/>
  <path class="cls-1" d="M44.69,0a2.54,2.54,0,0,0,0,5.07,25.13,25.13,0,0,1,25.1,25.09,2.54,2.54,0,1,0,5.07,0A30.21,30.21,0,0,0,44.69,0Z"/>
  <path class="cls-1" d="M43.93,51.45a.27.27,0,0,1-.46.18L35.2,43.36a.42.42,0,0,1,0-.57l8.62-8.61a.27.27,0,0,1,.46.19ZM31.69,39.85l-8.27-8.27a.27.27,0,0,1,.18-.46l17.08-.35a.27.27,0,0,1,.2.46l-8.62,8.62A.42.42,0,0,1,31.69,39.85Zm29.1,29.09L48.6,56.76A2,2,0,0,1,48,55.32l.47-23.19a.7.7,0,0,1,.31-.56,4,4,0,0,0,.76-.73,3.94,3.94,0,0,0-5.86-5.26,4.17,4.17,0,0,0-.54.67.66.66,0,0,1-.57.31L19.73,27a2,2,0,0,1-1.44-.58L5.91,14.07a.77.77,0,0,0-1.22.19A41.45,41.45,0,0,0,60.6,70.17.78.78,0,0,0,60.79,68.94Z"/>
</svg>
