<svg viewBox="0 0 29.95 23.71" xmlns="http://www.w3.org/2000/svg" xmlns:xlink="http://www.w3.org/1999/xlink"><clipPath id="a"><path d="m0 0h29.95v23.71h-29.95z"/></clipPath><clipPath id="b"><path d="m-.04-.03h30v23.75h-30z"/></clipPath><g clip-path="url(#a)"><g clip-path="url(#b)"><path d="m29.64.5a1.42 1.42 0 0 0 -1.4-.5l-27.19 6.31a1.4 1.4 0 0 0 -.7 2.28l4.39 5-1.9 7a1.4 1.4 0 0 0 2.16 1.48l13.25-9.76a1.39 1.39 0 0 0 .57-1.31 1.37 1.37 0 0 0 -.82-1.09 1.4 1.4 0 0 0 -1.38.15l-10 7.37 1-3.8a1.41 1.41 0 0 0 -.3-1.29l-3.32-3.83 22.19-5.13-7.3 16.84-2.79-1.86a1.39 1.39 0 0 0 -2.23 1.05 1.36 1.36 0 0 0 .68 1.26l4.18 2.79a1.33 1.33 0 0 0 .77.25 1.39 1.39 0 0 0 .4-.06 1.43 1.43 0 0 0 .88-.79l9.06-20.86a1.41 1.41 0 0 0 -.2-1.5" fill="#01a648"/></g></g></svg>