<svg xmlns="http://www.w3.org/2000/svg" width="15.12dp" height="14dp" viewBox="0 0 15.12 14">
    <path
        d="M13.86,0L1.21,0A1.17,1.17 0,0 0,0 1.16L0,12.79A1.21,1.21 0,0 0,1.21 14L14,14a1.17,1.17 0,0 0,1.16 -1.21L15.16,1.16A1.21,1.21 0,0 0,13.86 0ZM4.86,1.72A1.85,1.85 0,1 1,3 3.57,1.85 1.85,0 0,1 4.87,1.72ZM2,12.27a0.57,0.57 0,0 1,-0.37 -0.14,0.56 0.56,0 0,1 -0.06,-0.8L4.21,7.38A0.59,0.59 0,0 1,5 7.29L7.29,9l4.15,-4.7c0.19,-0.25 1.23,-1.41 1.84,-0.09v8.05Z"
        fill="#e0592a" />
</svg>
