<svg id="图层_1" data-name="图层 1" xmlns="http://www.w3.org/2000/svg" viewBox="0 0 71.08 66.2">
  <defs>
    <style>
      .cls-1 {
        fill: #ff6f00;
      }
    </style>
  </defs>
  <title>未标题-4</title>
  <path class="cls-1" d="M58.68,40.47a2.75,2.75,0,0,0-2.75,2.76V54.82c0,3.23-2.29,5.87-5.11,5.87H10.62c-2.82,0-5.11-2.63-5.11-5.87V16.14c0-3.23,2.3-5.87,5.11-5.87H26.48a2.76,2.76,0,1,0,0-5.51H10.62C4.77,4.76,0,9.86,0,16.14V54.83C0,61.1,4.77,66.2,10.62,66.2h40.2c5.86,0,10.62-5.11,10.62-11.37V43.23A2.76,2.76,0,0,0,58.68,40.47Z"/>
  <path class="cls-1" d="M63.78,15.42l-2,1.89L53.91,8.94l2-1.89a5.74,5.74,0,1,1,7.86,8.37ZM68,3.54a11.25,11.25,0,0,0-15.9-.49l-31.9,30a2.62,2.62,0,0,0-.74,1.21l-5,16.48a2.77,2.77,0,0,0,.65,2.7,2.73,2.73,0,0,0,2,.85,2.48,2.48,0,0,0,.66-.08L34.42,50.1a2.61,2.61,0,0,0,1.23-.67l31.89-30A11.24,11.24,0,0,0,68,3.54Z"/>
</svg>
