<svg xmlns="http://www.w3.org/2000/svg"
	width="24dp"
	height="24dp"
	viewBox="0 0 24 24">
	<path
		d="M19.9,10.7H19c-0.4,0 -0.8,-0.3 -0.9,-0.7L17.7,9c-0.2,-0.3 -0.1,-0.8 0.2,-1l0.5,-0.5c0.1,-0.1 0.2,-0.3 0.2,-0.5c0,-0.2 -0.1,-0.3 -0.2,-0.4l-0.9,-0.9c-0.3,-0.3 -0.7,-0.3 -0.9,0L16,6.2c-0.3,0.3 -0.8,0.3 -1,0.2l-1.1,-0.5c-0.3,-0.1 -0.6,-0.5 -0.6,-0.9V4.2c0,-0.3 -0.3,-0.6 -0.6,-0.6H12h-0.7c-0.3,0 -0.6,0.3 -0.6,0.6V5c0,0.4 -0.3,0.8 -0.6,0.9L9,6.3C8.7,6.5 8.2,6.4 8,6.2L7.4,5.6c-0.2,-0.3 -0.6,-0.3 -0.9,0L5.6,6.5C5.5,6.6 5.5,6.8 5.5,6.9c0,0.2 0,0.3 0.2,0.5L6.2,8c0.3,0.3 0.3,0.7 0.2,1l-0.5,1.1c-0.1,0.4 -0.5,0.7 -0.9,0.7H4.1c-0.3,0 -0.5,0.3 -0.5,0.6v1.3c0,0.3 0.3,0.6 0.6,0.6H5c0.4,0 0.8,0.3 0.9,0.6L6.3,15c0.2,0.3 0.1,0.8 -0.2,1l-0.5,0.5c-0.1,0.1 -0.2,0.3 -0.2,0.5c0,0.1 0,0.3 0.2,0.4l0.9,0.9c0.3,0.3 0.6,0.3 0.9,0L8,17.8c0.3,-0.3 0.8,-0.3 1,-0.2l1.1,0.5c0.3,0.1 0.6,0.5 0.6,0.9v0.8c0,0.4 0.3,0.7 0.6,0.7H12h0.6c0.3,0 0.6,-0.3 0.6,-0.7V19c0,-0.4 0.3,-0.8 0.6,-0.9l1.1,-0.5c0.3,-0.2 0.8,-0.1 1,0.2l0.5,0.5c0.3,0.3 0.6,0.3 0.9,0l0.9,-0.9c0.1,-0.1 0.2,-0.3 0.2,-0.4c0,-0.1 -0.1,-0.3 -0.2,-0.5L17.8,16c-0.3,-0.3 -0.3,-0.8 -0.2,-1l0.5,-1.1c0.1,-0.3 0.5,-0.6 0.9,-0.6h0.8c0.3,0 0.6,-0.3 0.6,-0.6v-1.3C20.4,11 20.2,10.8 19.9,10.7zM12.1,15.8c-2.1,0 -3.8,-1.7 -3.8,-3.8c0,-2.1 1.7,-3.8 3.8,-3.8s3.8,1.7 3.8,3.8C15.9,14.1 14.2,15.8 12.1,15.8z"
		fill="#3387C8"/>
</svg>
