<svg xmlns="http://www.w3.org/2000/svg"
	width="17dp"
	height="20dp"
	viewBox="0 0 17 20">
	<path
		d="M10.2,13.2H6.8C6.3,13.2 6,13.5 6,14c0,0.4 0.3,0.8 0.8,0.8h3.4c0.4,0 0.8,-0.3 0.8,-0.8C11,13.5 10.7,13.2 10.2,13.2z"
		fill="#499B52"/>
	<path
		d="M12.9,8.5L12.9,8.5l-1.6,0H6.5L5.2,6C4.6,5 5,3.6 6.1,3.1l1.1,-0.6c1.1,-0.6 2.4,-0.2 3,0.9l1.3,2.5l1.4,-0.7l-1.3,-2.5c-1,-1.8 -3.2,-2.5 -5.1,-1.6L5.4,1.7c-1.8,1 -2.5,3.2 -1.6,5.1l0.9,1.7H4.1v0c-1.9,0.2 -3.4,1.8 -3.4,3.7v3.4c0,2.1 1.7,3.8 3.8,3.8h8.1c2.1,0 3.8,-1.7 3.8,-3.8v-3.4C16.3,10.3 14.8,8.7 12.9,8.5zM14.8,15.7c0,1.2 -1,2.2 -2.2,2.2H4.4c-1.2,0 -2.2,-1 -2.2,-2.2v-3.4c0,-1.2 1,-2.2 2.2,-2.2h8.1c1.2,0 2.2,1 2.2,2.2V15.7z"
		fill="#499B52"/>
</svg>
