<svg xmlns="http://www.w3.org/2000/svg"
    width="15.43dp"
    height="15.43dp"
    viewBox="0 0 15.43 15.43">
    <path
        d="M14.82,4.72a7.7,7.7 0,1 0,0.61 3,7.72 7.72,0 0,0 -0.61,-3ZM7.74,14.31a6.6,6.6 0,1 1,6.59 -6.59,6.6 6.6,0 0,1 -6.59,6.59ZM11.22,7.73a0.59,0.59 0,0 1,0.16 0.39,0.55 0.55,0 0,1 -0.16,0.39l-3.1,3.1h0l0,0L7.37,11.61l0,0L4.25,8.51a0.54,0.54 0,0 1,0 -0.78,0.55 0.55,0 0,1 0.77,0L7.18,9.89L7.18,4.2a0.55,0.55 0,0 1,1.1 0L8.28,9.9l2.16,-2.17a0.59,0.59 0,0 1,0.39 -0.16,0.55 0.55,0 0,1 0.39,0.16Z"
        fill="#01a648"/>
</svg>
