<svg viewBox="0 0 372.2 50.29" xmlns="http://www.w3.org/2000/svg">
    <path
        d="m11.3 25.94c0 9.33 4.35 15.86 11.51 15.86s11.37-6.88 11.37-16.07c0-8.57-4-15.87-11.37-15.87s-11.51 6.88-11.51 16.08zm34.19-.57c0 15.59-9.34 24.92-23.24 24.92s-22.25-10.6-22.25-24.15c0-14.14 9.12-24.77 23-24.77 14.55 0 22.49 10.88 22.49 24z"
        fill="#ffb400" />
    <path
        d="m63.11 24.32a16.06 16.06 0 0 0 3.58.28c5.69 0 9.2-2.88 9.2-7.65 0-4.35-3-6.95-8.42-6.95a19.25 19.25 0 0 0 -4.36.35zm-10.59-21.48a87.66 87.66 0 0 1 14.48-.98c6.6 0 11.31 1.26 14.46 3.79a13.63 13.63 0 0 1 5.06 11c0 4.63-1.48 8.63-4.35 11.23-3.65 3.37-9.06 5-15.38 5a17.75 17.75 0 0 1 -3.65-.28v17h-10.62z"
        fill="#ffb400" />
    <path
        d="m163.72 36.11c-1.2-4.35-3-7.44-6.32-8.77v-.21a12.53 12.53 0 0 0 8.35-11.58c0-4.36-1.54-7.73-4.42-10-3.33-2.64-7.51-3.34-15.33-3.34h-14.22l5.58 9h9.86c4.92 0 7.86 1.72 7.86 6s-3.15 6-8.49 6h-14.81v26.31h10.6v-18.6h3.16c4.42.07 6.46 1.61 7.79 7.58s2.53 9.62 3.23 11h10.95c-.91-1.81-2.32-7.98-3.79-13.39z" />
    <path d="m126.09 2.21h-36.36v8.98h12.77v38.33h10.67v-38.33h7.34z" fill="#ffb400" />
    <path
        d="m197.07 29.38-2.95-10c-.84-2.81-1.68-6.32-2.39-9.13h-.14c-.7 2.81-1.4 6.39-2.17 9.13l-2.81 10zm-12 8-3.37 12.14h-11l14.4-47.31h14l14.74 47.31h-11.58l-3.65-12.14z" />
    <path d="m294.17 2.21h10.67v47.31h-10.67z" />
    <path
        d="m344.11 40.76a29.05 29.05 0 0 1 -5.85.62c-9.48 0-15.1-6-15.1-15.44 0-10.53 6.6-15.66 15-15.66a23.74 23.74 0 0 1 5.94.75l4.76-7.67a28.62 28.62 0 0 0 -11.12-1.85c-14.32 0-25.83 8.91-25.83 25.06 0 13.47 8.43 23.72 24.78 23.72 5.68 0 10.16-1.12 12.06-2z" />
    <path d="m250.36 21.79h-19.52v-10.81h15.26l5.45-8.77h-31.38v47.31h10.67v-19.02h14.11z" />
    <path d="m287.36 21.79h-19.52v-10.81h15.26l5.45-8.77h-31.38v47.31h10.67v-19.02h14.11z" />
    <path
        d="m361.65 7.91h1.76a2.85 2.85 0 0 0 1.72-.38 1.23 1.23 0 0 0 .45-1 1.2 1.2 0 0 0 -.22-.72 1.32 1.32 0 0 0 -.61-.47 4.69 4.69 0 0 0 -1.45-.15h-1.65zm-1.45 5.09v-9h3.08a7.38 7.38 0 0 1 2.29.25 2.23 2.23 0 0 1 1.13.87 2.29 2.29 0 0 1 .42 1.31 2.4 2.4 0 0 1 -.7 1.72 2.77 2.77 0 0 1 -1.86.82 2.53 2.53 0 0 1 .76.47 11.07 11.07 0 0 1 1.33 1.78l1.09 1.78h-1.74l-.79-1.41a7.25 7.25 0 0 0 -1.52-2.09 1.84 1.84 0 0 0 -1.16-.31h-.85v3.81zm3.66-11.58a7.08 7.08 0 0 0 -3.42.9 6.48 6.48 0 0 0 -2.61 2.58 6.93 6.93 0 0 0 0 7 6.45 6.45 0 0 0 2.58 2.57 6.9 6.9 0 0 0 6.92 0 6.45 6.45 0 0 0 2.58-2.57 7 7 0 0 0 0-6.95 6.4 6.4 0 0 0 -2.6-2.58 7.17 7.17 0 0 0 -3.45-.99zm0-1.38a8.52 8.52 0 0 1 4.14 1.04 7.65 7.65 0 0 1 3.12 3.08 8.39 8.39 0 0 1 0 8.34 7.66 7.66 0 0 1 -3.12 3.09 8.38 8.38 0 0 1 -8.3 0 7.75 7.75 0 0 1 -3.1-3.09 8.39 8.39 0 0 1 0-8.34 7.73 7.73 0 0 1 3.13-3.08 8.52 8.52 0 0 1 4.13-1.08z" />
</svg>