<svg id="图层_1" data-name="图层 1" xmlns="http://www.w3.org/2000/svg" viewBox="0 0 90.42 65.48">
    <defs>
        <style>
            .cls-1 {
            fill: #ff6f00;
            }
        </style>
    </defs>
    <title>未标题-4</title>
    <path class="cls-1"
        d="M71.14,41.34c0-.76,0-1.59,0-2.48A16.68,16.68,0,0,0,75,31.77a4.19,4.19,0,0,0,2-2.42,5.74,5.74,0,0,0-.55-5.44l0-.07c.23-2.08.83-7.61-2.5-11.24a11.44,11.44,0,0,0-17.08,0c-3.33,3.63-2.73,9.16-2.5,11.24v.07a5.74,5.74,0,0,0-.55,5.44,4.21,4.21,0,0,0,2,2.42,16.51,16.51,0,0,0,3.84,7.09c0,.89,0,1.64,0,2.4,0,3.12-2.69,4.82-6.06,6.17-3,1.2,4.78,2,10.24,4.64a18.94,18.94,0,0,1,7.39,6.59H88.1a2.32,2.32,0,0,0,2.32-2.32C90.42,47.7,71.14,49.53,71.14,41.34Zm-31,1.41c0-1,0-2.09,0-3.25a21.67,21.67,0,0,0,5-9.31A5.51,5.51,0,0,0,47.89,27c.82-2.17.88-5.18-.72-7.13l0-.1c.3-2.73,1.09-10-3.28-14.75A15.53,15.53,0,0,0,32.7,0,15.54,15.54,0,0,0,21.49,5c-4.37,4.76-3.58,12-3.28,14.75v.1c-1.6,1.95-1.53,5-.71,7.13a5.45,5.45,0,0,0,2.62,3.18,21.9,21.9,0,0,0,5,9.31c0,1.16,0,2.14,0,3.14,0,11-25.14,8.54-25.14,19.8a3,3,0,0,0,3,3H62.43a3,3,0,0,0,3.05-3C65.48,51.09,40.18,53.5,40.18,42.75Z" />
</svg>
