<svg xmlns="http://www.w3.org/2000/svg"
	width="21dp"
	height="23dp"
	viewBox="0 0 21 23">
	<path
		d="M19.5,5.4l-5.7,-4.8H3C1.9,0.6 1,1.6 1,2.7v17.6c0,1.1 0.9,2.1 2.1,2.1h15c1.1,0 2,-0.9 2.1,-2.1V5.9L19.5,5.4zM18.2,6.2h-3.8c-0.3,0 -0.6,-0.3 -0.6,-0.6V2.6L18.2,6.2zM18,20.9H3c-0.3,0 -0.6,-0.3 -0.6,-0.6V2.7c0,-0.3 0.3,-0.6 0.6,-0.6h9.3v3.5c0,1.1 0.9,2.1 2.1,2.1h4.2v12.6C18.5,20.6 18.3,20.9 18,20.9z"
		fill="#FFB600"/>
	<path
		d="M15.6,14.3H5.4c-0.4,0 -0.7,0.3 -0.7,0.8s0.3,0.8 0.7,0.8h10.2c0.4,0 0.7,-0.3 0.7,-0.8S16,14.3 15.6,14.3z"
		fill="#FFB600"/>
	<path
		d="M15.6,9.9H5.4c-0.4,0 -0.7,0.3 -0.7,0.7c0,0.4 0.3,0.7 0.7,0.7h10.2c0.4,0 0.7,-0.3 0.7,-0.7C16.4,10.3 16,9.9 15.6,9.9z"
		fill="#FFB600"/>
</svg>
