<svg viewBox="0 0 40.79 40.79" xmlns="http://www.w3.org/2000/svg"><path d="m37.33 17a3.28 3.28 0 0 1 1.34.27 3.62 3.62 0 0 1 1.11.75 3.73 3.73 0 0 1 .74 1.1 3.53 3.53 0 0 1 0 2.71 3.91 3.91 0 0 1 -.74 1.08 3.59 3.59 0 0 1 -1.11.74 3.29 3.29 0 0 1 -1.34.28h-13.49v13.4a3.24 3.24 0 0 1 -.27 1.36 3.45 3.45 0 0 1 -1.85 1.83 3.28 3.28 0 0 1 -1.34.27 3.24 3.24 0 0 1 -1.38-.27 3.81 3.81 0 0 1 -1.09-.74 3.75 3.75 0 0 1 -.74-1.09 3.18 3.18 0 0 1 -.28-1.36v-13.48h-13.42a3.29 3.29 0 0 1 -1.37-.28 3.7 3.7 0 0 1 -1.1-.74 3.62 3.62 0 0 1 -.74-1.09 3.18 3.18 0 0 1 -.26-1.36 3.29 3.29 0 0 1 .28-1.38 3.48 3.48 0 0 1 .72-1.07 3.7 3.7 0 0 1 1.08-.74 3.22 3.22 0 0 1 1.37-.27h13.55v-13.45a3.29 3.29 0 0 1 .27-1.35 3.57 3.57 0 0 1 1.78-1.84 3.18 3.18 0 0 1 1.36-.28 3.37 3.37 0 0 1 2.45 1 3.34 3.34 0 0 1 1 2.45v13.55z" fill="#083"/></svg>