<svg xmlns="http://www.w3.org/2000/svg"
	width="16.6dp"
	height="18.6dp"
	viewBox="0 0 16.6 18.6">
	<path
		d="M3.4,8.9M9.8,13.4c0.2,-0.3 0.4,-0.6 0.6,-0.9c0.4,-0.5 0.8,-0.9 1.4,-1.2c0.1,0.1 0.2,0.4 0.4,0.6c0.1,0.1 0.2,0.2 0.3,0.3c-0.2,0.1 -0.4,0.2 -0.6,0.3c-0.5,0.4 -0.9,0.9 -1.1,1.5L9.8,13.4zM7.3,15.2C7.9,15 8.5,14.8 9,14.4c0.2,-0.1 0.4,-0.2 0.5,-0.4l0.8,0.8c-0.5,0.4 -1.1,0.7 -1.7,1c-0.3,0.1 -0.7,0.2 -1,0.3c0,-0.1 -0.1,-0.2 -0.1,-0.3C7.4,15.6 7.4,15.4 7.3,15.2L7.3,15.2zM3.6,14.8c0.1,-0.2 0.3,-0.4 0.5,-0.6c0.5,0.3 1,0.6 1.6,0.8c0.2,0.1 0.5,0.1 0.7,0.2l-0.1,0.3c0,0.2 0,0.5 -0.1,0.7c-0.7,-0.1 -1.4,-0.3 -2,-0.7c-0.3,-0.2 -0.6,-0.3 -0.8,-0.5L3.6,14.8zM0,8.7c0,-0.3 0.2,-0.7 0.4,-0.9C0.7,7.6 1,7.5 1.3,7.5h2.1L4,8.8H1.6c-0.1,0 -0.1,0 -0.2,0.1C1.4,8.9 1.3,8.9 1.3,9v3c0.2,0.2 1.4,1.1 2.2,1.6c-0.1,0.1 -0.1,0.2 -0.2,0.2C3.1,14 3,14.2 2.8,14.4c-0.3,-0.2 -0.6,-0.5 -0.7,-0.6c-0.1,-0.1 -0.6,-0.6 -0.7,-0.6v4.2c0,0.1 0,0.1 0.1,0.2c0.1,0 0.1,0.1 0.2,0.1h13.5c0.1,0 0.1,0 0.2,-0.1c0.1,0 0.1,-0.1 0.1,-0.2v-6l-1,0.1c-0.4,0.1 -0.8,0.2 -1.2,0.3L13,11l-0.1,-0.2c0.8,-0.3 1.7,-0.4 2.5,-0.4V9c0,-0.1 0,-0.1 -0.1,-0.2c-0.1,0 -0.1,-0.1 -0.2,-0.1h-4l0.6,-1.2h3.6c0.3,0 0.7,0.1 0.9,0.3c0.2,0.2 0.4,0.5 0.4,0.9v8.8c0,0.3 -0.2,0.7 -0.4,0.9c-0.2,0.2 -0.6,0.3 -0.9,0.3H1.3c-0.7,0 -1.3,-0.5 -1.3,-1.2V8.7zM0,17.6M7.9,8.1C7.9,8.1 7.9,8.1 7.9,8.1l0,4.4c0,0.5 -0.4,0.8 -0.8,0.8c-0.5,0 -0.8,-0.4 -0.8,-0.8V8.1c0,0 0,0 0,0c-1.9,-0.4 -3.3,-2 -3.3,-4C2.9,1.8 4.8,0 7,0s4.1,1.8 4.1,4.1C11.1,6.1 9.7,7.7 7.9,8.1zM8.8,2.2C8.8,1.5 8.3,1 7.7,1C7,1 6.5,1.5 6.5,2.2c0,0.7 0.5,1.2 1.2,1.2C8.3,3.4 8.8,2.8 8.8,2.2z"
		fill="#808080"/>
</svg>
