<svg xmlns="http://www.w3.org/2000/svg"
	width="16.6dp"
	height="18.6dp"
	viewBox="0 0 16.6 18.6">
	<path
		d="M3.4,8.8M9.8,13.3c0.2,-0.3 0.4,-0.6 0.6,-0.9c0.4,-0.5 0.8,-0.9 1.4,-1.2c0.1,0.1 0.2,0.3 0.4,0.6c0.1,0.1 0.2,0.2 0.3,0.3c-0.2,0.1 -0.4,0.2 -0.6,0.3c-0.5,0.4 -0.9,0.9 -1.1,1.5L9.8,13.3zM7.2,15c0.6,-0.2 1.2,-0.4 1.7,-0.7c0.2,-0.1 0.4,-0.2 0.5,-0.4l0.8,0.8c-0.5,0.4 -1.1,0.7 -1.7,1c-0.3,0.1 -0.7,0.2 -1,0.3c0,-0.1 -0.1,-0.2 -0.1,-0.3C7.4,15.5 7.3,15.3 7.2,15L7.2,15zM3.5,14.7c0.1,-0.2 0.3,-0.4 0.5,-0.6c0.5,0.3 1,0.6 1.6,0.8C5.8,15 6,15.1 6.3,15.1l-0.1,0.3c0,0.2 0,0.5 -0.1,0.7c-0.7,-0.1 -1.4,-0.3 -2,-0.7c-0.3,-0.1 -0.6,-0.3 -0.8,-0.5L3.5,14.7zM0,8.7C0,8.3 0.2,8 0.4,7.8C0.7,7.6 1,7.4 1.3,7.5h2.1L4,8.7H1.6c-0.1,0 -0.1,0 -0.2,0.1c-0.1,0 -0.1,0.1 -0.1,0.2v3c0.2,0.2 1.4,1.1 2.2,1.6c-0.1,0.1 -0.1,0.2 -0.2,0.2c-0.2,0.1 -0.3,0.3 -0.5,0.5C2.4,14 2.2,13.8 2,13.7c-0.1,-0.1 -0.6,-0.6 -0.7,-0.6v4.2c0,0.1 0,0.1 0.1,0.2c0.1,0 0.1,0.1 0.2,0.1H15c0.1,0 0.1,0 0.2,-0.1c0.1,0 0.1,-0.1 0.1,-0.2v-5.9l-0.9,0.1c-0.4,0.1 -0.8,0.2 -1.1,0.3l-0.3,-0.7l-0.1,-0.2c0.8,-0.3 1.6,-0.4 2.5,-0.4V8.9c0,-0.1 0,-0.1 -0.1,-0.2c-0.1,0 -0.1,-0.1 -0.2,-0.1h-4l0.6,-1.2h3.6c0.3,0 0.7,0.1 0.9,0.3c0.2,0.2 0.4,0.5 0.4,0.9v8.8c0,0.3 -0.2,0.6 -0.4,0.9c-0.2,0.2 -0.6,0.3 -0.9,0.3h-14c-0.7,0 -1.3,-0.5 -1.3,-1.2V8.7zM0,17.4M7.8,8.1C7.8,8.1 7.8,8.1 7.8,8.1l0,4.4c0,0.4 -0.4,0.8 -0.8,0.8s-0.8,-0.4 -0.8,-0.8V8.1c0,0 0,0 0,0c-1.9,-0.4 -3.3,-2 -3.3,-4C2.9,1.8 4.7,0 7,0s4.1,1.8 4.1,4.1C11.1,6 9.7,7.7 7.8,8.1zM8.8,2.2C8.8,1.5 8.2,1 7.6,1C6.9,1 6.4,1.5 6.4,2.2c0,0.7 0.5,1.2 1.2,1.2C8.2,3.3 8.8,2.8 8.8,2.2z"
		fill="#00B3D6"/>
</svg>
