<?xml version="1.0" standalone="no"?><!DOCTYPE svg PUBLIC "-//W3C//DTD SVG 1.1//EN" "http://www.w3.org/Graphics/SVG/1.1/DTD/svg11.dtd"><svg t="1676856666085" class="icon" viewBox="0 0 1024 1024" version="1.1" xmlns="http://www.w3.org/2000/svg" p-id="14690" xmlns:xlink="http://www.w3.org/1999/xlink" width="24" height="24"><path d="M835.812352 192.093184l-633.102336-0.279552c-0.006144 0-0.01024 0-0.016384 0-19.785728 0-35.830784 16.03584-35.84 35.82464-0.008192 19.79392 16.029696 35.847168 35.823616 35.85536l633.102336 0.279552c0.006144 0 0.01024 0 0.016384 0 19.785728 0 35.830784-16.03584 35.84-35.82464C871.645184 208.155648 855.606272 192.1024 835.812352 192.093184zM835.812352 477.37856l-633.102336-0.279552c-0.006144 0-0.01024 0-0.016384 0-19.785728 0-35.830784 16.036864-35.84 35.823616-0.008192 19.79392 16.029696 35.847168 35.823616 35.856384l633.102336 0.279552c0.006144 0 0.01024 0 0.016384 0 19.785728 0 35.830784-16.036864 35.84-35.823616C871.645184 493.441024 855.606272 477.387776 835.812352 477.37856zM202.710016 762.385408c-0.006144 0-0.01024 0-0.016384 0-19.785728 0-35.831808 16.036864-35.84 35.823616-0.008192 19.79392 16.029696 35.847168 35.823616 35.856384l633.102336 0.279552c0.006144 0 0.01024 0 0.016384 0 19.785728 0 35.830784-16.036864 35.84-35.823616 0.008192-19.79392-16.03072-35.847168-35.823616-35.856384L202.710016 762.385408z" fill="#515151" p-id="14691"></path></svg>