<svg xmlns="http://www.w3.org/2000/svg"
	width="16.88dp"
	height="18.64dp"
	viewBox="0 0 16.88 18.64">
	<path
		d="M0.09,18.64c-0.05,0 -0.1,-0.05 -0.09,-0.1c0.08,-1.73 2.42,0.24 2.42,-2.94c0,-1.84 2.8,-1.78 2.8,0c0,2.98 2.51,1.4 2.61,2.94c0,0.05 -0.04,0.1 -0.09,0.1H0.09zM10.65,2.24c-0.29,0 -0.52,0.23 -0.52,0.52s0.23,0.52 0.52,0.52c1.63,0 2.96,1.33 2.96,2.96c0,0.29 0.23,0.52 0.52,0.52c0.29,0 0.52,-0.23 0.52,-0.52C14.66,4.03 12.86,2.24 10.65,2.24L10.65,2.24zM10.65,0c-0.29,0 -0.52,0.23 -0.52,0.52c0,0.29 0.23,0.52 0.52,0.52c2.86,0 5.19,2.33 5.19,5.19c0,0.29 0.23,0.52 0.52,0.52c0.29,0 0.52,-0.23 0.52,-0.52C16.9,2.8 14.1,0 10.65,0L10.65,0zM11.34,11.45l0.1,-4.8c0,-0.05 0.02,-0.09 0.06,-0.12c0.06,-0.04 0.11,-0.09 0.16,-0.15c0.25,-0.31 0.24,-0.75 -0.02,-1.05c-0.31,-0.36 -0.86,-0.37 -1.19,-0.04c-0.04,0.04 -0.08,0.09 -0.11,0.14c-0.03,0.04 -0.07,0.06 -0.12,0.06l-4.73,0.1c-0.11,0 -0.22,-0.04 -0.3,-0.12L2.63,2.91c-0.08,-0.08 -0.2,-0.06 -0.25,0.04c-1.69,3.23 -1.17,7.31 1.54,10.03s6.8,3.23 10.03,1.54c0.1,-0.05 0.11,-0.18 0.04,-0.25l-2.52,-2.52C11.38,11.67 11.34,11.56 11.34,11.45zM7.96,8.25L6.25,6.54C6.22,6.51 6.24,6.45 6.29,6.45l3.53,-0.07c0.05,0 0.08,0.06 0.04,0.09L8.08,8.25C8.05,8.28 8,8.28 7.96,8.25zM8.69,8.86l1.78,-1.78c0.04,-0.04 0.1,-0.01 0.09,0.04l-0.07,3.53c0,0.05 -0.06,0.07 -0.09,0.04L8.69,8.98C8.66,8.94 8.66,8.89 8.69,8.86z"
		fill="#808080"/>
</svg>
