<?xml version="1.0" encoding="UTF-8"?>
<!DOCTYPE svg PUBLIC "-//W3C//DTD SVG 1.1//EN" "http://www.w3.org/Graphics/SVG/1.1/DTD/svg11.dtd">
<svg xmlns="http://www.w3.org/2000/svg" version="1.1" width="1052px" height="1052px" style="shape-rendering:geometricPrecision; text-rendering:geometricPrecision; image-rendering:optimizeQuality; fill-rule:evenodd; clip-rule:evenodd" xmlns:xlink="http://www.w3.org/1999/xlink">
<g><path style="opacity:0.976" fill="#332c2a" d="M 671.5,14.5 C 662.983,14.1739 654.65,14.5073 646.5,15.5C 567.833,15.5 489.167,15.5 410.5,15.5C 402.02,13.1869 393.353,12.8536 384.5,14.5C 384.5,10.5 384.5,6.5 384.5,2.5C 480.167,2.5 575.833,2.5 671.5,2.5C 671.5,6.5 671.5,10.5 671.5,14.5 Z"/></g>
<g><path style="opacity:0.979" fill="#f08519" d="M 410.5,15.5 C 410.5,18.1667 410.5,20.8333 410.5,23.5C 409.662,23.8417 409.328,24.5084 409.5,25.5C 409.5,60.1667 409.5,94.8333 409.5,129.5C 409.5,137.167 409.5,144.833 409.5,152.5C 409.5,161.5 409.5,170.5 409.5,179.5C 407.544,409.333 405.877,639.333 404.5,869.5C 403.577,873.064 403.244,876.731 403.5,880.5C 395.5,880.5 387.5,880.5 379.5,880.5C 379.5,876.833 379.5,873.167 379.5,869.5C 381.42,584.502 383.087,299.502 384.5,14.5C 393.353,12.8536 402.02,13.1869 410.5,15.5 Z"/></g>
<g><path style="opacity:0.978" fill="#ef8419" d="M 671.5,14.5 C 673.218,299.166 674.885,583.833 676.5,868.5C 676.5,872.5 676.5,876.5 676.5,880.5C 668.5,880.5 660.5,880.5 652.5,880.5C 652.817,876.298 652.483,872.298 651.5,868.5C 649.734,584.167 648.068,299.834 646.5,15.5C 654.65,14.5073 662.983,14.1739 671.5,14.5 Z"/></g>
<g><path style="opacity:0.987" fill="#e05427" d="M 409.5,129.5 C 409.5,94.8333 409.5,60.1667 409.5,25.5C 410.338,25.1583 410.672,24.4916 410.5,23.5C 413.076,20.3768 416.41,18.5435 420.5,18C 491.833,17.3333 563.167,17.3333 634.5,18C 639.783,18.6154 643.283,21.4487 645,26.5C 645.667,60.8333 645.667,95.1667 645,129.5C 643.108,133.058 640.275,135.558 636.5,137C 563.833,137.667 491.167,137.667 418.5,137C 414.723,135.386 411.723,132.886 409.5,129.5 Z"/></g>
<g><path style="opacity:1" fill="#382d2a" d="M 461.5,40.5 C 463.5,40.5 465.5,40.5 467.5,40.5C 468.555,47.2741 470.055,53.9407 472,60.5C 473.82,53.8888 475.32,47.2221 476.5,40.5C 478.833,40.5 481.167,40.5 483.5,40.5C 485.303,47.0813 486.803,53.748 488,60.5C 489.681,53.9342 491.181,47.2675 492.5,40.5C 494.527,40.3379 496.527,40.5045 498.5,41C 495.855,50.3564 493.689,59.8564 492,69.5C 489.959,70.4231 487.792,70.7564 485.5,70.5C 483.984,63.1012 482.15,55.7679 480,48.5C 477.85,55.7679 476.016,63.1012 474.5,70.5C 472.208,70.7564 470.041,70.4231 468,69.5C 466.259,59.7156 464.093,50.0489 461.5,40.5 Z"/></g>
<g><path style="opacity:1" fill="#3a2d2a" d="M 509.5,40.5 C 527.568,39.9232 533.401,48.2566 527,65.5C 522.509,70.2591 517.009,71.7591 510.5,70C 507.667,68.5 505.5,66.3333 504,63.5C 500.544,54.406 502.377,46.7393 509.5,40.5 Z"/></g>
<g><path style="opacity:1" fill="#3a2d2a" d="M 535.5,40.5 C 541.176,40.3339 546.843,40.5006 552.5,41C 558.749,43.9553 560.083,48.4553 556.5,54.5C 554.833,55.6667 553.167,56.8333 551.5,58C 555.23,61.4634 558.23,65.4634 560.5,70C 558.167,70.6667 555.833,70.6667 553.5,70C 551.323,65.9791 548.656,62.3124 545.5,59C 544.207,58.51 542.873,58.3433 541.5,58.5C 541.5,62.5 541.5,66.5 541.5,70.5C 539.5,70.5 537.5,70.5 535.5,70.5C 535.5,60.5 535.5,50.5 535.5,40.5 Z"/></g>
<g><path style="opacity:1" fill="#382d2a" d="M 570.5,40.5 C 570.174,44.8839 570.508,49.2172 571.5,53.5C 572.107,53.3764 572.44,53.0431 572.5,52.5C 575.251,48.243 578.584,44.4097 582.5,41C 584.833,40.3333 587.167,40.3333 589.5,41C 586.353,44.9812 583.02,48.8145 579.5,52.5C 583.042,58.4176 586.708,64.2509 590.5,70C 588.167,70.6667 585.833,70.6667 583.5,70C 580.944,65.7121 578.278,61.5455 575.5,57.5C 574.186,58.3128 573.019,59.3128 572,60.5C 571.502,63.8168 571.335,67.1501 571.5,70.5C 569.5,70.5 567.5,70.5 565.5,70.5C 565.5,60.5 565.5,50.5 565.5,40.5C 567.167,40.5 568.833,40.5 570.5,40.5 Z"/></g>
<g><path style="opacity:1" fill="#7b3d29" d="M 570.5,40.5 C 571.167,44.5 571.833,48.5 572.5,52.5C 572.44,53.0431 572.107,53.3764 571.5,53.5C 570.508,49.2172 570.174,44.8839 570.5,40.5 Z"/></g>
<g><path style="opacity:1" fill="#de5427" d="M 512.5,45.5 C 517.439,44.3519 520.939,46.0186 523,50.5C 524.472,56.0755 523.305,60.9089 519.5,65C 514.525,66.6447 511.025,65.1447 509,60.5C 508.333,56.8333 508.333,53.1667 509,49.5C 509.69,47.6498 510.856,46.3164 512.5,45.5 Z"/></g>
<g><path style="opacity:1" fill="#de5427" d="M 541.5,45.5 C 544.518,45.3354 547.518,45.502 550.5,46C 553.167,48.3333 553.167,50.6667 550.5,53C 547.518,53.498 544.518,53.6646 541.5,53.5C 541.5,50.8333 541.5,48.1667 541.5,45.5 Z"/></g>
<g><path style="opacity:1" fill="#382d2a" d="M 467.5,85.5 C 475.167,85.5 482.833,85.5 490.5,85.5C 490.66,87.1992 490.494,88.8659 490,90.5C 484.5,97.3333 479,104.167 473.5,111C 479.157,111.499 484.824,111.666 490.5,111.5C 490.5,113.167 490.5,114.833 490.5,116.5C 482.167,116.5 473.833,116.5 465.5,116.5C 465.338,114.473 465.505,112.473 466,110.5C 471.167,104.167 476.333,97.8333 481.5,91.5C 476.88,90.5067 472.214,90.1734 467.5,90.5C 467.5,88.8333 467.5,87.1667 467.5,85.5 Z"/></g>
<g><path style="opacity:1" fill="#382d2a" d="M 501.5,85.5 C 518.176,83.6759 525.009,91.0092 522,107.5C 517.707,115.943 510.874,118.776 501.5,116C 494.355,110.644 491.855,103.477 494,94.5C 495.642,90.6997 498.142,87.6997 501.5,85.5 Z"/></g>
<g><path style="opacity:1" fill="#372d2a" d="M 527.5,85.5 C 530.365,85.0548 532.865,85.7215 535,87.5C 538.667,93.5 542.333,99.5 546,105.5C 546.5,98.8417 546.666,92.175 546.5,85.5C 548.167,85.5 549.833,85.5 551.5,85.5C 551.5,95.8333 551.5,106.167 551.5,116.5C 549.208,116.756 547.041,116.423 545,115.5C 541.73,109.236 538.064,103.236 534,97.5C 533.5,103.825 533.334,110.158 533.5,116.5C 531.5,116.5 529.5,116.5 527.5,116.5C 527.5,106.167 527.5,95.8333 527.5,85.5 Z"/></g>
<g><path style="opacity:1" fill="#352c2a" d="M 580.5,102.5 C 575.167,102.5 569.833,102.5 564.5,102.5C 564.5,105.5 564.5,108.5 564.5,111.5C 570.167,111.5 575.833,111.5 581.5,111.5C 581.5,113.167 581.5,114.833 581.5,116.5C 573.833,116.5 566.167,116.5 558.5,116.5C 558.5,106.167 558.5,95.8333 558.5,85.5C 566.167,85.5 573.833,85.5 581.5,85.5C 581.5,87.1667 581.5,88.8333 581.5,90.5C 575.833,90.5 570.167,90.5 564.5,90.5C 564.5,92.8333 564.5,95.1667 564.5,97.5C 569.833,97.5 575.167,97.5 580.5,97.5C 580.5,99.1667 580.5,100.833 580.5,102.5 Z"/></g>
<g><path style="opacity:1" fill="#dd5327" d="M 504.5,90.5 C 515.001,90.1199 518.834,95.1199 516,105.5C 513.983,110.924 510.15,112.758 504.5,111C 497.869,104.136 497.869,97.3027 504.5,90.5 Z"/></g>
<g><path style="opacity:1" fill="#b64a27" d="M 580.5,102.5 C 575.695,103.487 570.695,103.821 565.5,103.5C 565.5,105.833 565.5,108.167 565.5,110.5C 571.026,110.179 576.36,110.512 581.5,111.5C 575.833,111.5 570.167,111.5 564.5,111.5C 564.5,108.5 564.5,105.5 564.5,102.5C 569.833,102.5 575.167,102.5 580.5,102.5 Z"/></g>
<g><path style="opacity:0.872" fill="#c2c2c2" d="M 409.5,179.5 C 409.5,170.5 409.5,161.5 409.5,152.5C 412.175,146.996 416.509,143.496 422.5,142C 492.5,141.333 562.5,141.333 632.5,142C 638.925,143.427 643.092,147.26 645,153.5C 645.667,250.5 645.667,347.5 645,444.5C 643.167,450.333 639.333,454.167 633.5,456C 562.833,456.667 492.167,456.667 421.5,456C 416.09,454.257 412.256,450.757 410,445.5C 409.5,356.834 409.333,268.167 409.5,179.5 Z"/></g>
<g><path style="opacity:1" fill="#332c2b" d="M 424.5,146.5 C 492.501,146.333 560.501,146.5 628.5,147C 635.228,148.727 639.728,152.894 642,159.5C 642.667,252.167 642.667,344.833 642,437.5C 640.273,444.228 636.106,448.728 629.5,451C 561.167,451.667 492.833,451.667 424.5,451C 418.269,449.037 414.436,444.87 413,438.5C 412.333,345.167 412.333,251.833 413,158.5C 414.08,156.004 415.414,153.67 417,151.5C 419.479,149.686 421.979,148.019 424.5,146.5 Z"/></g>
<g><path style="opacity:1" fill="#c7c8c8" d="M 426.5,151.5 C 493.501,151.333 560.501,151.5 627.5,152C 632.235,153.068 635.402,155.901 637,160.5C 637.667,252.5 637.667,344.5 637,436.5C 635.833,441.667 632.667,444.833 627.5,446C 560.167,446.667 492.833,446.667 425.5,446C 421.51,444.01 419.01,440.843 418,436.5C 417.333,344.5 417.333,252.5 418,160.5C 419.688,156.315 422.521,153.315 426.5,151.5 Z"/></g>
<g><path style="opacity:1" fill="#37302f" d="M 441.5,186.5 C 446.93,186.161 452.264,186.661 457.5,188C 460.892,190.285 462.559,193.452 462.5,197.5C 458.138,198.142 454.805,196.642 452.5,193C 449.438,192.259 446.438,192.425 443.5,193.5C 442.167,195.167 442.167,196.833 443.5,198.5C 450.096,200.215 456.262,202.882 462,206.5C 464.812,212.902 463.645,218.402 458.5,223C 452.92,224.517 447.253,224.851 441.5,224C 436.433,221.365 433.766,217.199 433.5,211.5C 436.167,211.5 438.833,211.5 441.5,211.5C 441.563,216.396 444.063,218.729 449,218.5C 455.627,218.266 457.46,215.433 454.5,210C 447.304,209.274 441.137,206.441 436,201.5C 433.316,194.864 435.149,189.864 441.5,186.5 Z"/></g>
<g><path style="opacity:1" fill="#342d2c" d="M 470.5,186.5 C 477.508,186.334 484.508,186.5 491.5,187C 498.198,190.464 500.365,195.964 498,203.5C 496.878,205.624 495.378,207.457 493.5,209C 488.246,210.271 482.913,210.771 477.5,210.5C 477.5,215.167 477.5,219.833 477.5,224.5C 475.167,224.5 472.833,224.5 470.5,224.5C 470.5,211.833 470.5,199.167 470.5,186.5 Z"/></g>
<g><path style="opacity:1" fill="#322c2a" d="M 532.5,186.5 C 532.5,188.5 532.5,190.5 532.5,192.5C 525.833,192.5 519.167,192.5 512.5,192.5C 512.19,195.713 512.523,198.713 513.5,201.5C 519.5,201.5 525.5,201.5 531.5,201.5C 531.5,203.5 531.5,205.5 531.5,207.5C 525.167,207.5 518.833,207.5 512.5,207.5C 512.5,211.167 512.5,214.833 512.5,218.5C 519.5,218.5 526.5,218.5 533.5,218.5C 533.5,220.5 533.5,222.5 533.5,224.5C 524.167,224.5 514.833,224.5 505.5,224.5C 505.5,211.833 505.5,199.167 505.5,186.5C 514.5,186.5 523.5,186.5 532.5,186.5 Z"/></g>
<g><path style="opacity:1" fill="#322c2a" d="M 567.5,186.5 C 567.5,188.5 567.5,190.5 567.5,192.5C 560.833,192.5 554.167,192.5 547.5,192.5C 547.19,195.713 547.523,198.713 548.5,201.5C 554.5,201.5 560.5,201.5 566.5,201.5C 566.5,203.5 566.5,205.5 566.5,207.5C 560.167,207.5 553.833,207.5 547.5,207.5C 547.5,211.167 547.5,214.833 547.5,218.5C 554.5,218.5 561.5,218.5 568.5,218.5C 568.5,220.5 568.5,222.5 568.5,224.5C 559.167,224.5 549.833,224.5 540.5,224.5C 540.5,211.833 540.5,199.167 540.5,186.5C 549.5,186.5 558.5,186.5 567.5,186.5 Z"/></g>
<g><path style="opacity:1" fill="#352e2d" d="M 575.5,186.5 C 583.279,186.068 590.946,186.568 598.5,188C 604.376,192.088 607.043,197.755 606.5,205C 607.435,214.144 603.768,220.478 595.5,224C 588.842,224.5 582.175,224.666 575.5,224.5C 575.5,211.833 575.5,199.167 575.5,186.5 Z"/></g>
<g><path style="opacity:1" fill="#878585" d="M 532.5,186.5 C 533.468,188.607 533.802,190.941 533.5,193.5C 526.833,193.5 520.167,193.5 513.5,193.5C 513.5,196.167 513.5,198.833 513.5,201.5C 512.523,198.713 512.19,195.713 512.5,192.5C 519.167,192.5 525.833,192.5 532.5,192.5C 532.5,190.5 532.5,188.5 532.5,186.5 Z"/></g>
<g><path style="opacity:1" fill="#878585" d="M 567.5,186.5 C 568.468,188.607 568.802,190.941 568.5,193.5C 561.833,193.5 555.167,193.5 548.5,193.5C 548.5,196.167 548.5,198.833 548.5,201.5C 547.523,198.713 547.19,195.713 547.5,192.5C 554.167,192.5 560.833,192.5 567.5,192.5C 567.5,190.5 567.5,188.5 567.5,186.5 Z"/></g>
<g><path style="opacity:1" fill="#888686" d="M 487.5,193.5 C 484.5,193.5 481.5,193.5 478.5,193.5C 478.5,196.833 478.5,200.167 478.5,203.5C 481.167,203.5 483.833,203.5 486.5,203.5C 483.713,204.477 480.713,204.81 477.5,204.5C 477.5,200.5 477.5,196.5 477.5,192.5C 481.042,192.187 484.375,192.521 487.5,193.5 Z"/></g>
<g><path style="opacity:1" fill="#c5c6c5" d="M 487.5,193.5 C 491.223,195.021 492.223,197.687 490.5,201.5C 489.423,202.705 488.09,203.372 486.5,203.5C 483.833,203.5 481.167,203.5 478.5,203.5C 478.5,200.167 478.5,196.833 478.5,193.5C 481.5,193.5 484.5,193.5 487.5,193.5 Z"/></g>
<g><path style="opacity:1" fill="#8d8c8b" d="M 592.5,193.5 C 589.5,193.5 586.5,193.5 583.5,193.5C 583.5,201.5 583.5,209.5 583.5,217.5C 586.5,217.5 589.5,217.5 592.5,217.5C 589.375,218.479 586.042,218.813 582.5,218.5C 582.5,209.833 582.5,201.167 582.5,192.5C 586.042,192.187 589.375,192.521 592.5,193.5 Z"/></g>
<g><path style="opacity:1" fill="#c7c8c8" d="M 592.5,193.5 C 597.902,195.391 599.902,199.225 598.5,205C 598.528,208.59 598.028,212.09 597,215.5C 595.89,217.037 594.39,217.703 592.5,217.5C 589.5,217.5 586.5,217.5 583.5,217.5C 583.5,209.5 583.5,201.5 583.5,193.5C 586.5,193.5 589.5,193.5 592.5,193.5 Z"/></g>
<g><path style="opacity:1" fill="#8e8d8c" d="M 531.5,207.5 C 525.69,208.49 519.69,208.823 513.5,208.5C 513.5,211.5 513.5,214.5 513.5,217.5C 520.354,217.176 527.021,217.509 533.5,218.5C 526.5,218.5 519.5,218.5 512.5,218.5C 512.5,214.833 512.5,211.167 512.5,207.5C 518.833,207.5 525.167,207.5 531.5,207.5 Z"/></g>
<g><path style="opacity:1" fill="#8e8d8c" d="M 566.5,207.5 C 560.69,208.49 554.69,208.823 548.5,208.5C 548.5,211.5 548.5,214.5 548.5,217.5C 555.354,217.176 562.021,217.509 568.5,218.5C 561.5,218.5 554.5,218.5 547.5,218.5C 547.5,214.833 547.5,211.167 547.5,207.5C 553.833,207.5 560.167,207.5 566.5,207.5 Z"/></g>
<g><path style="opacity:1" fill="#37302f" d="M 456.5,257.5 C 459.167,257.5 461.833,257.5 464.5,257.5C 464.5,268.167 464.5,278.833 464.5,289.5C 470.833,289.5 477.167,289.5 483.5,289.5C 483.5,291.833 483.5,294.167 483.5,296.5C 474.5,296.5 465.5,296.5 456.5,296.5C 456.5,283.5 456.5,270.5 456.5,257.5 Z"/></g>
<g><path style="opacity:1" fill="#322c2a" d="M 489.5,257.5 C 491.833,257.5 494.167,257.5 496.5,257.5C 496.5,270.5 496.5,283.5 496.5,296.5C 494.167,296.5 491.833,296.5 489.5,296.5C 489.5,283.5 489.5,270.5 489.5,257.5 Z"/></g>
<g><path style="opacity:1" fill="#342d2c" d="M 504.5,257.5 C 508.5,257.5 512.5,257.5 516.5,257.5C 518.354,266.248 520.52,274.915 523,283.5C 525.176,274.797 527.342,266.13 529.5,257.5C 533.5,257.5 537.5,257.5 541.5,257.5C 541.5,270.5 541.5,283.5 541.5,296.5C 539.167,296.5 536.833,296.5 534.5,296.5C 534.666,286.494 534.5,276.494 534,266.5C 531.808,276.244 529.308,285.911 526.5,295.5C 523.914,296.48 521.247,296.813 518.5,296.5C 516.972,286.385 514.805,276.385 512,266.5C 511.5,276.494 511.334,286.494 511.5,296.5C 509.167,296.5 506.833,296.5 504.5,296.5C 504.5,283.5 504.5,270.5 504.5,257.5 Z"/></g>
<g><path style="opacity:1" fill="#322c2a" d="M 549.5,257.5 C 551.833,257.5 554.167,257.5 556.5,257.5C 556.5,270.5 556.5,283.5 556.5,296.5C 554.167,296.5 551.833,296.5 549.5,296.5C 549.5,283.5 549.5,270.5 549.5,257.5 Z"/></g>
<g><path style="opacity:1" fill="#332c2b" d="M 591.5,257.5 C 591.5,259.5 591.5,261.5 591.5,263.5C 587.833,263.5 584.167,263.5 580.5,263.5C 580.5,274.5 580.5,285.5 580.5,296.5C 578.167,296.5 575.833,296.5 573.5,296.5C 573.5,285.5 573.5,274.5 573.5,263.5C 569.5,263.5 565.5,263.5 561.5,263.5C 561.5,261.5 561.5,259.5 561.5,257.5C 571.5,257.5 581.5,257.5 591.5,257.5 Z"/></g>
<g><path style="opacity:1" fill="#848281" d="M 561.5,263.5 C 565.5,263.5 569.5,263.5 573.5,263.5C 573.5,274.5 573.5,285.5 573.5,296.5C 572.506,286.013 572.172,275.346 572.5,264.5C 568.629,264.815 564.962,264.482 561.5,263.5 Z"/></g>
<g><path style="opacity:1" fill="#848281" d="M 591.5,257.5 C 592.468,259.607 592.802,261.941 592.5,264.5C 588.833,264.5 585.167,264.5 581.5,264.5C 581.828,275.346 581.494,286.013 580.5,296.5C 580.5,285.5 580.5,274.5 580.5,263.5C 584.167,263.5 587.833,263.5 591.5,263.5C 591.5,261.5 591.5,259.5 591.5,257.5 Z"/></g>
<g><path style="opacity:1" fill="#dadbdb" d="M 433.5,318.5 C 462.502,318.333 491.502,318.5 520.5,319C 521.416,319.374 522.25,319.874 523,320.5C 524.653,356.415 524.987,392.415 524,428.5C 523.167,429.333 522.333,430.167 521.5,431C 492.92,432.65 464.253,432.983 435.5,432C 433.671,431.727 432.171,430.893 431,429.5C 429.347,393.918 429.014,358.252 430,322.5C 431.376,321.295 432.542,319.962 433.5,318.5 Z"/></g>
<g><path style="opacity:1" fill="#dadbdb" d="M 531.5,318.5 C 560.835,318.333 590.169,318.5 619.5,319C 620.333,319.833 621.167,320.667 622,321.5C 623.653,356.415 623.986,391.415 623,426.5C 622.215,428.286 621.049,429.786 619.5,431C 590.92,432.65 562.253,432.983 533.5,432C 531.714,431.215 530.214,430.049 529,428.5C 527.347,393.585 527.014,358.585 528,323.5C 528.997,321.677 530.164,320.01 531.5,318.5 Z"/></g>
<g><path style="opacity:1" fill="#362f2e" d="M 453.5,328.5 C 472.167,328.5 490.833,328.5 509.5,328.5C 509.5,331.833 509.5,335.167 509.5,338.5C 495.167,338.5 480.833,338.5 466.5,338.5C 466.334,345.508 466.5,352.508 467,359.5C 480.058,355.892 492.558,357.392 504.5,364C 518.444,374.253 521.277,387.087 513,402.5C 503.22,412.653 491.22,417.319 477,416.5C 467.399,416.19 457.899,415.19 448.5,413.5C 448.5,409.5 448.5,405.5 448.5,401.5C 460.376,406.196 472.71,407.696 485.5,406C 501.4,401.64 506.234,391.807 500,376.5C 496.547,372.855 492.38,370.355 487.5,369C 476.049,366.497 464.882,367.33 454,371.5C 453.5,357.171 453.333,342.837 453.5,328.5 Z"/></g>
<g><path style="opacity:1" fill="#362f2e" d="M 554.5,328.5 C 573.167,328.5 591.833,328.5 610.5,328.5C 610.5,331.833 610.5,335.167 610.5,338.5C 596.167,338.5 581.833,338.5 567.5,338.5C 567.334,345.508 567.5,352.508 568,359.5C 581.058,355.892 593.558,357.392 605.5,364C 619.444,374.253 622.277,387.087 614,402.5C 604.22,412.653 592.22,417.319 578,416.5C 568.399,416.19 558.899,415.19 549.5,413.5C 549.5,409.5 549.5,405.5 549.5,401.5C 561.376,406.196 573.71,407.696 586.5,406C 602.4,401.64 607.234,391.807 601,376.5C 597.547,372.855 593.38,370.355 588.5,369C 577.049,366.497 565.882,367.33 555,371.5C 554.5,357.171 554.333,342.837 554.5,328.5 Z"/></g>
<g><path style="opacity:0.994" fill="#c7c8c8" d="M 646.5,518.5 C 646.167,518.5 645.833,518.5 645.5,518.5C 621.833,517.833 598.167,517.167 574.5,516.5C 577.091,515.746 578.924,514.079 580,511.5C 582.598,502.77 579.431,497.603 570.5,496C 566.359,493.121 566.692,490.955 571.5,489.5C 573.837,491.525 576.503,492.859 579.5,493.5C 579.365,485.579 575.365,482.745 567.5,485C 563.279,488.822 562.446,493.322 565,498.5C 567.626,501.231 570.793,503.064 574.5,504C 577.666,509.519 575.999,511.852 569.5,511C 568.139,509.416 567.472,507.582 567.5,505.5C 565.833,505.5 564.167,505.5 562.5,505.5C 562.595,510.711 564.929,514.378 569.5,516.5C 545.167,517.833 520.833,517.833 496.5,516.5C 499.091,515.746 500.924,514.079 502,511.5C 502.5,502.506 502.666,493.506 502.5,484.5C 501.167,484.5 499.833,484.5 498.5,484.5C 498.666,492.507 498.5,500.507 498,508.5C 495.192,512.386 492.526,512.386 490,508.5C 489.5,500.507 489.334,492.507 489.5,484.5C 487.833,484.5 486.167,484.5 484.5,484.5C 484.334,492.174 484.5,499.841 485,507.5C 485.256,512.054 487.422,515.054 491.5,516.5C 481.833,517.833 472.167,517.833 462.5,516.5C 466.584,514.908 469.084,511.908 470,507.5C 470.667,502.5 470.667,497.5 470,492.5C 467.451,485.642 462.617,483.142 455.5,485C 453.083,486.663 451.25,488.829 450,491.5C 449.333,497.167 449.333,502.833 450,508.5C 450.983,512.648 453.483,515.314 457.5,516.5C 442.167,517.167 426.833,517.833 411.5,518.5C 411.167,518.5 410.833,518.5 410.5,518.5C 409.339,504.673 409.173,490.673 410,476.5C 410.5,476 411,475.5 411.5,475C 489.502,474.167 567.502,474.333 645.5,475.5C 646.483,489.785 646.816,504.118 646.5,518.5 Z"/></g>
<g><path style="opacity:1" fill="#3a3433" d="M 416.5,485.5 C 418.265,484.539 420.265,484.205 422.5,484.5C 423.498,488.658 424.998,492.658 427,496.5C 428.667,492.833 430.333,489.167 432,485.5C 433.726,484.424 435.559,484.257 437.5,485C 434.871,490.425 432.371,495.925 430,501.5C 429.501,506.489 429.334,511.489 429.5,516.5C 427.833,516.5 426.167,516.5 424.5,516.5C 424.666,511.489 424.499,506.489 424,501.5C 421.725,495.955 419.225,490.622 416.5,485.5 Z"/></g>
<g><path style="opacity:1" fill="#37302f" d="M 462.5,516.5 C 460.833,516.5 459.167,516.5 457.5,516.5C 453.483,515.314 450.983,512.648 450,508.5C 449.333,502.833 449.333,497.167 450,491.5C 451.25,488.829 453.083,486.663 455.5,485C 462.617,483.142 467.451,485.642 470,492.5C 470.667,497.5 470.667,502.5 470,507.5C 469.084,511.908 466.584,514.908 462.5,516.5 Z"/></g>
<g><path style="opacity:1" fill="#383130" d="M 496.5,516.5 C 494.833,516.5 493.167,516.5 491.5,516.5C 487.422,515.054 485.256,512.054 485,507.5C 484.5,499.841 484.334,492.174 484.5,484.5C 486.167,484.5 487.833,484.5 489.5,484.5C 489.334,492.507 489.5,500.507 490,508.5C 492.526,512.386 495.192,512.386 498,508.5C 498.5,500.507 498.666,492.507 498.5,484.5C 499.833,484.5 501.167,484.5 502.5,484.5C 502.666,493.506 502.5,502.506 502,511.5C 500.924,514.079 499.091,515.746 496.5,516.5 Z"/></g>
<g><path style="opacity:1" fill="#3a3433" d="M 517.5,484.5 C 521.846,484.334 526.179,484.501 530.5,485C 535.906,486.98 537.739,490.814 536,496.5C 534.833,499 533,500.833 530.5,502C 533.883,506.308 536.216,511.142 537.5,516.5C 535.712,516.785 534.045,516.452 532.5,515.5C 530.667,511.833 528.833,508.167 527,504.5C 525.89,502.963 524.39,502.297 522.5,502.5C 522.5,507.167 522.5,511.833 522.5,516.5C 520.833,516.5 519.167,516.5 517.5,516.5C 517.5,505.833 517.5,495.167 517.5,484.5 Z"/></g>
<g><path style="opacity:1" fill="#373130" d="M 574.5,516.5 C 572.833,516.5 571.167,516.5 569.5,516.5C 564.929,514.378 562.595,510.711 562.5,505.5C 564.167,505.5 565.833,505.5 567.5,505.5C 567.472,507.582 568.139,509.416 569.5,511C 575.999,511.852 577.666,509.519 574.5,504C 570.793,503.064 567.626,501.231 565,498.5C 562.446,493.322 563.279,488.822 567.5,485C 575.365,482.745 579.365,485.579 579.5,493.5C 576.503,492.859 573.837,491.525 571.5,489.5C 566.692,490.955 566.359,493.121 570.5,496C 579.431,497.603 582.598,502.77 580,511.5C 578.924,514.079 577.091,515.746 574.5,516.5 Z"/></g>
<g><path style="opacity:1" fill="#393332" d="M 594.5,484.5 C 609.741,481.235 614.907,486.902 610,501.5C 607.103,504.231 603.603,505.231 599.5,504.5C 599.5,508.5 599.5,512.5 599.5,516.5C 597.833,516.5 596.167,516.5 594.5,516.5C 594.5,505.833 594.5,495.167 594.5,484.5 Z"/></g>
<g><path style="opacity:1" fill="#37302f" d="M 640.5,501.5 C 636.5,501.5 632.5,501.5 628.5,501.5C 628.5,504.833 628.5,508.167 628.5,511.5C 632.833,511.5 637.167,511.5 641.5,511.5C 641.5,513.167 641.5,514.833 641.5,516.5C 635.833,516.5 630.167,516.5 624.5,516.5C 624.5,505.833 624.5,495.167 624.5,484.5C 630.167,484.5 635.833,484.5 641.5,484.5C 641.5,486.167 641.5,487.833 641.5,489.5C 637.5,489.5 633.5,489.5 629.5,489.5C 629.5,491.833 629.5,494.167 629.5,496.5C 633.167,496.5 636.833,496.5 640.5,496.5C 640.5,498.167 640.5,499.833 640.5,501.5 Z"/></g>
<g><path style="opacity:1" fill="#392e2a" d="M 654.5,484.5 C 660.167,484.5 665.833,484.5 671.5,484.5C 671.5,486.167 671.5,487.833 671.5,489.5C 667.5,489.5 663.5,489.5 659.5,489.5C 659.5,491.833 659.5,494.167 659.5,496.5C 663.167,496.5 666.833,496.5 670.5,496.5C 670.5,498.167 670.5,499.833 670.5,501.5C 666.833,501.5 663.167,501.5 659.5,501.5C 659.5,504.833 659.5,508.167 659.5,511.5C 663.5,511.5 667.5,511.5 671.5,511.5C 671.5,513.167 671.5,514.833 671.5,516.5C 665.833,516.5 660.167,516.5 654.5,516.5C 654.5,505.833 654.5,495.167 654.5,484.5 Z"/></g>
<g><path style="opacity:0.941" fill="#322b2a" d="M 685.5,484.5 C 699.252,481.419 705.919,486.919 705.5,501C 705.43,514.563 698.763,519.73 685.5,516.5C 685.5,505.833 685.5,495.167 685.5,484.5 Z M 690.5,490.5 C 697.697,490.096 700.697,493.596 699.5,501C 700.354,507.977 697.354,511.143 690.5,510.5C 690.5,503.833 690.5,497.167 690.5,490.5 Z"/></g>
<g><path style="opacity:1" fill="#c1c2c2" d="M 457.5,489.5 C 463.675,489.794 466.675,493.128 466.5,499.5C 466.292,502.998 465.459,506.331 464,509.5C 458.914,512.887 455.58,511.553 454,505.5C 452.52,499.451 453.686,494.118 457.5,489.5 Z"/></g>
<g><path style="opacity:1" fill="#c5c5c5" d="M 522.5,490.5 C 525.187,490.336 527.854,490.503 530.5,491C 531.833,493 531.833,495 530.5,497C 527.854,497.497 525.187,497.664 522.5,497.5C 522.5,495.167 522.5,492.833 522.5,490.5 Z"/></g>
<g><path style="opacity:1" fill="#b9baba" d="M 599.5,489.5 C 607.284,488.926 609.284,491.926 605.5,498.5C 603.591,499.348 601.591,499.682 599.5,499.5C 599.5,496.167 599.5,492.833 599.5,489.5 Z"/></g>
<g><path style="opacity:1" fill="#656060" d="M 640.5,501.5 C 637.038,502.482 633.371,502.815 629.5,502.5C 629.5,505.167 629.5,507.833 629.5,510.5C 633.702,510.183 637.702,510.517 641.5,511.5C 637.167,511.5 632.833,511.5 628.5,511.5C 628.5,508.167 628.5,504.833 628.5,501.5C 632.5,501.5 636.5,501.5 640.5,501.5 Z"/></g>
<g><path style="opacity:1" fill="#8d8b8a" d="M 457.5,516.5 C 459.167,516.5 460.833,516.5 462.5,516.5C 472.167,517.833 481.833,517.833 491.5,516.5C 493.167,516.5 494.833,516.5 496.5,516.5C 520.833,517.833 545.167,517.833 569.5,516.5C 571.167,516.5 572.833,516.5 574.5,516.5C 598.167,517.167 621.833,517.833 645.5,518.5C 567.5,518.5 489.5,518.5 411.5,518.5C 426.833,517.833 442.167,517.167 457.5,516.5 Z"/></g>
<g><path style="opacity:0.998" fill="#332c2a" d="M 410.5,518.5 C 410.833,518.5 411.167,518.5 411.5,518.5C 489.5,518.5 567.5,518.5 645.5,518.5C 645.833,518.5 646.167,518.5 646.5,518.5C 646.5,586.5 646.5,654.5 646.5,722.5C 567.833,722.5 489.167,722.5 410.5,722.5C 410.5,654.5 410.5,586.5 410.5,518.5 Z"/></g>
<g><path style="opacity:1" fill="#ed8319" d="M 523.5,535.5 C 523.5,541.167 523.5,546.833 523.5,552.5C 502.327,552.169 481.327,552.503 460.5,553.5C 460.5,565.833 460.5,578.167 460.5,590.5C 479.877,585.292 498.21,587.792 515.5,598C 535.412,616.207 540.579,638.04 531,663.5C 523.335,679.813 510.502,689.313 492.5,692C 473.067,695.132 454.067,693.466 435.5,687C 434.521,680.256 434.188,673.422 434.5,666.5C 443.461,670.43 452.794,673.264 462.5,675C 478.74,678.147 493.24,674.647 506,664.5C 516.355,649.91 517.022,634.91 508,619.5C 498.505,609.178 486.672,604.511 472.5,605.5C 461.775,606.178 451.441,608.511 441.5,612.5C 441.5,586.833 441.5,561.167 441.5,535.5C 468.833,535.5 496.167,535.5 523.5,535.5 Z"/></g>
<g><path style="opacity:1" fill="#ed8319" d="M 629.5,535.5 C 629.5,541.167 629.5,546.833 629.5,552.5C 608.327,552.169 587.327,552.503 566.5,553.5C 566.5,565.833 566.5,578.167 566.5,590.5C 585.877,585.292 604.21,587.792 621.5,598C 641.412,616.207 646.579,638.04 637,663.5C 629.335,679.813 616.502,689.313 598.5,692C 579.067,695.132 560.067,693.466 541.5,687C 540.521,680.256 540.188,673.422 540.5,666.5C 549.461,670.43 558.794,673.264 568.5,675C 584.74,678.147 599.24,674.647 612,664.5C 622.355,649.91 623.022,634.91 614,619.5C 604.505,609.178 592.672,604.511 578.5,605.5C 567.775,606.178 557.441,608.511 547.5,612.5C 547.5,586.833 547.5,561.167 547.5,535.5C 574.833,535.5 602.167,535.5 629.5,535.5 Z"/></g>
<g><path style="opacity:1" fill="#a06021" d="M 523.5,535.5 C 524.49,541.31 524.823,547.31 524.5,553.5C 503.167,553.5 481.833,553.5 460.5,553.5C 481.327,552.503 502.327,552.169 523.5,552.5C 523.5,546.833 523.5,541.167 523.5,535.5 Z"/></g>
<g><path style="opacity:1" fill="#a06021" d="M 629.5,535.5 C 630.49,541.31 630.823,547.31 630.5,553.5C 609.167,553.5 587.833,553.5 566.5,553.5C 587.327,552.503 608.327,552.169 629.5,552.5C 629.5,546.833 629.5,541.167 629.5,535.5 Z"/></g>
<g><path style="opacity:0.982" fill="#f5b371" d="M 642.5,823.5 C 571.5,823.5 500.5,823.5 429.5,823.5C 429.759,819.76 429.426,816.094 428.5,812.5C 500.164,811.5 571.83,811.167 643.5,811.5C 643.354,815.519 643.021,819.519 642.5,823.5 Z"/></g>
<g><path style="opacity:0.988" fill="#474443" d="M 367.5,869.5 C 367.5,878.167 367.5,886.833 367.5,895.5C 366.167,901.833 366.167,908.167 367.5,914.5C 367.786,920.259 367.452,925.925 366.5,931.5C 365.167,931.833 363.833,932.167 362.5,932.5C 361.833,932.833 361.167,933.167 360.5,933.5C 360.5,931.833 360.5,930.167 360.5,928.5C 342.83,928.822 325.164,929.322 307.5,930C 306.663,931.011 306.33,932.178 306.5,933.5C 304.521,931.832 302.188,931.166 299.5,931.5C 300.292,925.87 300.625,920.203 300.5,914.5C 301.491,908.021 301.824,901.354 301.5,894.5C 301.357,872.259 303.524,850.259 308,828.5C 308.833,826.333 310.333,824.833 312.5,824C 328.346,823.763 344.18,823.263 360,822.5C 363.441,822.313 366.441,823.313 369,825.5C 369.235,832.862 369.735,840.195 370.5,847.5C 367.709,854.469 366.709,861.803 367.5,869.5 Z"/></g>
<g><path style="opacity:0.999" fill="#f08519" d="M 429.5,823.5 C 500.5,823.5 571.5,823.5 642.5,823.5C 642.5,838.5 642.5,853.5 642.5,868.5C 642.5,876.833 642.5,885.167 642.5,893.5C 571.833,893.5 501.167,893.5 430.5,893.5C 430.826,885.316 430.492,877.316 429.5,869.5C 429.5,854.167 429.5,838.833 429.5,823.5 Z"/></g>
<g><path style="opacity:0.988" fill="#474443" d="M 759.5,894.5 C 759.5,901.167 759.5,907.833 759.5,914.5C 760.452,920.075 760.786,925.741 760.5,931.5C 757.607,931.031 755.607,932.031 754.5,934.5C 753.566,933.432 753.232,932.099 753.5,930.5C 735.854,929.45 718.187,928.783 700.5,928.5C 700.664,931.187 700.497,933.854 700,936.5C 699.51,935.207 699.343,933.873 699.5,932.5C 697.435,932.483 695.435,932.15 693.5,931.5C 693.5,925.833 693.5,920.167 693.5,914.5C 693.5,908.5 693.5,902.5 693.5,896.5C 693.5,896.167 693.5,895.833 693.5,895.5C 693.827,886.318 693.493,877.318 692.5,868.5C 692.577,858.397 691.91,848.397 690.5,838.5C 690.667,834.5 690.833,830.5 691,826.5C 693.229,823.554 696.229,822.221 700,822.5C 715.82,823.263 731.654,823.763 747.5,824C 751.895,826.473 754.062,830.306 754,835.5C 757.065,855.053 758.899,874.72 759.5,894.5 Z"/></g>
<g><path style="opacity:1" fill="#9f9d9d" d="M 313.5,846.5 C 327.906,846.051 342.239,846.551 356.5,848C 363.357,855.338 363.023,862.338 355.5,869C 341.167,869.667 326.833,869.667 312.5,869C 308.069,866.738 306.069,863.071 306.5,858C 306.586,852.758 308.919,848.924 313.5,846.5 Z"/></g>
<g><path style="opacity:1" fill="#9e9c9c" d="M 706.5,846.5 C 719.837,846.333 733.171,846.5 746.5,847C 752.823,849.811 755.323,854.645 754,861.5C 752.939,864.562 751.106,867.062 748.5,869C 733.833,869.667 719.167,869.667 704.5,869C 698.836,863.221 698.003,856.721 702,849.5C 703.652,848.601 705.152,847.601 706.5,846.5 Z"/></g>
<g><path style="opacity:1" fill="#e3272d" d="M 316.5,849.5 C 327.838,849.333 339.172,849.5 350.5,850C 355.869,851.578 358.035,855.078 357,860.5C 355.833,863 354,864.833 351.5,866C 339.5,866.667 327.5,866.667 315.5,866C 310.931,863.459 309.431,859.625 311,854.5C 312.73,852.598 314.563,850.931 316.5,849.5 Z"/></g>
<g><path style="opacity:1" fill="#e3282d" d="M 709.5,849.5 C 720.838,849.333 732.172,849.5 743.5,850C 748.869,851.578 751.035,855.078 750,860.5C 748.833,863 747,864.833 744.5,866C 732.5,866.667 720.5,866.667 708.5,866C 703.931,863.459 702.431,859.625 704,854.5C 705.73,852.598 707.563,850.931 709.5,849.5 Z"/></g>
<g><path style="opacity:0.958" fill="#b9b79b" d="M 274.5,894.5 C 273.18,901.055 272.513,907.722 272.5,914.5C 269.227,955.172 265.893,995.838 262.5,1036.5C 261.532,1038.61 261.198,1040.94 261.5,1043.5C 257.466,1043.5 253.466,1043.16 249.5,1042.5C 249.5,1040.5 249.5,1038.5 249.5,1036.5C 252.893,995.838 256.227,955.172 259.5,914.5C 260.936,908.053 261.603,901.386 261.5,894.5C 262.714,880.148 264.047,865.815 265.5,851.5C 269.833,851.5 274.167,851.5 278.5,851.5C 277.002,865.809 275.669,880.142 274.5,894.5 Z"/></g>
<g><path style="opacity:0.962" fill="#b9b79b" d="M 799.5,894.5 C 799.735,901.354 800.402,908.021 801.5,914.5C 804.944,955.158 808.277,995.824 811.5,1036.5C 811.5,1038.5 811.5,1040.5 811.5,1042.5C 807.519,1043.02 803.519,1043.35 799.5,1043.5C 799.802,1040.94 799.468,1038.61 798.5,1036.5C 795.277,995.824 791.944,955.158 788.5,914.5C 788.603,907.614 787.936,900.947 786.5,894.5C 785.553,880.249 784.22,866.082 782.5,852C 784.667,851.833 786.833,851.667 789,851.5C 791.625,851.581 793.959,852.248 796,853.5C 797.222,867.168 798.389,880.835 799.5,894.5 Z"/></g>
<g><path style="opacity:0.987" fill="#f5b370" d="M 642.5,868.5 C 645.5,868.5 648.5,868.5 651.5,868.5C 652.483,872.298 652.817,876.298 652.5,880.5C 660.5,880.5 668.5,880.5 676.5,880.5C 676.5,876.5 676.5,872.5 676.5,868.5C 681.833,868.5 687.167,868.5 692.5,868.5C 693.493,877.318 693.827,886.318 693.5,895.5C 584.833,895.5 476.167,895.5 367.5,895.5C 367.5,886.833 367.5,878.167 367.5,869.5C 371.5,869.5 375.5,869.5 379.5,869.5C 379.5,873.167 379.5,876.833 379.5,880.5C 387.5,880.5 395.5,880.5 403.5,880.5C 403.244,876.731 403.577,873.064 404.5,869.5C 412.833,869.5 421.167,869.5 429.5,869.5C 430.492,877.316 430.826,885.316 430.5,893.5C 501.167,893.5 571.833,893.5 642.5,893.5C 642.5,885.167 642.5,876.833 642.5,868.5 Z"/></g>
<g><path style="opacity:0.966" fill="#ee841a" d="M 274.5,894.5 C 283.5,894.5 292.5,894.5 301.5,894.5C 301.824,901.354 301.491,908.021 300.5,914.5C 291.167,914.5 281.833,914.5 272.5,914.5C 272.513,907.722 273.18,901.055 274.5,894.5 Z"/></g>
<g><path style="opacity:0.967" fill="#ef8519" d="M 759.5,894.5 C 768.5,894.5 777.5,894.5 786.5,894.5C 787.936,900.947 788.603,907.614 788.5,914.5C 778.833,914.5 769.167,914.5 759.5,914.5C 759.5,907.833 759.5,901.167 759.5,894.5 Z"/></g>
<g><path style="opacity:1" fill="#ee902f" d="M 367.5,895.5 C 476.167,895.5 584.833,895.5 693.5,895.5C 693.5,895.833 693.5,896.167 693.5,896.5C 584.833,896.5 476.167,896.5 367.5,896.5C 367.5,902.5 367.5,908.5 367.5,914.5C 366.167,908.167 366.167,901.833 367.5,895.5 Z"/></g>
<g><path style="opacity:0.994" fill="#ef8519" d="M 693.5,896.5 C 693.5,902.5 693.5,908.5 693.5,914.5C 584.833,914.5 476.167,914.5 367.5,914.5C 367.5,908.5 367.5,902.5 367.5,896.5C 476.167,896.5 584.833,896.5 693.5,896.5 Z"/></g>
<g><path style="opacity:0.744" fill="#ef861b" d="M 261.5,894.5 C 261.603,901.386 260.936,908.053 259.5,914.5C 258.876,914.083 258.543,913.416 258.5,912.5C 259.111,906.299 260.111,900.299 261.5,894.5 Z"/></g>
<g><path style="opacity:0.559" fill="#ee881d" d="M 799.5,894.5 C 800.794,896.048 801.461,898.048 801.5,900.5C 802.377,905.342 802.377,910.009 801.5,914.5C 800.402,908.021 799.735,901.354 799.5,894.5 Z"/></g>
<g><path style="opacity:0.994" fill="#332c2b" d="M 360.5,933.5 C 360.372,955.507 359.872,977.507 359,999.5C 354.497,1027.33 339.664,1034.83 314.5,1022C 311.433,1018.7 309.267,1014.87 308,1010.5C 306.067,997.578 305.233,984.578 305.5,971.5C 305.718,958.827 306.051,946.161 306.5,933.5C 306.33,932.178 306.663,931.011 307.5,930C 325.164,929.322 342.83,928.822 360.5,928.5C 360.5,930.167 360.5,931.833 360.5,933.5 Z"/></g>
<g><path style="opacity:0.993" fill="#322c2b" d="M 754.5,934.5 C 754.918,958.864 754.418,983.198 753,1007.5C 751.359,1017.81 745.525,1024.31 735.5,1027C 720.224,1031.15 709.724,1025.98 704,1011.5C 702.274,1005.96 701.274,1000.3 701,994.5C 700.748,976.816 700.248,959.15 699.5,941.5C 587.167,941.5 474.833,941.5 362.5,941.5C 362.5,938.5 362.5,935.5 362.5,932.5C 363.833,932.167 365.167,931.833 366.5,931.5C 475.5,931.5 584.5,931.5 693.5,931.5C 695.435,932.15 697.435,932.483 699.5,932.5C 699.343,933.873 699.51,935.207 700,936.5C 700.497,933.854 700.664,931.187 700.5,928.5C 718.187,928.783 735.854,929.45 753.5,930.5C 753.232,932.099 753.566,933.432 754.5,934.5 Z"/></g>
<g><path style="opacity:0.897" fill="#999880" d="M 249.5,1036.5 C 249.5,1038.5 249.5,1040.5 249.5,1042.5C 253.466,1043.16 257.466,1043.5 261.5,1043.5C 261.198,1040.94 261.532,1038.61 262.5,1036.5C 277.632,1036.37 278.466,1040.04 265,1047.5C 257.202,1046.71 249.369,1046.21 241.5,1046C 238.843,1043.84 237.51,1041.34 237.5,1038.5C 238.025,1037.81 238.692,1037.31 239.5,1037C 242.817,1036.5 246.15,1036.33 249.5,1036.5 Z"/></g>
<g><path style="opacity:0.886" fill="#999880" d="M 798.5,1036.5 C 799.468,1038.61 799.802,1040.94 799.5,1043.5C 803.519,1043.35 807.519,1043.02 811.5,1042.5C 811.5,1040.5 811.5,1038.5 811.5,1036.5C 815.911,1036.02 820.078,1036.69 824,1038.5C 823.879,1041.66 822.379,1044.16 819.5,1046C 811.631,1046.21 803.798,1046.71 796,1047.5C 782.769,1039.84 783.603,1036.17 798.5,1036.5 Z"/></g>
</svg>
