<svg clip-rule="evenodd" fill-rule="evenodd" height="29.7cm" image-rendering="optimizeQuality"
    shape-rendering="geometricPrecision" text-rendering="geometricPrecision"
    viewBox="0 0 29700 29700" width="29.7cm" xmlns="http://www.w3.org/2000/svg">
    <g stroke-miterlimit="22.9256">
        <g stroke-width="20">
            <path d="m11546 815h6423v373h-6423z" fill="#b6b6b7" stroke="#b6b6b7" />
            <rect fill="#a1a1a1" height="3238" rx="313" ry="310" stroke="#a1a1a1" width="6543"
                x="11470" y="989" />
            <path d="m11094 522h7299v294h-7299z" fill="#332c2b" stroke="#332c2b" />
            <rect fill="#dcdddd" height="8724" rx="435" stroke="#dcdddd" width="6527" x="11502"
                y="4408" />
            <rect fill="#c9caca" height="3122" rx="175" ry="177" stroke="#c9caca" width="2571"
                x="12079" y="9335" />
            <rect fill="#c9caca" height="3122" rx="175" ry="177" stroke="#c9caca" width="2571"
                x="14777" y="9335" />
            <rect fill="#eeeeef" height="1267" rx="120" stroke="#eeeeef" width="6559" x="11544"
                y="13647" />
            <circle cx="12044" cy="665" fill="#eeeeef" r="72" stroke="#eeeeef" />
            <circle cx="17463" cy="665" fill="#eeeeef" r="72" stroke="#eeeeef" />
            <circle cx="13130" cy="682" fill="#eeeeef" r="38" stroke="#eeeeef" />
            <circle cx="14211" cy="682" fill="#eeeeef" r="38" stroke="#eeeeef" />
            <circle cx="15299" cy="682" fill="#eeeeef" r="38" stroke="#eeeeef" />
            <circle cx="16376" cy="682" fill="#eeeeef" r="38" stroke="#eeeeef" />
            <circle cx="12209" cy="1707" fill="#eeeeef" r="54" stroke="#eeeeef" />
            <circle cx="17295" cy="1707" fill="#eeeeef" r="54" stroke="#eeeeef" />
            <circle cx="17295" cy="3510" fill="#eeeeef" r="54" stroke="#eeeeef" />
            <circle cx="12209" cy="3510" fill="#eeeeef" r="54" stroke="#eeeeef" />
            <circle cx="12906" cy="4968" fill="#eeeeef" r="54" stroke="#eeeeef" />
            <circle cx="16609" cy="4968" fill="#eeeeef" r="54" stroke="#eeeeef" />
            <circle cx="13324" cy="9412" fill="#eeeeef" r="54" stroke="#eeeeef" />
            <circle cx="16087" cy="9412" fill="#eeeeef" r="54" stroke="#eeeeef" />
            <circle cx="16087" cy="12316" fill="#eeeeef" r="54" stroke="#eeeeef" />
            <circle cx="13379" cy="12316" fill="#eeeeef" r="54" stroke="#eeeeef" />
            <circle cx="11636" cy="14218" fill="#fefefe" r="49" stroke="#fefefe" />
            <circle cx="11631" cy="14756" fill="#fefefe" r="49" stroke="#fefefe" />
            <circle cx="14834" cy="14207" fill="#fefefe" r="49" stroke="#fefefe" />
            <circle cx="18022" cy="14185" fill="#fefefe" r="49" stroke="#fefefe" />
            <circle cx="18027" cy="14751" fill="#fefefe" r="49" stroke="#fefefe" />
            <path d="m11174 24638 922-10 6899-34 11 528 359-6 55 130-9131 35-4-120 413-15-10-503z"
                fill="#eeeeef" stroke="#eeeeef" />
            <path d="m11324 14156h113v237h-113z" fill="#eeeeef" stroke="#eeeeef" />
            <path d="m11373 14392h7v5738h-7z" fill="#5f5d5d" stroke="#5f5d5d" />
            <path d="m11142 20149h718v1319h-718z" fill="#c9caca" stroke="#c9caca" />
            <path d="m11142 20359h642v1110h-642z" fill="#dcdddd" stroke="#dcdddd" />
            <path d="m11524 13075h6490v354h-6490z" fill="#b6b6b7" stroke="#b6b6b7" />
            <path d="m10660 21034h134v119l-195-2v-112z" fill="#a1a1a1" stroke="#a1a1a1" />
            <path d="m10812 11371 199-3 49-10117-147 3z" fill="#c9caca" stroke="#c9caca" />
            <path d="m11139 985 345-5 44 13165-346-5z" fill="#c9caca" stroke="#c9caca" />
            <path d="m10804 21143h340l-28-9760-340 4z" fill="#c9caca" stroke="#c9caca" />
            <path d="m10780 15484h870v310h-870z" fill="#c9caca" stroke="#c9caca" />
            <path d="m10791 17834h838v315h-838z" fill="#c9caca" stroke="#c9caca" />
            <path d="m10796 21168h359v3731h-359z" fill="#c9caca" stroke="#c9caca" />
            <path d="m11101 15957h413v354h-413z" fill="#c9caca" stroke="#c9caca" />
            <path d="m11085 14500h482v365h-482z" fill="#c9caca" stroke="#c9caca" />
            <path d="m18744 11371-198-3-49-10117 147 3z" fill="#c9caca" stroke="#c9caca" />
            <path d="m18418 985-345-5-44 13165 345-5z" fill="#c9caca" stroke="#c9caca" />
            <path d="m18752 21143h-340l29-9760 340 4z" fill="#c9caca" stroke="#c9caca" />
            <path d="m17906 15484h870v310h-870z" fill="#c9caca" stroke="#c9caca" />
            <path d="m17928 17834h838v315h-838z" fill="#c9caca" stroke="#c9caca" />
            <path d="m18401 21168h359v3731h-359z" fill="#c9caca" stroke="#c9caca" />
            <path d="m18042 15957h413v354h-413z" fill="#c9caca" stroke="#c9caca" />
            <path d="m17990 14500h482v365h-482z" fill="#c9caca" stroke="#c9caca" />
            <path d="m14599 25693h625v296h-625z" fill="#757475" stroke="#757475" />
            <path d="m14713 25954h98v326h-98z" fill="#757475" stroke="#757475" />
            <path d="m11567 14865h6547v5684h-6547z" fill="#332c2b" stroke="#332c2b" />
            <path d="m10466 19193h63l5 77-96-1-4-72z" fill="#a1a1a1" stroke="#a1a1a1" />
            <path d="m9803 19145 343-30 295 17 4 171-299 28-342-17z" fill="#332c2b"
                stroke="#332c2b" />
        </g>
        <path d="m10465 19155 31-1-23 1127 223 734v196" fill="none" stroke="#474443"
            stroke-width="50" />
        <path d="m12059 23071 33 261 5868-35-5-264z" fill="#eeeeef" stroke="#eeeeef"
            stroke-width="20" />
        <path d="m12084 23506 8-174 5868-35-5 177z" fill="#dcdddd" stroke="#dcdddd"
            stroke-width="20" />
        <path d="m7765 25290 14185-54 22 544-14234 56z" fill="#b6b6b7" stroke="#b6b6b7"
            stroke-width="20" />
        <path d="m12084 23506 18 1693 5819 6-9-1731z" fill="#b6b6b7" stroke="#b6b6b7"
            stroke-width="20" />
        <path d="m10796 24899 8050-26 5 333-8057-9z" fill="#a1a1a1" stroke="#a1a1a1"
            stroke-width="20" />
        <path d="m10090 26299h9550v270h-9550z" fill="#332c2b" stroke="#332c2b" stroke-width="20" />
    </g>
    <path d="m10292 23389s70-15 70 260-5 405-5 405h188s166 11 163 201 4 387 4 387l-638 15 219-1269z"
        fill="#a1a1a1" />
    <path d="m10301 24213 247-3s133 8 133 166l16 770-470 16 22-957z" fill="#c9caca" />
    <path
        d="m8637 26302s-38 1496-16 1844c26 558 195 899 820 847 503-42 604-384 627-828 21-562 44-1165 28-1724-2-81-5-173-18-253z"
        fill="#757475" />
    <path
        d="m8463 26324s44-1980 141-2513c0 0 33-424 267-441l71 16h990l65-22 245-11s82 11 76 152c0 0-60 974-49 1708l16 1137-125 5s-82-11-92 131c0 0-5 54-98 54l-1213-16s-76 11-103-71l-33-71s16-38-71-49l-87-11z"
        fill="#474443" />
    <rect fill="#757475" height="674" rx="337" width="1517" x="8638" y="23980" />
    <rect fill="#dcdddd" height="419" rx="279" ry="209" width="1256" x="8751" y="24105" />
    <path
        d="m19397 23389s-70-15-70 260 5 405 5 405h-188s-166 11-163 201-4 387-4 387l638 15-219-1269z"
        fill="#a1a1a1" />
    <path d="m19387 24213-247-3s-133 8-133 166l-16 770 470 16-22-957z" fill="#c9caca" />
    <path
        d="m21051 26302s38 1496 16 1844c-34 560-217 925-850 852-652-75-605-826-613-1317-12-432-32-926-8-1355 3-47 6-92 14-139l1441 114z"
        fill="#757475" />
    <path
        d="m21226 26324s-44-1980-141-2513c0 0-33-424-267-441l-71 16h-990l-65-22-245-11s-82 11-76 152c0 0 60 974 49 1708l-16 1137 125 5s82-11 92 131c0 0 5 54 98 54l1213-16s76 11 103-71l33-71s-16-38 71-49l87-11z"
        fill="#474443" />
    <rect fill="#757475" height="674" rx="337" width="1517" x="19534" y="23980" />
    <rect fill="#eeeeef" height="419" rx="279" ry="209" width="1256" x="19681" y="24105" />
    <path
        d="m7021 29289-177-3s-28-7-85 30c0 0-80 29-27 73l115 122 621 19s94-19 144-83l88-113s15-37-57-38l-623-7z"
        fill="#757475" />
    <path d="m7495 24158-61 689-407 4576 261 10 479-5286z" fill="#c9caca" />
    <path d="m7384 29390-96 43 478-5281 65 4z" fill="#8b8b8c" />
    <path d="m6847 29370s-73 45 24 60l741 18" fill="none" />
    <path d="m7387 24853 315 13 96-5-88 1120-112 33-293-29z" fill="#dcdddd" />
    <path
        d="m22753 29289 177-3s28-7 85 30c0 0 80 29 27 73l-115 122-621 19s-94-19-144-83l-88-113s-15-37 57-38l623-7z"
        fill="#757475" />
    <path d="m22280 24158 61 689 406 4576-261 10-478-5286z" fill="#c9caca" />
    <path d="m22391 29390 95 43-478-5281-64 4z" fill="#8b8b8c" />
    <path d="m22927 29370s73 45-24 60l-741 18" fill="none" />
    <path d="m22387 24853-314 13-97-5 88 1120 113 33 293-29z" fill="#dcdddd" />
    <path
        d="m18114 18278s859 239 924-500c65-740 16-1114 16-1114s-11-704-103-938-64-1209-64-1209l-11-2230s11-163-163-468 19-944-87-1262-239 92-196-1545c44-1637 3-5752 3-5752"
        fill="none" stroke="#332c2b" stroke-miterlimit="22.9256" stroke-width="100" />
</svg>