<svg xmlns="http://www.w3.org/2000/svg"
    width="18dp"
    height="18dp"
    viewBox="0 0 18 18">
    <path
        fill="#FF000000"
        d="M9,0a9,9 0,1 0,9 9A9,9 0,0 0,9 0ZM8.32,1.69a0.68,0.68 0,1 1,1.36 0L9.68,2.84a0.68,0.68 0,0 1,-1.36 0ZM2.84,9.69L1.69,9.69a0.68,0.68 0,1 1,0 -1.36L2.84,8.33a0.68,0.68 0,1 1,0 1.36ZM9.68,16.32a0.68,0.68 0,0 1,-1.36 0L8.32,15.16a0.68,0.68 0,0 1,1.36 0ZM12.08,12.07a0.7,0.7 0,0 1,-0.5 0.22,0.66 0.66,0 0,1 -0.44,-0.16L9.07,10.29L9,10.29A1.29,1.29 0,0 1,8.18 8l0.17,-3.44A0.67,0.67 0,0 1,9 3.93a0.65,0.65 0,0 1,0.64 0.63L9.79,8a1.27,1.27 0,0 1,0.5 1l1.85,2.11A0.7,0.7 0,0 1,12.08 12.06ZM16.31,9.69L15.16,9.69a0.68,0.68 0,0 1,0 -1.36h1.15a0.68,0.68 0,0 1,0 1.36Z"/>
</svg>
