<svg xmlns="http://www.w3.org/2000/svg"
    width="19.04dp"
    height="19.04dp"
    viewBox="0 0 19.04 19.04">
    <path
        d="M16.87,9.52h0a0.31,0.31 0,0 1,-0.31 0.31h-0.39a0.31,0.31 0,0 1,-0.31 -0.31h0a0.31,0.31 0,0 1,0.31 -0.31h0.39A0.31,0.31 0,0 1,16.87 9.52Z"
        fill="#808080"/>
    <path
        d="M3.17,9.52h0a0.31,0.31 0,0 1,-0.31 0.31h-0.4a0.31,0.31 0,0 1,-0.31 -0.31h0a0.31,0.31 0,0 1,0.31 -0.31h0.4A0.31,0.31 0,0 1,3.17 9.52Z"
        fill="#808080"/>
    <path
        d="M9.52,2.17h0a0.31,0.31 0,0 1,0.31 0.31v0.4a0.31,0.31 0,0 1,-0.31 0.31h0a0.31,0.31 0,0 1,-0.31 -0.31v-0.4A0.31,0.31 0,0 1,9.52 2.17Z"
        fill="#808080"/>
    <path
        d="M9.52,15.87h0a0.31,0.31 0,0 1,0.31 0.31v0.39a0.31,0.31 0,0 1,-0.31 0.31h0a0.31,0.31 0,0 1,-0.31 -0.31v-0.4A0.31,0.31 0,0 1,9.52 15.87Z"
        fill="#808080"/>
    <path
        d="M9.52,0A9.52,9.52 0,1 0,19 9.52,9.52 9.52,0 0,0 9.52,0ZM9.52,17.19a7.66,7.66 0,1 1,7.66 -7.66,7.67 7.67,0 0,1 -7.66,7.66Z"
        fill="#808080"/>
    <path
        d="M10.68,9.58V9.52a1.17,1.17 0,0 0,-0.52 -1L10,4.84a0.5,0.5 0,0 0,-0.48 -0.48A0.5,0.5 0,0 0,9 4.84l-0.2,3.73a1.16,1.16 0,0 0,-0.49 0.95,1.17 1.17,0 0,0 1.17,1.17h0.14l2.25,2a0.54,0.54 0,0 0,0.73 -0.05,0.53 0.53,0 0,0 0,-0.73Z"
        fill="#808080"/>
</svg>
