<svg xmlns="http://www.w3.org/2000/svg"
	width="18.6dp"
	height="18.6dp"
	viewBox="0 0 18.6 18.6">
	<path
		d="M16.5,9.3L16.5,9.3c0,0.2 -0.1,0.3 -0.3,0.3h-0.4c-0.2,0 -0.3,-0.1 -0.3,-0.3l0,0c0,-0.2 0.1,-0.3 0.3,-0.3h0.4C16.3,9 16.5,9.1 16.5,9.3zM2.8,9H2.4C2.2,9 2.1,9.1 2.1,9.3l0,0c0,0.2 0.1,0.3 0.3,0.3h0.4c0.2,0 0.3,-0.1 0.3,-0.3l0,0C3.1,9.1 3,9 2.8,9zM9,2.4v0.4C9,3 9.1,3.1 9.3,3.1l0,0c0.2,0 0.3,-0.1 0.3,-0.3V2.4c0,-0.2 -0.1,-0.3 -0.3,-0.3l0,0C9.1,2.1 9,2.2 9,2.4zM9,15.8v0.4c0,0.2 0.1,0.3 0.3,0.3l0,0c0.2,0 0.3,-0.1 0.3,-0.3v-0.4c0,-0.2 -0.1,-0.3 -0.3,-0.3l0,0C9.1,15.5 9,15.6 9,15.8zM18.6,9.3c0,5.1 -4.2,9.3 -9.3,9.3C4.2,18.6 0,14.4 0,9.3C0,4.2 4.2,0 9.3,0C14.4,0 18.6,4.2 18.6,9.3zM17,9.3c0,-4.3 -3.5,-7.7 -7.7,-7.7C5,1.6 1.6,5 1.6,9.3C1.6,13.5 5,17 9.3,17C13.5,17 17,13.5 17,9.3zM10.4,9.4C10.4,9.3 10.4,9.3 10.4,9.4c0,-0.5 -0.2,-0.8 -0.5,-1L9.8,4.7c0,-0.2 -0.1,-0.5 -0.5,-0.5C9,4.3 8.8,4.6 8.8,4.7L8.6,8.4C8.3,8.6 8.2,8.9 8.2,9.3c0,0.6 0.5,1.1 1.1,1.1c0,0 0.1,0 0.1,0l2.2,1.9c0.1,0.1 0.4,0.2 0.7,-0.1c0.3,-0.3 0.2,-0.6 0.1,-0.7L10.4,9.4z"
		fill="#0082CA"/>
</svg>
