<svg xmlns="http://www.w3.org/2000/svg"
	width="22.16dp"
	height="16.22dp"
	viewBox="0 0 22.2 16.2">
	<path
		d="M11.06,16.22c-0.25,0 -0.49,-0.1 -0.67,-0.28l-0.78,-0.78c-0.18,-0.18 -0.28,-0.42 -0.28,-0.67c0,-0.26 0.1,-0.49 0.28,-0.67c0.39,-0.39 0.91,-0.6 1.45,-0.6c0.55,0 1.06,0.21 1.45,0.6c0.18,0.18 0.28,0.42 0.28,0.67c0,0.26 -0.1,0.5 -0.28,0.67l-0.78,0.78C11.56,16.12 11.32,16.22 11.06,16.22zM14.96,12.33c-0.26,0 -0.49,-0.1 -0.67,-0.28c-0.86,-0.86 -2,-1.33 -3.22,-1.33s-2.36,0.47 -3.22,1.33c-0.18,0.18 -0.42,0.28 -0.67,0.28c-0.26,0 -0.49,-0.1 -0.67,-0.28s-0.28,-0.42 -0.28,-0.67s0.1,-0.49 0.28,-0.67c1.22,-1.22 2.84,-1.89 4.57,-1.89s3.35,0.67 4.57,1.89c0.37,0.37 0.37,0.98 0,1.35C15.45,12.23 15.21,12.33 14.96,12.33zM18.07,9.21c-0.26,0 -0.49,-0.1 -0.67,-0.28c-1.69,-1.69 -3.94,-2.62 -6.34,-2.62S6.41,7.24 4.72,8.93C4.54,9.11 4.3,9.21 4.05,9.21c-0.26,0 -0.5,-0.1 -0.67,-0.28c-0.37,-0.37 -0.37,-0.98 0,-1.35C5.43,5.53 8.16,4.4 11.06,4.4s5.63,1.13 7.68,3.18c0.37,0.37 0.37,0.98 0,1.35C18.57,9.11 18.33,9.21 18.07,9.21zM21.19,6.1c-0.26,0 -0.49,-0.1 -0.67,-0.28C18,3.3 14.64,1.91 11.07,1.91S4.14,3.3 1.62,5.82C1.44,6 1.2,6.1 0.95,6.1S0.45,6 0.28,5.82c-0.37,-0.37 -0.37,-0.98 0,-1.35C3.16,1.59 7,0 11.08,0S19,1.59 21.88,4.47c0.18,0.18 0.28,0.42 0.28,0.67c0,0.26 -0.1,0.49 -0.28,0.67C21.68,6 21.44,6.1 21.19,6.1z"
		fill="#0082CA"/>
</svg>
