<svg xmlns="http://www.w3.org/2000/svg"
	width="22.2dp"
	height="16.2dp"
	viewBox="0 0 22.2 16.2">
	<path
		d="M9.6,15.2c-0.2,-0.2 -0.3,-0.4 -0.3,-0.7c0,-0.3 0.1,-0.5 0.3,-0.7c0.4,-0.4 0.9,-0.6 1.5,-0.6c0.5,0 1.1,0.2 1.4,0.6c0.2,0.2 0.3,0.4 0.3,0.7c0,0.3 -0.1,0.5 -0.3,0.7l-0.8,0.8c-0.2,0.2 -0.4,0.3 -0.7,0.3c-0.3,0 -0.5,-0.1 -0.7,-0.3L9.6,15.2z"
		fill="#0082CA"/>
	<path
		d="M6.5,10.7c1.2,-1.2 2.8,-1.9 4.6,-1.9s3.4,0.7 4.6,1.9c0.4,0.4 0.4,1 0,1.4c-0.2,0.2 -0.4,0.3 -0.7,0.3c-0.3,0 -0.5,-0.1 -0.7,-0.3c-0.9,-0.9 -2,-1.3 -3.2,-1.3s-2.4,0.5 -3.2,1.3c-0.2,0.2 -0.4,0.3 -0.7,0.3c-0.3,0 -0.5,-0.1 -0.7,-0.3c-0.2,-0.2 -0.3,-0.4 -0.3,-0.7S6.3,10.9 6.5,10.7z"
		fill="#0082CA"/>
	<path
		d="M11.1,6.3c-2.4,0 -4.7,0.9 -6.3,2.6C4.5,9.1 4.3,9.2 4.1,9.2c-0.3,0 -0.5,-0.1 -0.7,-0.3C3,8.6 3,7.9 3.4,7.6c2,-2 4.8,-3.2 7.7,-3.2s5.6,1.1 7.7,3.2c0.4,0.4 0.4,1 0,1.4c-0.2,0.2 -0.4,0.3 -0.7,0.3s-0.5,-0.1 -0.7,-0.3C15.7,7.2 13.5,6.3 11.1,6.3z"
		fill="#808080"/>
	<path
		d="M0.3,4.5C3.2,1.6 7,0 11.1,0S19,1.6 21.9,4.5c0.2,0.2 0.3,0.4 0.3,0.7c0,0.3 -0.1,0.5 -0.3,0.7c-0.2,0.2 -0.4,0.3 -0.7,0.3c-0.3,0 -0.5,-0.1 -0.7,-0.3c-2.5,-2.5 -5.9,-3.9 -9.5,-3.9S4.1,3.3 1.6,5.8C1.4,6 1.2,6.1 0.9,6.1S0.4,6 0.3,5.8C-0.1,5.4 -0.1,4.8 0.3,4.5z"
		fill="#808080"/>
</svg>
