<svg viewBox="0 0 1171.55 1520.99" xmlns="http://www.w3.org/2000/svg">
    <path d="m257.43 19.43h19.24v49.2h-19.24z" fill="#8c8b8e" />
    <path d="m886.43 19.43h19.24v49.2h-19.24z" fill="#8c8b8e" />
    <path d="m546.23 763.97h79.17v156.86h-79.17z" fill="#b3b3b3" />
    <path d="m557.6 917.91h56.44v187.2h-56.44z" fill="#999" />
    <path
        d="m1144 55.26h-1116.4a11.19 11.19 0 0 0 -11.19 11.19v699.19a11.19 11.19 0 0 0 11.19 11.19h1116.4a11.19 11.19 0 0 0 11.19-11.19v-699.19a11.19 11.19 0 0 0 -11.19-11.19z"
        fill="#ff9d00" />
    <path d="m58.92 97.78h1053.78v636.53h-1053.78z" fill="#2c2e2e" />
    <rect fill="#b3b3b3" height="38.87" rx="6.9" width="840.69" x="161.2" />
    <path d="m94.6 1346.86h954.09v40.54h-954.09z" fill="#2c2e2e" />
    <g fill="#e1771c">
        <path d="m217.5 1107.28h195.12v53.9h-195.12z" />
        <path d="m303.76 1121.43h195.12v53.9h-195.12z" />
        <path d="m451.95 1103.95h505.83v94.5h-505.83z" />
    </g>
    <g fill="#ff9d00">
        <rect height="17.79" rx="3.18" width="217.34" x="205.85" y="1094.35" />
        <path
            d="m175.69 1137.56h820.25a8.39 8.39 0 0 1 8.39 8.39v99.21a0 0 0 0 1 0 0h-837a0 0 0 0 1 0 0v-99.21a8.39 8.39 0 0 1 8.36-8.39z" />
        <rect height="17.79" rx="3.18" width="537.05" x="436.34" y="1094.35" />
    </g>
    <rect fill="#231815" height="297.95" rx="32.5" width="126.07" x="12.46" y="1222.39" />
    <path
        d="m34.3 1130.21-32.38 29.72a5.94 5.94 0 0 0 -1.92 4.37v190.38a1.59 1.59 0 0 0 1.59 1.59h157.19a1.59 1.59 0 0 0 1.59-1.59v-220.1a5.93 5.93 0 0 0 -5.93-5.94h-116.13a5.89 5.89 0 0 0 -4.01 1.57z"
        fill="#ff9d00" />
    <path d="m26.98 1222.43h40.43v286.02h-40.43z" fill="#b3b3b3" />
    <rect fill="#b3b3b3" height="12.54" rx="1.7" width="71.67" x="11.35" y="1508.45" />
    <path
        d="m21.64 1218.61h51.1a0 0 0 0 1 0 0v244.48a3.52 3.52 0 0 1 -3.52 3.52h-44.06a3.52 3.52 0 0 1 -3.52-3.52v-244.48a0 0 0 0 1 0 0z"
        fill="#404241" />
    <path d="m111.49 1289.3h71.56v67.23h-71.56z" fill="#8b8b8b" />
    <path
        d="m81.55 1293.39v59a.56.56 0 0 1 -.56.56h-12.76a.56.56 0 0 1 -.57-.56v-59a.56.56 0 0 1 .57-.57h12.77a.56.56 0 0 1 .55.57zm-21.84-3.57v66.18a5 5 0 0 0 5 5h19.84a5 5 0 0 0 5-5v-66.18a5 5 0 0 0 -5-5h-19.88a5 5 0 0 0 -4.96 5z"
        fill="#404241" />
    <path
        d="m103.53 1293.39v59a.56.56 0 0 1 -.56.56h-4.97a.57.57 0 0 1 -.57-.56v-59a.57.57 0 0 1 .57-.57h5a.56.56 0 0 1 .53.57zm-14-3.56v66.17a5 5 0 0 0 5 5h12.06a5 5 0 0 0 5-5v-66.17a5 5 0 0 0 -5-5h-12.12a5 5 0 0 0 -4.96 5z"
        fill="#8b8b8b" />
    <rect fill="#231815" height="297.95" rx="32.36" transform="matrix(-1 0 0 -1 2193.23 2742.66)"
        width="124.94" x="1034.14" y="1222.36" />
    <path
        d="m1137.25 1130.17 32.38 29.72a5.94 5.94 0 0 1 1.92 4.37v190.39a1.59 1.59 0 0 1 -1.59 1.59h-158.79v-221.7a5.93 5.93 0 0 1 5.94-5.93h116.13a5.9 5.9 0 0 1 4.01 1.56z"
        fill="#ff9d00" />
    <path d="m1104.15 1222.39h40.43v286.02h-40.43z" fill="#b3b3b3"
        transform="matrix(-1 0 0 -1 2248.72 2730.81)" />
    <rect fill="#b3b3b3" height="12.54" rx="1.7" transform="matrix(-1 0 0 -1 2248.72 3029.36)"
        width="71.67" x="1088.52" y="1508.41" />
    <rect fill="#404241" height="248" rx="3.52" transform="matrix(-1 0 0 -1 2248.72 2685.16)"
        width="51.1" x="1098.81" y="1218.58" />
    <path d="m988.5 1289.25h71.56v67.23h-71.56z" fill="#8b8b8b"
        transform="matrix(-1 0 0 -1 2048.56 2645.74)" />
    <path
        d="m1090.56 1292.78h12.76a.58.58 0 0 1 .57.57v59.05a.58.58 0 0 1 -.57.57h-12.76a.58.58 0 0 1 -.57-.57v-59.05a.58.58 0 0 1 .57-.57zm16.32-8h-19.88a5 5 0 0 0 -5 5v66.22a5 5 0 0 0 5 5h19.88a5 5 0 0 0 5-5v-66.17a5 5 0 0 0 -5-5z"
        fill="#404241" />
    <path
        d="m1068.58 1292.78h4.94a.58.58 0 0 1 .57.57v59.05a.58.58 0 0 1 -.57.57h-4.94a.58.58 0 0 1 -.57-.57v-59.05a.58.58 0 0 1 .57-.57zm8.5-8h-12.08a5 5 0 0 0 -5 5v66.22a5 5 0 0 0 5 5h12.06a5 5 0 0 0 5-5v-66.17a5 5 0 0 0 -4.98-5z"
        fill="#8b8b8b" />
    <rect fill="#b3b3b3" height="14.86" rx="2.21" width="100.85" x="535.39" y="907.54" />
    <path d="m167.3 1240.3h837.03v5.91h-837.03z" fill="#e1771c" />
    <g fill="#404241">
        <path d="m1087.58 1289.25h17v67h-17z" />
        <path d="m64.93 1289.25h20v69h-20z" />
        <rect height="9.95" rx="2.46" width="58.42" x="17.98" y="1213.61" />
        <rect height="9.95" rx="2.46" width="58.42" x="1095.15" y="1213.61" />
    </g>
    <path
        d="m1005.1 1246.21h-838.57a6.08 6.08 0 0 0 -6.08 6.08v149.41a23.28 23.28 0 0 0 23.28 23.3h128.27a10.64 10.64 0 0 0 7.73-3.34l6.61-7a10.64 10.64 0 0 1 7.74-3.34h503.5a10.61 10.61 0 0 1 7.73 3.34l6.62 7a10.62 10.62 0 0 0 7.73 3.34h128.24a23.27 23.27 0 0 0 23.27-23.28v-149.43a6.08 6.08 0 0 0 -6.07-6.08zm-589 150.13h-115.67a2.42 2.42 0 0 1 -2.42-2.42v-44.64a2.43 2.43 0 0 1 2.42-2.42h115.69a2.42 2.42 0 0 1 2.42 2.42v44.64a2.42 2.42 0 0 1 -2.42 2.42zm455.07 0h-115.66a2.42 2.42 0 0 1 -2.42-2.42v-44.64a2.42 2.42 0 0 1 2.42-2.42h115.68a2.42 2.42 0 0 1 2.42 2.42v44.64a2.42 2.42 0 0 1 -2.42 2.42z"
        fill="#b3b3b3" />
    <path d="m259 306.31 60.55 179.69h.92l60.53-179.69h39.21l-78.43 220.42h-43.53l-78.42-220.42z"
        fill="#ff0" />
    <path
        d="m516.51 306.31 75 172.88h1.24l74.71-172.88h42.29v220.42h-36.11v-151.89h-1.23l-64.83 151.89h-31.18l-64.83-151.89h-1.24v151.89h-36.12v-220.42z"
        fill="#ff0" />
    <path
        d="m922.16 321.75c14.2 12.34 21.92 28.4 23.77 48.46h-35.2c-2.77-12.65-8.33-21.91-17-28.09-8.34-6.17-19.45-8.95-33-8.95q-20.84 0-32.41 8.33c-7.1 4.94-10.5 11.74-10.5 20.38 0 12 11.42 22.53 34.89 31.18 21.3 8 42.6 16.05 64.21 24.39 23.15 12 34.88 28.71 34.88 49.7q0 27.33-23.15 45.38c-16 12.35-37.35 18.53-63.29 18.53s-47.23-6.49-63.59-19.15c-17.29-13.58-27.48-33-30.26-58h35.81c2.47 16.05 9.27 28.09 20.38 35.5 9.26 6.48 21.92 9.88 37.66 9.88 14.82 0 26.86-2.78 36.43-8.34 9.26-5.86 13.89-13 13.89-21.61 0-13-11.73-23.46-34.88-31.8-21.61-7.71-42.91-15.43-64.21-23.15-23.47-12-34.89-28.71-34.89-50.32 0-18.83 7.72-34 23.16-45.07 15.12-11.43 34.57-17 58-17 24.41 0 44.14 6.47 59.3 19.75z"
        fill="#ff0" />
    <path
        d="m874.46 1258.76h56.91a0 0 0 0 1 0 0v49.48a0 0 0 0 1 0 0h-56.91a3.35 3.35 0 0 1 -3.35-3.35v-42.78a3.35 3.35 0 0 1 3.35-3.35z"
        fill="#f13c24" />
    <path
        d="m931.38 1258.76h56.91a3.35 3.35 0 0 1 3.35 3.35v42.78a3.35 3.35 0 0 1 -3.35 3.35h-56.91a0 0 0 0 1 0 0v-49.48a0 0 0 0 1 0 0z"
        fill="#fbb03b" />
    <rect fill="none" height="49.48" rx="3.35" stroke="#4d4d4d" stroke-miterlimit="10"
        stroke-width="4.25" width="120.53" x="871.11" y="1258.76" />
    <path
        d="m243.6 1258.76h56.91a0 0 0 0 1 0 0v49.48a0 0 0 0 1 0 0h-56.91a3.35 3.35 0 0 1 -3.35-3.35v-42.78a3.35 3.35 0 0 1 3.35-3.35z"
        fill="#f13c24" transform="matrix(-1 0 0 -1 540.77 2567)" />
    <path
        d="m180 1258.76h56.9a3.35 3.35 0 0 1 3.35 3.35v42.78a3.35 3.35 0 0 1 -3.35 3.35h-56.9a0 0 0 0 1 0 0v-49.48a0 0 0 0 1 0 0z"
        fill="#fbb03b" transform="matrix(-1 0 0 -1 420.24 2567)" />
    <rect fill="none" height="49.48" rx="3.35" stroke="#4d4d4d" stroke-miterlimit="10"
        stroke-width="4.25" transform="matrix(-1 0 0 -1 480.51 2567)" width="120.53" x="179.99"
        y="1258.76" />
</svg>