<svg xmlns="http://www.w3.org/2000/svg"
    width="1171.6dp"
    height="1521dp"
    viewBox="0 0 1171.6 1521">
    <path
        d="M257.4,19.4h19.2v49.2h-19.2z"
        fill="#9c9c9c"/>
    <path
        d="M886.4,19.4h19.2v49.2h-19.2z"
        fill="#9c9c9c"/>
    <path
        d="M546.2,764h79.2v156.9h-79.2z"
        fill="#9c9c9c"/>
    <path
        d="M557.6,917.9h56.4v187.2h-56.4z"
        fill="#9c9c9c"/>
    <path
        d="M1144,55.3H27.6A11.2,11.2 0,0 0,16.4 66.4V765.6A11.2,11.2 0,0 0,27.6 776.8H1144a11.2,11.2 0,0 0,11.2 -11.2V66.4A11.2,11.2 0,0 0,1144 55.3Z"
        fill="#cccccc"/>
    <path
        d="M44.8,83.6h1082.1v664.9h-1082.1z"
        fill="#2c2e2e"/>
    <path
        d="M168.1,0L995,0A6.9,6.9 0,0 1,1001.9 6.9L1001.9,32A6.9,6.9 0,0 1,995 38.9L168.1,38.9A6.9,6.9 0,0 1,161.2 32L161.2,6.9A6.9,6.9 0,0 1,168.1 0z"
        fill="#9c9c9c"/>
    <path
        d="M94.6,1346.9h954.1v40.5h-954.1z"
        fill="#2c2e2e"/>
    <path
        d="M217.5,1107.3h195.1v53.9h-195.1z"
        fill="#9c9c9c"/>
    <path
        d="M303.8,1121.4h195.1v53.9h-195.1z"
        fill="#9c9c9c"/>
    <path
        d="M452,1103.9h505.8v94.5h-505.8z"
        fill="#9c9c9c"/>
    <path
        d="M209,1094.3L420,1094.3A3.2,3.2 0,0 1,423.2 1097.5L423.2,1109A3.2,3.2 0,0 1,420 1112.1L209,1112.1A3.2,3.2 0,0 1,205.9 1109L205.9,1097.5A3.2,3.2 0,0 1,209 1094.3z"
        fill="#cccccc"/>
    <path
        d="M175.7,1137.6H995.9a8.4,8.4 0,0 1,8.4 8.4v99.2a0,0 0,0 1,0 0h-837a0,0 0,0 1,0 0v-99.2A8.4,8.4 0,0 1,175.7 1137.6Z"
        fill="#cccccc"/>
    <path
        d="M439.5,1094.3L970.2,1094.3A3.2,3.2 0,0 1,973.4 1097.5L973.4,1109A3.2,3.2 0,0 1,970.2 1112.1L439.5,1112.1A3.2,3.2 0,0 1,436.3 1109L436.3,1097.5A3.2,3.2 0,0 1,439.5 1094.3z"
        fill="#cccccc"/>
    <path
        d="M45,1222.4L106,1222.4A32.5,32.5 0,0 1,138.5 1254.9L138.5,1487.8A32.5,32.5 0,0 1,106 1520.3L45,1520.3A32.5,32.5 0,0 1,12.5 1487.8L12.5,1254.9A32.5,32.5 0,0 1,45 1222.4z"
        fill="#231815"/>
    <path
        d="M34.3,1130.2 L1.9,1159.9A5.9,5.9 0,0 0,0 1164.3v190.4a1.6,1.6 0,0 0,1.6 1.6H158.8a1.6,1.6 0,0 0,1.6 -1.6v-220.1a5.9,5.9 0,0 0,-5.9 -5.9H38.3A5.9,5.9 0,0 0,34.3 1130.2Z"
        fill="#cccccc"/>
    <path
        d="M27,1222.4h40.4v286h-40.4z"
        fill="#9c9c9c"/>
    <path
        d="M13.1,1508.4L81.3,1508.4A1.7,1.7 0,0 1,83 1510.2L83,1519.3A1.7,1.7 0,0 1,81.3 1521L13.1,1521A1.7,1.7 0,0 1,11.4 1519.3L11.4,1510.2A1.7,1.7 0,0 1,13.1 1508.4z"
        fill="#9c9c9c"/>
    <path
        d="M21.6,1218.6h51.1a0,0 0,0 1,0 0v244.5a3.5,3.5 0,0 1,-3.5 3.5H25.2a3.5,3.5 0,0 1,-3.5 -3.5V1218.6A0,0 0,0 1,21.6 1218.6Z"
        fill="#404241"/>
    <path
        d="M111.5,1289.3h71.6v67.2h-71.6z"
        fill="#8c8b8e"/>
    <path
        d="M81.6,1293.4v59a0.6,0.6 0,0 1,-0.6 0.6L68.2,1353a0.6,0.6 0,0 1,-0.6 -0.6v-59a0.6,0.6 0,0 1,0.6 -0.6L81,1292.8A0.6,0.6 0,0 1,81.6 1293.4ZM59.7,1289.8L59.7,1356a5,5 0,0 0,5 5L84.6,1361a5,5 0,0 0,5 -5v-66.2a5,5 0,0 0,-5 -5L64.7,1284.8A5,5 0,0 0,59.7 1289.8Z"
        fill="#404241"/>
    <path
        d="M103.5,1293.4v59a0.6,0.6 0,0 1,-0.6 0.6L98,1353a0.6,0.6 0,0 1,-0.6 -0.6v-59a0.6,0.6 0,0 1,0.6 -0.6L103,1292.8A0.6,0.6 0,0 1,103.5 1293.4ZM89.5,1289.8L89.5,1356a5,5 0,0 0,5 5h12.1a5,5 0,0 0,5 -5v-66.2a5,5 0,0 0,-5 -5L94.5,1284.8A5,5 0,0 0,89.5 1289.8Z"
        fill="#8c8b8e"/>
    <path
        d="M1126.7,1520.3L1066.5,1520.3A32.4,32.4 0,0 1,1034.2 1487.9L1034.2,1254.7A32.4,32.4 0,0 1,1066.5 1222.3L1126.7,1222.3A32.4,32.4 0,0 1,1159.1 1254.7L1159.1,1487.9A32.4,32.4 0,0 1,1126.7 1520.3z"
        fill="#231815"/>
    <path
        d="M1137.3,1130.2l32.4,29.7a5.9,5.9 0,0 1,1.9 4.4v190.4a1.6,1.6 0,0 1,-1.6 1.6H1011.2v-221.7a5.9,5.9 0,0 1,5.9 -5.9h116.1A5.9,5.9 0,0 1,1137.3 1130.2Z"
        fill="#cccccc"/>
    <path
        d="M1144.6,1508.4l-40.4,-0l-0,-286l40.4,-0z"
        fill="#9c9c9c"/>
    <path
        d="M1158.5,1521L1090.2,1521A1.7,1.7 0,0 1,1088.5 1519.3L1088.5,1510.1A1.7,1.7 0,0 1,1090.2 1508.4L1158.5,1508.4A1.7,1.7 0,0 1,1160.2 1510.1L1160.2,1519.3A1.7,1.7 0,0 1,1158.5 1521z"
        fill="#9c9c9c"/>
    <path
        d="M1146.4,1466.6L1102.3,1466.6A3.5,3.5 0,0 1,1098.8 1463.1L1098.8,1222.1A3.5,3.5 0,0 1,1102.3 1218.6L1146.4,1218.6A3.5,3.5 0,0 1,1149.9 1222.1L1149.9,1463.1A3.5,3.5 0,0 1,1146.4 1466.6z"
        fill="#404241"/>
    <path
        d="M1060.1,1356.5l-71.6,-0l-0,-67.2l71.6,-0z"
        fill="#8c8b8e"/>
    <path
        d="M1090.6,1292.8h12.8a0.6,0.6 0,0 1,0.6 0.6v59a0.6,0.6 0,0 1,-0.6 0.6h-12.8a0.6,0.6 0,0 1,-0.6 -0.6v-59A0.6,0.6 0,0 1,1090.6 1292.8ZM1106.9,1284.8L1087,1284.8a5,5 0,0 0,-5 5L1082,1356a5,5 0,0 0,5 5h19.9a5,5 0,0 0,5 -5v-66.2A5,5 0,0 0,1106.9 1284.8Z"
        fill="#404241"/>
    <path
        d="M1068.6,1292.8h4.9a0.6,0.6 0,0 1,0.6 0.6v59a0.6,0.6 0,0 1,-0.6 0.6h-4.9a0.6,0.6 0,0 1,-0.6 -0.6v-59A0.6,0.6 0,0 1,1068.6 1292.8ZM1077.1,1284.8L1065,1284.8a5,5 0,0 0,-5 5L1060,1356a5,5 0,0 0,5 5h12.1a5,5 0,0 0,5 -5v-66.2A5,5 0,0 0,1077.1 1284.8Z"
        fill="#8c8b8e"/>
    <path
        d="M537.6,907.5L634,907.5A2.2,2.2 0,0 1,636.2 909.8L636.2,920.2A2.2,2.2 0,0 1,634 922.4L537.6,922.4A2.2,2.2 0,0 1,535.4 920.2L535.4,909.8A2.2,2.2 0,0 1,537.6 907.5z"
        fill="#9c9c9c"/>
    <path
        d="M167.3,1240.3h837v5.9h-837z"
        fill="#9c9c9c"/>
    <path
        d="M1087.6,1289.3h17v67h-17z"
        fill="#404241"/>
    <path
        d="M64.9,1289.3h20v69h-20z"
        fill="#404241"/>
    <path
        d="M20.4,1213.6L73.9,1213.6A2.5,2.5 0,0 1,76.4 1216.1L76.4,1221.1A2.5,2.5 0,0 1,73.9 1223.6L20.4,1223.6A2.5,2.5 0,0 1,18 1221.1L18,1216.1A2.5,2.5 0,0 1,20.4 1213.6z"
        fill="#404241"/>
    <path
        d="M1097.6,1213.6L1151.1,1213.6A2.5,2.5 0,0 1,1153.6 1216.1L1153.6,1221.1A2.5,2.5 0,0 1,1151.1 1223.6L1097.6,1223.6A2.5,2.5 0,0 1,1095.2 1221.1L1095.2,1216.1A2.5,2.5 0,0 1,1097.6 1213.6z"
        fill="#404241"/>
    <path
        d="M1005.1,1246.2L166.5,1246.2a6.1,6.1 0,0 0,-6.1 6.1L160.4,1401.7A23.3,23.3 0,0 0,183.7 1425L312,1425a10.6,10.6 0,0 0,7.7 -3.3l6.6,-7a10.6,10.6 0,0 1,7.7 -3.3L837.6,1411.3a10.6,10.6 0,0 1,7.7 3.3l6.6,7a10.6,10.6 0,0 0,7.7 3.3L987.9,1425a23.3,23.3 0,0 0,23.3 -23.3L1011.2,1252.3A6.1,6.1 0,0 0,1005.1 1246.2ZM416.1,1396.3L300.4,1396.3a2.4,2.4 0,0 1,-2.4 -2.4v-44.6a2.4,2.4 0,0 1,2.4 -2.4L416.1,1346.9a2.4,2.4 0,0 1,2.4 2.4v44.6A2.4,2.4 0,0 1,416.1 1396.3ZM871.2,1396.3L755.5,1396.3a2.4,2.4 0,0 1,-2.4 -2.4v-44.6a2.4,2.4 0,0 1,2.4 -2.4L871.2,1346.9a2.4,2.4 0,0 1,2.4 2.4v44.6A2.4,2.4 0,0 1,871.2 1396.3Z"
        fill="#9c9c9c"/>
    <path
        d="M259,306.3 L319.5,486h0.9L381,306.3h39.2L341.8,526.7H298.3L219.8,306.3Z"
        fill="#8c8b8e"/>
    <path
        d="M516.5,306.3l75,172.9h1.2l74.7,-172.9h42.3V526.7H673.6V374.8h-1.2L607.6,526.7H576.4L511.6,374.8h-1.2V526.7H474.2V306.3Z"
        fill="#8c8b8e"/>
    <path
        d="M922.2,321.8c14.2,12.3 21.9,28.4 23.8,48.5h-35.2c-2.8,-12.6 -8.3,-21.9 -17,-28.1 -8.3,-6.2 -19.5,-8.9 -33,-8.9q-20.8,0 -32.4,8.3c-7.1,4.9 -10.5,11.7 -10.5,20.4 0,12 11.4,22.5 34.9,31.2 21.3,8 42.6,16 64.2,24.4 23.1,12 34.9,28.7 34.9,49.7q0,27.3 -23.1,45.4c-16,12.4 -37.3,18.5 -63.3,18.5s-47.2,-6.5 -63.6,-19.1c-17.3,-13.6 -27.5,-33 -30.3,-58h35.8c2.5,16 9.3,28.1 20.4,35.5 9.3,6.5 21.9,9.9 37.7,9.9 14.8,0 26.9,-2.8 36.4,-8.3 9.3,-5.9 13.9,-13 13.9,-21.6 0,-13 -11.7,-23.5 -34.9,-31.8 -21.6,-7.7 -42.9,-15.4 -64.2,-23.1 -23.5,-12 -34.9,-28.7 -34.9,-50.3 0,-18.8 7.7,-34 23.2,-45.1 15.1,-11.4 34.6,-17 58,-17C887.3,302 907,308.5 922.2,321.8Z"
        fill="#8c8b8e"/>
    <path
        d="M874.5,1258.8h56.9a0,0 0,0 1,0 0v49.5a0,0 0,0 1,0 0H874.5a3.3,3.3 0,0 1,-3.3 -3.3v-42.8A3.3,3.3 0,0 1,874.5 1258.8Z"
        fill="#578C8B8E"/>
    <path
        d="M931.4,1258.8h56.9a3.3,3.3 0,0 1,3.3 3.3v42.8a3.3,3.3 0,0 1,-3.3 3.3H931.4a0,0 0,0 1,0 0v-49.5A0,0 0,0 1,931.4 1258.8Z"
        fill="#578C8B8E"/>
    <path
        d="M874.5,1258.8L988.3,1258.8A3.3,3.3 0,0 1,991.6 1262.1L991.6,1304.9A3.3,3.3 0,0 1,988.3 1308.2L874.5,1308.2A3.3,3.3 0,0 1,871.1 1304.9L871.1,1262.1A3.3,3.3 0,0 1,874.5 1258.8z"
        stroke-width="4.25"
        fill="#00000000"
        stroke="#4d4d4d"/>
    <path
        d="M297.2,1308.2l-56.9,-0a0,0 0,0 1,-0 -0l-0,-49.5a0,0 0,0 1,-0 -0L297.2,1258.8a3.3,3.3 0,0 1,3.3 3.3l-0,42.8a3.3,3.3 0,0 1,-3.3 3.3Z"
        fill="#578C8B8E"/>
    <path
        d="M240.2,1308.2L183.3,1308.2a3.3,3.3 0,0 1,-3.3 -3.3l-0,-42.8a3.3,3.3 0,0 1,3.3 -3.3L240.2,1258.8a0,0 0,0 1,-0 -0l-0,49.5A0,0 0,0 1,240.2 1308.2Z"
        fill="#578C8B8E"/>
    <path
        d="M297.2,1308.2L183.3,1308.2A3.3,3.3 0,0 1,180 1304.9L180,1262.1A3.3,3.3 0,0 1,183.3 1258.8L297.2,1258.8A3.3,3.3 0,0 1,300.5 1262.1L300.5,1304.9A3.3,3.3 0,0 1,297.2 1308.2z"
        stroke-width="4.25"
        fill="#00000000"
        stroke="#4d4d4d"/>
</svg>
