<svg xmlns="http://www.w3.org/2000/svg" width="933.4dp" height="1415.2dp"
    viewBox="0 0 933.4 1415.2">
    <path d="M228.4,19.4h19.2v49.2h-19.2z" fill="#8c8b8e" />
    <path d="M684.7,19.4h19.2v49.2h-19.2z" fill="#8c8b8e" />
    <path d="M426.6,679.4h79.2v179.4h-79.2z" fill="#b3b3b3" />
    <path d="M438,836.3h56.4v163.1h-56.4z" fill="#999" />
    <path
        d="M134.7,0L797.7,0A6.9,6.9 0,0 1,804.6 6.9L804.6,32A6.9,6.9 0,0 1,797.7 38.9L134.7,38.9A6.9,6.9 0,0 1,127.8 32L127.8,6.9A6.9,6.9 0,0 1,134.7 0z"
        fill="#b3b3b3" />
    <path
        d="M418,845.6L514.4,845.6A2.2,2.2 0,0 1,516.6 847.8L516.6,858.2A2.2,2.2 0,0 1,514.4 860.4L418,860.4A2.2,2.2 0,0 1,415.8 858.2L415.8,847.8A2.2,2.2 0,0 1,418 845.6z"
        fill="#b3b3b3" />
    <path d="M94.6,1241.1h714.9v40.5h-714.9z" fill="#2c2e2e" />
    <path d="M209,1001.5h112.9v53.9h-112.9z" fill="#e1771c" />
    <path d="M281.1,1015.7h127.1v53.9h-127.1z" fill="#e1771c" />
    <path d="M361.2,998.2h366.9v94.5h-366.9z" fill="#e1771c" />
    <path
        d="M200.5,988.6L329.3,988.6A3.2,3.2 0,0 1,332.5 991.8L332.5,1003.2A3.2,3.2 0,0 1,329.3 1006.4L200.5,1006.4A3.2,3.2 0,0 1,197.4 1003.2L197.4,991.8A3.2,3.2 0,0 1,200.5 988.6z"
        fill="#ff9d00" />
    <path
        d="M167.2,1031.8H766.3a8.4,8.4 0,0 1,8.4 8.4v99.2a0,0 0,0 1,0 0H158.8a0,0 0,0 1,0 0V1040.2A8.4,8.4 0,0 1,167.2 1031.8Z"
        fill="#ff9d00" />
    <path
        d="M348.8,988.6L740.6,988.6A3.2,3.2 0,0 1,743.8 991.8L743.8,1003.2A3.2,3.2 0,0 1,740.6 1006.4L348.8,1006.4A3.2,3.2 0,0 1,345.6 1003.2L345.6,991.8A3.2,3.2 0,0 1,348.8 988.6z"
        fill="#ff9d00" />
    <path
        d="M45,1116.6L106,1116.6A32.5,32.5 0,0 1,138.5 1149.1L138.5,1382.1A32.5,32.5 0,0 1,106 1414.6L45,1414.6A32.5,32.5 0,0 1,12.5 1382.1L12.5,1149.1A32.5,32.5 0,0 1,45 1116.6z"
        fill="#231815" />
    <path
        d="M34.3,1024.5 L1.9,1054.2A5.9,5.9 0,0 0,0 1058.6v190.4a1.6,1.6 0,0 0,1.6 1.6H150.3a1.6,1.6 0,0 0,1.6 -1.6v-220.1a5.9,5.9 0,0 0,-5.9 -5.9H38.3A5.9,5.9 0,0 0,34.3 1024.5Z"
        fill="#ff9d00" />
    <path d="M27,1116.7h40.4v286h-40.4z" fill="#b3b3b3" />
    <path
        d="M13.1,1402.7L81.3,1402.7A1.7,1.7 0,0 1,83 1404.4L83,1413.5A1.7,1.7 0,0 1,81.3 1415.2L13.1,1415.2A1.7,1.7 0,0 1,11.4 1413.5L11.4,1404.4A1.7,1.7 0,0 1,13.1 1402.7z"
        fill="#b3b3b3" />
    <path
        d="M21.6,1112.9h51.1a0,0 0,0 1,0 0v244.5a3.5,3.5 0,0 1,-3.5 3.5H25.2a3.5,3.5 0,0 1,-3.5 -3.5V1112.9A0,0 0,0 1,21.6 1112.9Z"
        fill="#404241" />
    <path d="M111.5,1183.6h63.1v67.2h-63.1z" fill="#8b8b8b" />
    <path
        d="M81.6,1187.6v59a0.6,0.6 0,0 1,-0.6 0.6L68.2,1247.2a0.6,0.6 0,0 1,-0.6 -0.6v-59a0.6,0.6 0,0 1,0.6 -0.6L81,1187.1A0.6,0.6 0,0 1,81.6 1187.6ZM59.7,1184.1v66.2a5,5 0,0 0,5 5L84.6,1255.3a5,5 0,0 0,5 -5v-66.2a5,5 0,0 0,-5 -5L64.7,1179.1A5,5 0,0 0,59.7 1184.1Z"
        fill="#404241" />
    <path
        d="M103.5,1187.6v59a0.6,0.6 0,0 1,-0.6 0.6L98,1247.2a0.6,0.6 0,0 1,-0.6 -0.6v-59a0.6,0.6 0,0 1,0.6 -0.6L103,1187.1A0.6,0.6 0,0 1,103.5 1187.6ZM89.5,1184.1v66.2a5,5 0,0 0,5 5h12.1a5,5 0,0 0,5 -5v-66.2a5,5 0,0 0,-5 -5L94.5,1179.1A5,5 0,0 0,89.5 1184.1Z"
        fill="#8b8b8b" />
    <path d="M158.8,1134.6h615.9v5.9h-615.9z" fill="#e1771c" />
    <path d="M64.9,1183.5h20v69h-20z" fill="#404241" />
    <path
        d="M20.4,1107.9L73.9,1107.9A2.5,2.5 0,0 1,76.4 1110.3L76.4,1115.3A2.5,2.5 0,0 1,73.9 1117.8L20.4,1117.8A2.5,2.5 0,0 1,18 1115.3L18,1110.3A2.5,2.5 0,0 1,20.4 1107.9z"
        fill="#404241" />
    <path
        d="M888.5,1414.5L827.4,1414.5A32.5,32.5 0,0 1,794.9 1382L794.9,1149.1A32.5,32.5 0,0 1,827.4 1116.6L888.5,1116.6A32.5,32.5 0,0 1,921 1149.1L921,1382A32.5,32.5 0,0 1,888.5 1414.5z"
        fill="#231815" />
    <path
        d="M899.1,1024.4l32.4,29.7a5.9,5.9 0,0 1,1.9 4.4V1248.9a1.6,1.6 0,0 1,-1.6 1.6H783.2a1.6,1.6 0,0 1,-1.6 -1.6V1028.8a5.9,5.9 0,0 1,5.9 -5.9H895.1A5.9,5.9 0,0 1,899.1 1024.4Z"
        fill="#ff9d00" />
    <path d="M906.5,1402.7l-40.4,-0l-0,-286l40.4,-0z" fill="#b3b3b3" />
    <path
        d="M920.4,1415.2L852.1,1415.2A1.7,1.7 0,0 1,850.4 1413.5L850.4,1404.4A1.7,1.7 0,0 1,852.1 1402.7L920.4,1402.7A1.7,1.7 0,0 1,922.1 1404.4L922.1,1413.5A1.7,1.7 0,0 1,920.4 1415.2z"
        fill="#b3b3b3" />
    <path
        d="M908.3,1360.8l-44.1,-0a3.5,3.5 0,0 1,-3.5 -3.5l-0,-244.5a0,0 0,0 1,-0 -0L911.8,1112.8a0,0 0,0 1,-0 -0L911.8,1357.3a3.5,3.5 0,0 1,-3.5 3.5Z"
        fill="#404241" />
    <path d="M821.9,1250.7l-63.1,-0l-0,-67.2l63.1,-0z" fill="#8b8b8b" />
    <path
        d="M852.5,1187h12.8a0.6,0.6 0,0 1,0.6 0.6v59a0.6,0.6 0,0 1,-0.6 0.6L852.5,1247.2a0.6,0.6 0,0 1,-0.6 -0.6L851.9,1187.6A0.6,0.6 0,0 1,852.5 1187ZM868.8,1179L848.9,1179a5,5 0,0 0,-5 5v66.2a5,5 0,0 0,5 5h19.9a5,5 0,0 0,5 -5L873.8,1184A5,5 0,0 0,868.8 1179.1Z"
        fill="#404241" />
    <path
        d="M830.5,1187h4.9a0.6,0.6 0,0 1,0.6 0.6v59a0.6,0.6 0,0 1,-0.6 0.6h-4.9a0.6,0.6 0,0 1,-0.6 -0.6L829.9,1187.6A0.6,0.6 0,0 1,830.5 1187ZM839,1179L826.9,1179a5,5 0,0 0,-5 5v66.2a5,5 0,0 0,5 5L839,1255.2a5,5 0,0 0,5 -5L844,1184A5,5 0,0 0,839 1179.1Z"
        fill="#8b8b8b" />
    <path d="M868.5,1252.5l-20,-0l-0,-69l20,-0z" fill="#404241" />
    <path
        d="M913,1117.8L859.5,1117.8A2.5,2.5 0,0 1,857 1115.3L857,1110.3A2.5,2.5 0,0 1,859.5 1107.8L913,1107.8A2.5,2.5 0,0 1,915.5 1110.3L915.5,1115.3A2.5,2.5 0,0 1,913 1117.8z"
        fill="#404241" />
    <path
        d="M775.5,1140.5L158,1140.5a6.1,6.1 0,0 0,-6.1 6.1L151.9,1296a23.3,23.3 0,0 0,23.3 23.3L289.3,1319.3a10.6,10.6 0,0 0,7.7 -3.3l6.6,-7a10.6,10.6 0,0 1,7.7 -3.3L622.2,1305.6a10.6,10.6 0,0 1,7.7 3.3l6.6,7a10.6,10.6 0,0 0,7.7 3.3L758.3,1319.3A23.3,23.3 0,0 0,781.6 1296L781.6,1146.5A6.1,6.1 0,0 0,775.5 1140.5ZM382.1,1290.6L277.8,1290.6a2.4,2.4 0,0 1,-2.4 -2.4v-44.6a2.4,2.4 0,0 1,2.4 -2.4L382.1,1241.1a2.4,2.4 0,0 1,2.4 2.4v44.6A2.4,2.4 0,0 1,382.1 1290.6ZM655.8,1290.6L551.4,1290.6a2.4,2.4 0,0 1,-2.4 -2.4v-44.6a2.4,2.4 0,0 1,2.4 -2.4L655.8,1241.1a2.4,2.4 0,0 1,2.4 2.4v44.6A2.4,2.4 0,0 1,655.8 1290.6Z"
        fill="#b3b3b3" />
    <path
        d="M650.6,1153H707.5a0,0 0,0 1,0 0v49.5a0,0 0,0 1,0 0H650.6a3.3,3.3 0,0 1,-3.3 -3.3v-42.8A3.3,3.3 0,0 1,650.6 1153Z"
        fill="#f13c24" />
    <path
        d="M707.5,1153h56.9a3.3,3.3 0,0 1,3.3 3.3v42.8a3.3,3.3 0,0 1,-3.3 3.3H707.5a0,0 0,0 1,0 0V1153A0,0 0,0 1,707.5 1153Z"
        fill="#fbb03b" />
    <path
        d="M650.6,1153L764.4,1153A3.3,3.3 0,0 1,767.8 1156.4L767.8,1199.1A3.3,3.3 0,0 1,764.4 1202.5L650.6,1202.5A3.3,3.3 0,0 1,647.2 1199.1L647.2,1156.4A3.3,3.3 0,0 1,650.6 1153z"
        stroke-width="4.25" fill="#00000000" stroke="#4d4d4d" />
    <path
        d="M282.9,1202.5l-56.9,-0a0,0 0,0 1,-0 -0l-0,-49.5a0,0 0,0 1,-0 -0L282.9,1153a3.3,3.3 0,0 1,3.3 3.3l-0,42.8A3.3,3.3 0,0 1,282.9 1202.5Z"
        fill="#f13c24" />
    <path
        d="M226,1202.5l-56.9,-0a3.3,3.3 0,0 1,-3.3 -3.3l-0,-42.8a3.3,3.3 0,0 1,3.3 -3.3L226,1153a0,0 0,0 1,-0 -0L226,1202.5A0,0 0,0 1,226 1202.5Z"
        fill="#fbb03b" />
    <path
        d="M282.9,1202.5L169.1,1202.5A3.3,3.3 0,0 1,165.8 1199.1L165.8,1156.4A3.3,3.3 0,0 1,169.1 1153L282.9,1153A3.3,3.3 0,0 1,286.3 1156.4L286.3,1199.1A3.3,3.3 0,0 1,282.9 1202.5z"
        stroke-width="4.25" fill="#00000000" stroke="#4d4d4d" />
    <path
        d="M822.1,750.7a10.8,10.8 0,0 0,10.8 -10.8V66a10.8,10.8 0,0 0,-10.8 -10.8H110.3A10.8,10.8 0,0 0,99.4 66V739.9a10.8,10.8 0,0 0,10.8 10.8Z"
        fill="#ff9d00" />
    <path d="M142,97.8h648.5v610.4h-648.5z" fill="#2c2e2e" />
    <path
        d="M466.2,108c-162.9,0 -295,132.1 -295,295s132.1,295 295,295 295,-132.1 295,-295S629.1,108 466.2,108ZM466.2,649.3c-136,0 -246.3,-110.3 -246.3,-246.3s110.3,-246.3 246.3,-246.3S712.5,266.9 712.5,403 602.2,649.3 466.2,649.3Z"
        fill="#ff0000" />
    <path d="M296,307.9 L333.1,435.4 369,307.9h30.5L347.6,505.4H318L266.1,307.9Z" fill="#fff" />
    <path
        d="M486.6,390.1Q508.6,400 520,417a66.8,66.8 0,0 1,11.3 37.8q0,25.1 -14.9,39.5t-43.6,14.4q-45,0 -62.3,-43.3l22.7,-12.6q6.6,13.9 15.7,19.3t23,6.1q13.9,0.7 22,-4.9t8.2,-18.2a41.4,41.4 0,0 0,-1.3 -10.4,26.9 26.9,0 0,0 -5.2,-9.7A54.3,54.3 0,0 0,484.4 425a189.8,189.8 0,0 0,-18.9 -11.4q-25.8,-13.5 -36.5,-27.9t-10.7,-33.9a43.3,43.3 0,0 1,4.4 -19.5A48.8,48.8 0,0 1,434.6 317,52 52,0 0,1 452,307a65.1,65.1 0,0 1,21.4 -3.5q18.2,0 30.4,10.1t22.5,27.3l-22.3,12.9a45.9,45.9 0,0 0,-13.1 -14.7Q483.5,334 473.1,334q-14.5,0 -20.1,4.5t-5.7,14a24.7,24.7 0,0 0,1.4 8.1,26.8 26.8,0 0,0 5.5,8.8 60.6,60.6 0,0 0,11.8 9.7A156.7,156.7 0,0 0,486.6 390.1Z"
        fill="#fff" />
    <path d="M590.1,475h79.9v30.4H561.2V307.9h28.9Z" fill="#fff" />
</svg>
